<?xml version="1.0" encoding="UTF-8"?>
<svg xmlns="http://www.w3.org/2000/svg" viewBox="0 0 243.31 358.56">
  <defs>
    <style>
      .cls-1 {
        fill: #ed80d1;
      }
    </style>
  </defs>
  <g id="Layer_1" data-name="Layer 1">
    <g>
      <path class="cls-1" d="M145.57,314.25h-16.11v-16.11h16.11v16.11ZM129.71,314h15.61v-15.61h-15.61v15.61Z"/>
      <rect class="cls-1" x="113.73" y="314.13" width="15.86" height="15.87"/>
      <g>
        <rect class="cls-1" x="129.59" y="298.27" width="15.86" height="15.86"/>
        <path class="cls-1" d="M129.71,330.12h-16.11v-16.12h16.11v16.12ZM113.85,329.87h15.61v-15.62h-15.61v15.62Z"/>
        <rect class="cls-1" x="97.86" y="298.27" width="15.87" height="15.86"/>
      </g>
      <path class="cls-1" d="M113.85,314.25h-16.12v-16.11h16.12v16.11ZM97.98,314h15.62v-15.61h-15.62v15.61Z"/>
    </g>
  </g>
  <g id="Layer_2" data-name="Layer 2">
    <g>
      <path class="cls-1" d="M177.3,282.52h-16.11v-16.11h16.11v16.11ZM161.44,282.27h15.61v-15.61h-15.61v15.61Z"/>
      <path class="cls-1" d="M161.44,298.39h-16.12v-16.12h16.12v16.12ZM145.57,298.14h15.62v-15.62h-15.62v15.62Z"/>
      <g>
        <g>
          <rect class="cls-1" x="145.45" y="282.4" width="15.87" height="15.87"/>
          <path class="cls-1" d="M97.98,298.39h-16.11v-16.12h16.11v16.12ZM82.12,298.14h15.61v-15.62h-15.61v15.62Z"/>
        </g>
        <g>
          <rect class="cls-1" x="161.32" y="266.54" width="15.86" height="15.86"/>
          <path class="cls-1" d="M82.12,282.52h-16.12v-16.11h16.12v16.11ZM66.25,282.27h15.62v-15.61h-15.62v15.61Z"/>
        </g>
        <rect class="cls-1" x="66.13" y="266.54" width="15.87" height="15.86"/>
        <rect class="cls-1" x="82" y="282.4" width="15.86" height="15.87"/>
      </g>
    </g>
  </g>
  <g id="Layer_3" data-name="Layer 3">
    <g>
      <rect class="cls-1" x="193.05" y="234.81" width="15.86" height="15.86"/>
      <path class="cls-1" d="M193.17,266.66h-16.12v-16.12h16.12v16.12ZM177.3,266.41h15.62v-15.62h-15.62v15.62Z"/>
      <g>
        <g>
          <rect class="cls-1" x="177.18" y="250.67" width="15.87" height="15.87"/>
          <path class="cls-1" d="M66.25,266.66h-16.11v-16.12h16.11v16.12ZM50.39,266.41h15.61v-15.62h-15.61v15.62Z"/>
        </g>
        <g>
          <path class="cls-1" d="M209.03,250.79h-16.11v-16.11h16.11v16.11ZM193.17,250.54h15.61v-15.61h-15.61v15.61Z"/>
          <path class="cls-1" d="M50.39,250.79h-16.12v-16.11h16.12v16.11ZM34.52,250.54h15.62v-15.61h-15.62v15.61Z"/>
        </g>
        <rect class="cls-1" x="34.4" y="234.81" width="15.87" height="15.86"/>
        <rect class="cls-1" x="50.27" y="250.67" width="15.86" height="15.87"/>
      </g>
    </g>
  </g>
  <g id="Layer_4" data-name="Layer 4">
    <g>
      <rect class="cls-1" x="113.73" y="282.4" width="15.86" height="15.87"/>
      <path class="cls-1" d="M129.71,298.39h-16.11v-16.12h16.11v16.12ZM113.85,298.14h15.61v-15.62h-15.61v15.62Z"/>
      <rect class="cls-1" x="113.73" y="266.54" width="15.86" height="15.86"/>
      <path class="cls-1" d="M129.71,282.52h-16.11v-16.11h16.11v16.11ZM113.85,282.27h15.61v-15.61h-15.61v15.61Z"/>
      <rect class="cls-1" x="113.73" y="250.67" width="15.86" height="15.87"/>
      <path class="cls-1" d="M129.71,266.66h-16.11v-16.12h16.11v16.12ZM113.85,266.41h15.61v-15.62h-15.61v15.62Z"/>
    </g>
  </g>
  <g id="Layer_5" data-name="Layer 5">
    <g>
      <rect class="cls-1" x="113.73" y="218.95" width="15.86" height="15.86"/>
      <path class="cls-1" d="M129.71,234.93h-16.11v-16.11h16.11v16.11ZM113.85,234.68h15.61v-15.61h-15.61v15.61Z"/>
      <rect class="cls-1" x="113.73" y="203.08" width="15.86" height="15.87"/>
      <path class="cls-1" d="M129.71,219.07h-16.11v-16.12h16.11v16.12ZM113.85,218.82h15.61v-15.62h-15.61v15.62Z"/>
      <rect class="cls-1" x="113.73" y="187.22" width="15.86" height="15.86"/>
      <path class="cls-1" d="M129.71,203.2h-16.11v-16.11h16.11v16.11ZM113.85,202.95h15.61v-15.61h-15.61v15.61Z"/>
    </g>
  </g>
  <g id="Layer_6" data-name="Layer 6">
    <g>
      <rect class="cls-1" x="113.73" y="155.49" width="15.86" height="15.86"/>
      <path class="cls-1" d="M129.71,171.47h-16.11v-16.11h16.11v16.11ZM113.85,171.22h15.61v-15.61h-15.61v15.61Z"/>
      <rect class="cls-1" x="113.73" y="139.62" width="15.86" height="15.87"/>
      <path class="cls-1" d="M129.71,155.61h-16.11v-16.12h16.11v16.12ZM113.85,155.36h15.61v-15.62h-15.61v15.62Z"/>
    </g>
  </g>
  <g id="Layer_7" data-name="Layer 7">
    <g>
      <rect class="cls-1" x="113.73" y="107.89" width="15.86" height="15.87"/>
      <path class="cls-1" d="M129.71,123.88h-16.11v-16.12h16.11v16.12ZM113.85,123.63h15.61v-15.62h-15.61v15.62Z"/>
      <rect class="cls-1" x="113.73" y="76.17" width="15.86" height="15.86"/>
      <path class="cls-1" d="M129.71,92.15h-16.11v-16.11h16.11v16.11ZM113.85,91.9h15.61v-15.61h-15.61v15.61Z"/>
    </g>
  </g>
  <g id="Layer_8" data-name="Layer 8">
    <g>
      <rect class="cls-1" x="113.73" y="44.44" width="15.86" height="15.86"/>
      <path class="cls-1" d="M129.71,60.42h-16.11v-16.11h16.11v16.11ZM113.85,60.17h15.61v-15.61h-15.61v15.61Z"/>
      <rect class="cls-1" x="113.73" y="28.57" width="15.86" height="15.87"/>
      <path class="cls-1" d="M129.71,44.56h-16.11v-16.12h16.11v16.12ZM113.85,44.31h15.61v-15.62h-15.61v15.62Z"/>
    </g>
  </g>
</svg>