<?xml version="1.0" encoding="UTF-8"?>
<svg id="phone_about" data-name="phone about" xmlns="http://www.w3.org/2000/svg" viewBox="0 0 195.5 126.22">
  <defs>
    <style>
      .cls-1 {
        fill: #ed80d1;
      }
    </style>
  </defs>
  <polygon class="cls-1" points="188.15 94.49 188.15 73.58 165.56 73.58 165.56 73.57 142.97 73.57 142.97 73.56 165.54 73.56 165.54 52.65 142.97 52.65 142.97 52.64 142.97 31.72 120.36 31.72 120.36 10.8 97.76 10.8 75.17 10.8 75.17 31.72 75.17 52.64 75.16 52.64 75.16 31.72 52.57 31.72 52.57 52.64 52.56 52.64 52.56 73.57 52.56 73.57 52.56 55 29.97 55 29.97 73.57 29.96 73.57 29.96 94.5 29.95 94.5 29.95 74.54 7.36 74.54 7.36 94.5 7.36 94.5 7.36 115.42 29.96 115.42 52.56 115.42 52.56 94.5 75.17 94.5 75.17 73.57 97.76 73.57 120.36 73.57 120.36 94.5 142.97 94.5 142.97 115.42 165.56 115.42 188.15 115.42 188.15 94.5 165.56 94.5 165.56 94.49 188.15 94.49"/>
</svg>