<?xml version="1.0" encoding="UTF-8"?>
<svg id="tablet_about" data-name="tablet about" xmlns="http://www.w3.org/2000/svg" viewBox="0 0 654.91 318.54">
  <defs>
    <style>
      .cls-1 {
        fill: #ed80d1;
      }
    </style>
  </defs>
  <path class="cls-1" d="M607.92,152.99v-12.74h-12.74v-12.74h-12.74v-12.74h-12.74v-12.74h-12.74v-25.48h-12.74v-12.74h-12.74v-12.74h-25.48v-12.74h-76.94v12.74h-12.74v63.7h-12.74v12.74h-50.96v12.74h-37.72v-12.24h12.74v-12.74h12.74v-25.48h12.74v-25.48h12.74v-12.74h12.74v-13.24h-76.94v12.74h-12.74v12.74h-12.74v38.22h-12.24v-25.48h-12.74v-12.74h-12.74v-12.74h-12.74v-12.74h-127.9v12.74h-12.74v25.98h38.72v-12.74h50.46v12.74h25.48v37.72h-12.74v12.74h-12.74v12.74h-50.46v-12.74h-51.46v12.74h-12.74v38.72h166.12v-12.74h12.24v12.74h217.08v-25.48h88.68v12.74h76.94v-13.24h-12.74ZM492.76,76.55v13.24h12.74v24.98h-37.72v-50.46h24.98v12.24ZM263.44,127.51h-12.24v-12.24h12.24v12.24ZM238.46,140.75h12.24v12.24h-12.24v-12.24Z"/>
  <path class="cls-1" d="M556.96,229.44h-38.22v-12.75h-114.66v-12.74h-191.6v12.74h-114.66v12.75h-38.22v12.74h-12.74v13.24h12.74v12.74h38.22v12.74h114.66v12.74h191.6v-12.74h114.66v-12.74h38.22v-12.74h12.74v-13.24h-12.74v-12.74ZM238.46,254.91v-12.24h12.74v-12.74h101.42v12.74h12.74v12.24h-12.74v12.74h-101.42v-12.74h-12.74Z"/>
</svg>