<?xml version="1.0" encoding="UTF-8"?>
<svg id="pc_landing" data-name="pc landing" xmlns="http://www.w3.org/2000/svg" viewBox="0 0 935.87 1986.12">
  <defs>
    <style>
      .cls-1 {
        fill: #ed80d1;
      }

      .cls-2, .cls-3 {
        fill: #c8bdb3;
      }

      .cls-3 {
        stroke: #c8bdb3;
        stroke-miterlimit: 10;
      }
    </style>
  </defs>
  <g>
    <rect class="cls-1" x="891.88" y="470.33" width="8.76" height="8.77"/>
    <rect class="cls-1" x="874.34" y="470.33" width="8.77" height="8.77"/>
    <rect class="cls-1" x="883.11" y="461.56" width="8.77" height="8.77"/>
    <rect class="cls-1" x="883.11" y="479.1" width="8.77" height="8.77"/>
    <rect class="cls-1" x="856.8" y="470.33" width="8.77" height="8.77"/>
    <rect class="cls-1" x="865.57" y="461.56" width="8.77" height="8.77"/>
    <rect class="cls-1" x="865.57" y="479.1" width="8.77" height="8.77"/>
    <rect class="cls-1" x="865.57" y="514.18" width="8.77" height="8.77"/>
    <rect class="cls-1" x="865.57" y="522.95" width="8.77" height="8.77"/>
    <rect class="cls-1" x="874.34" y="435.25" width="8.77" height="8.77"/>
    <rect class="cls-1" x="874.34" y="452.79" width="8.77" height="8.77"/>
    <rect class="cls-1" x="874.34" y="487.87" width="8.77" height="8.77"/>
    <rect class="cls-1" x="874.34" y="505.41" width="8.77" height="8.77"/>
    <rect class="cls-1" x="874.34" y="531.72" width="8.77" height="8.77"/>
    <rect class="cls-1" x="883.11" y="444.02" width="8.77" height="8.77"/>
    <rect class="cls-1" x="883.11" y="496.64" width="8.77" height="8.77"/>
    <rect class="cls-1" x="883.11" y="540.49" width="8.77" height="8.77"/>
    <rect class="cls-1" x="891.88" y="435.25" width="8.76" height="8.77"/>
    <rect class="cls-1" x="891.88" y="452.79" width="8.76" height="8.77"/>
    <rect class="cls-1" x="891.88" y="487.87" width="8.76" height="8.77"/>
    <rect class="cls-1" x="891.88" y="505.41" width="8.76" height="8.77"/>
    <rect class="cls-1" x="891.88" y="531.72" width="8.76" height="8.77"/>
    <rect class="cls-1" x="900.64" y="461.56" width="8.77" height="8.77"/>
    <rect class="cls-1" x="900.64" y="479.1" width="8.77" height="8.77"/>
    <rect class="cls-1" x="900.64" y="514.18" width="8.77" height="8.77"/>
    <rect class="cls-1" x="900.64" y="522.95" width="8.77" height="8.77"/>
    <rect class="cls-1" x="909.41" y="470.33" width="8.77" height="8.77"/>
  </g>
  <g>
    <rect class="cls-1" x="798.74" y="692.42" width="8.76" height="8.77"/>
    <rect class="cls-1" x="781.2" y="692.42" width="8.77" height="8.77"/>
    <rect class="cls-1" x="789.97" y="701.19" width="8.77" height="8.77"/>
    <rect class="cls-1" x="789.97" y="683.65" width="8.77" height="8.77"/>
    <rect class="cls-1" x="763.66" y="692.42" width="8.77" height="8.77"/>
    <rect class="cls-1" x="772.43" y="701.19" width="8.77" height="8.77"/>
    <rect class="cls-1" x="772.43" y="683.65" width="8.77" height="8.77"/>
    <rect class="cls-1" x="772.43" y="648.57" width="8.77" height="8.77"/>
    <rect class="cls-1" x="772.43" y="639.8" width="8.77" height="8.77"/>
    <rect class="cls-1" x="781.2" y="727.5" width="8.77" height="8.77"/>
    <rect class="cls-1" x="781.2" y="709.96" width="8.77" height="8.77"/>
    <rect class="cls-1" x="781.2" y="674.88" width="8.77" height="8.77"/>
    <rect class="cls-1" x="781.2" y="657.34" width="8.77" height="8.77"/>
    <rect class="cls-1" x="781.2" y="631.03" width="8.77" height="8.77"/>
    <rect class="cls-1" x="789.97" y="718.73" width="8.77" height="8.77"/>
    <rect class="cls-1" x="789.97" y="666.11" width="8.77" height="8.77"/>
    <rect class="cls-1" x="789.97" y="622.26" width="8.77" height="8.77"/>
    <rect class="cls-1" x="798.74" y="727.5" width="8.76" height="8.77"/>
    <rect class="cls-1" x="798.74" y="709.96" width="8.76" height="8.77"/>
    <rect class="cls-1" x="798.74" y="674.88" width="8.76" height="8.77"/>
    <rect class="cls-1" x="798.74" y="657.34" width="8.76" height="8.77"/>
    <rect class="cls-1" x="798.74" y="631.03" width="8.76" height="8.77"/>
    <rect class="cls-1" x="807.5" y="701.19" width="8.77" height="8.77"/>
    <rect class="cls-1" x="807.5" y="683.65" width="8.77" height="8.77"/>
    <rect class="cls-1" x="807.5" y="648.57" width="8.77" height="8.77"/>
    <rect class="cls-1" x="807.5" y="639.8" width="8.77" height="8.77"/>
    <rect class="cls-1" x="816.27" y="692.42" width="8.77" height="8.77"/>
  </g>
  <g>
    <rect class="cls-1" x="707.62" y="470.33" width="8.76" height="8.77"/>
    <rect class="cls-1" x="690.08" y="470.33" width="8.77" height="8.77"/>
    <rect class="cls-1" x="698.85" y="461.56" width="8.77" height="8.77"/>
    <rect class="cls-1" x="698.85" y="479.1" width="8.77" height="8.77"/>
    <rect class="cls-1" x="672.54" y="470.33" width="8.77" height="8.77"/>
    <rect class="cls-1" x="681.31" y="461.56" width="8.77" height="8.77"/>
    <rect class="cls-1" x="681.31" y="479.1" width="8.77" height="8.77"/>
    <rect class="cls-1" x="681.31" y="514.18" width="8.77" height="8.77"/>
    <rect class="cls-1" x="681.31" y="522.95" width="8.77" height="8.77"/>
    <rect class="cls-1" x="690.08" y="435.25" width="8.77" height="8.77"/>
    <rect class="cls-1" x="690.08" y="452.79" width="8.77" height="8.77"/>
    <rect class="cls-1" x="690.08" y="487.87" width="8.77" height="8.77"/>
    <rect class="cls-1" x="690.08" y="505.41" width="8.77" height="8.77"/>
    <rect class="cls-1" x="690.08" y="531.72" width="8.77" height="8.77"/>
    <rect class="cls-1" x="698.85" y="444.02" width="8.77" height="8.77"/>
    <rect class="cls-1" x="698.85" y="496.64" width="8.77" height="8.77"/>
    <rect class="cls-1" x="698.85" y="540.49" width="8.77" height="8.77"/>
    <rect class="cls-1" x="707.62" y="435.25" width="8.76" height="8.77"/>
    <rect class="cls-1" x="707.62" y="452.79" width="8.76" height="8.77"/>
    <rect class="cls-1" x="707.62" y="487.87" width="8.76" height="8.77"/>
    <rect class="cls-1" x="707.62" y="505.41" width="8.76" height="8.77"/>
    <rect class="cls-1" x="707.62" y="531.72" width="8.76" height="8.77"/>
    <rect class="cls-1" x="716.38" y="461.56" width="8.77" height="8.77"/>
    <rect class="cls-1" x="716.38" y="479.1" width="8.77" height="8.77"/>
    <rect class="cls-1" x="716.38" y="514.18" width="8.77" height="8.77"/>
    <rect class="cls-1" x="716.38" y="522.95" width="8.77" height="8.77"/>
    <rect class="cls-1" x="725.15" y="470.33" width="8.77" height="8.77"/>
  </g>
  <g>
    <rect class="cls-1" x="614.49" y="692.42" width="8.76" height="8.77"/>
    <rect class="cls-1" x="596.95" y="692.42" width="8.77" height="8.77"/>
    <rect class="cls-1" x="605.72" y="701.19" width="8.77" height="8.77"/>
    <rect class="cls-1" x="605.72" y="683.65" width="8.77" height="8.77"/>
    <rect class="cls-1" x="579.41" y="692.42" width="8.77" height="8.77"/>
    <rect class="cls-1" x="588.18" y="701.19" width="8.77" height="8.77"/>
    <rect class="cls-1" x="588.18" y="683.65" width="8.77" height="8.77"/>
    <rect class="cls-1" x="588.18" y="648.57" width="8.77" height="8.77"/>
    <rect class="cls-1" x="588.18" y="639.8" width="8.77" height="8.77"/>
    <rect class="cls-1" x="596.95" y="727.5" width="8.77" height="8.77"/>
    <rect class="cls-1" x="596.95" y="709.96" width="8.77" height="8.77"/>
    <rect class="cls-1" x="596.95" y="674.88" width="8.77" height="8.77"/>
    <rect class="cls-1" x="596.95" y="657.34" width="8.77" height="8.77"/>
    <rect class="cls-1" x="596.95" y="631.03" width="8.77" height="8.77"/>
    <rect class="cls-1" x="605.72" y="718.73" width="8.77" height="8.77"/>
    <rect class="cls-1" x="605.72" y="666.11" width="8.77" height="8.77"/>
    <rect class="cls-1" x="605.72" y="622.26" width="8.77" height="8.77"/>
    <rect class="cls-1" x="614.49" y="727.5" width="8.76" height="8.77"/>
    <rect class="cls-1" x="614.49" y="709.96" width="8.76" height="8.77"/>
    <rect class="cls-1" x="614.49" y="674.88" width="8.76" height="8.77"/>
    <rect class="cls-1" x="614.49" y="657.34" width="8.76" height="8.77"/>
    <rect class="cls-1" x="614.49" y="631.03" width="8.76" height="8.77"/>
    <rect class="cls-1" x="623.25" y="701.19" width="8.77" height="8.77"/>
    <rect class="cls-1" x="623.25" y="683.65" width="8.77" height="8.77"/>
    <rect class="cls-1" x="623.25" y="648.57" width="8.77" height="8.77"/>
    <rect class="cls-1" x="623.25" y="639.8" width="8.77" height="8.77"/>
    <rect class="cls-1" x="632.02" y="692.42" width="8.77" height="8.77"/>
  </g>
  <g>
    <rect class="cls-1" x="521.94" y="470.33" width="8.76" height="8.77"/>
    <rect class="cls-1" x="504.4" y="470.33" width="8.77" height="8.77"/>
    <rect class="cls-1" x="513.17" y="461.56" width="8.77" height="8.77"/>
    <rect class="cls-1" x="513.17" y="479.1" width="8.77" height="8.77"/>
    <rect class="cls-1" x="486.86" y="470.33" width="8.77" height="8.77"/>
    <rect class="cls-1" x="495.63" y="461.56" width="8.77" height="8.77"/>
    <rect class="cls-1" x="495.63" y="479.1" width="8.77" height="8.77"/>
    <rect class="cls-1" x="495.63" y="514.18" width="8.77" height="8.77"/>
    <rect class="cls-1" x="495.63" y="522.95" width="8.77" height="8.77"/>
    <rect class="cls-1" x="504.4" y="435.25" width="8.77" height="8.77"/>
    <rect class="cls-1" x="504.4" y="452.79" width="8.77" height="8.77"/>
    <rect class="cls-1" x="504.4" y="487.87" width="8.77" height="8.77"/>
    <rect class="cls-1" x="504.4" y="505.41" width="8.77" height="8.77"/>
    <rect class="cls-1" x="504.4" y="531.72" width="8.77" height="8.77"/>
    <rect class="cls-1" x="513.17" y="444.02" width="8.77" height="8.77"/>
    <rect class="cls-1" x="513.17" y="496.64" width="8.77" height="8.77"/>
    <rect class="cls-1" x="513.17" y="540.49" width="8.77" height="8.77"/>
    <rect class="cls-1" x="521.94" y="435.25" width="8.76" height="8.77"/>
    <rect class="cls-1" x="521.94" y="452.79" width="8.76" height="8.77"/>
    <rect class="cls-1" x="521.94" y="487.87" width="8.76" height="8.77"/>
    <rect class="cls-1" x="521.94" y="505.41" width="8.76" height="8.77"/>
    <rect class="cls-1" x="521.94" y="531.72" width="8.76" height="8.77"/>
    <rect class="cls-1" x="530.7" y="461.56" width="8.77" height="8.77"/>
    <rect class="cls-1" x="530.7" y="479.1" width="8.77" height="8.77"/>
    <rect class="cls-1" x="530.7" y="514.18" width="8.77" height="8.77"/>
    <rect class="cls-1" x="530.7" y="522.95" width="8.77" height="8.77"/>
    <rect class="cls-1" x="539.47" y="470.33" width="8.77" height="8.77"/>
  </g>
  <g>
    <rect class="cls-2" x="428.81" y="692.42" width="8.76" height="8.77"/>
    <rect class="cls-2" x="411.27" y="692.42" width="8.77" height="8.77"/>
    <rect class="cls-2" x="420.04" y="701.19" width="8.77" height="8.77"/>
    <rect class="cls-2" x="420.04" y="683.65" width="8.77" height="8.77"/>
    <rect class="cls-2" x="393.73" y="692.42" width="8.77" height="8.77"/>
    <rect class="cls-2" x="402.5" y="701.19" width="8.77" height="8.77"/>
    <rect class="cls-2" x="402.5" y="683.65" width="8.77" height="8.77"/>
    <rect class="cls-2" x="402.5" y="648.57" width="8.77" height="8.77"/>
    <rect class="cls-2" x="402.5" y="639.8" width="8.77" height="8.77"/>
    <rect class="cls-2" x="411.27" y="727.5" width="8.77" height="8.77"/>
    <rect class="cls-2" x="411.27" y="709.96" width="8.77" height="8.77"/>
    <rect class="cls-2" x="411.27" y="674.88" width="8.77" height="8.77"/>
    <rect class="cls-2" x="411.27" y="657.34" width="8.77" height="8.77"/>
    <rect class="cls-2" x="411.27" y="631.03" width="8.77" height="8.77"/>
    <rect class="cls-2" x="420.04" y="718.73" width="8.77" height="8.77"/>
    <rect class="cls-2" x="420.04" y="666.11" width="8.77" height="8.77"/>
    <rect class="cls-2" x="420.04" y="622.26" width="8.77" height="8.77"/>
    <rect class="cls-2" x="428.81" y="727.5" width="8.76" height="8.77"/>
    <rect class="cls-2" x="428.81" y="709.96" width="8.76" height="8.77"/>
    <rect class="cls-2" x="428.81" y="674.88" width="8.76" height="8.77"/>
    <rect class="cls-2" x="428.81" y="657.34" width="8.76" height="8.77"/>
    <rect class="cls-2" x="428.81" y="631.03" width="8.76" height="8.77"/>
    <rect class="cls-2" x="437.57" y="701.19" width="8.77" height="8.77"/>
    <rect class="cls-2" x="437.57" y="683.65" width="8.77" height="8.77"/>
    <rect class="cls-2" x="437.57" y="648.57" width="8.77" height="8.77"/>
    <rect class="cls-2" x="437.57" y="639.8" width="8.77" height="8.77"/>
    <rect class="cls-2" x="446.34" y="692.42" width="8.77" height="8.77"/>
  </g>
  <g>
    <rect class="cls-2" x="337.64" y="470.33" width="8.76" height="8.77"/>
    <rect class="cls-2" x="320.1" y="470.33" width="8.77" height="8.77"/>
    <rect class="cls-2" x="328.87" y="461.56" width="8.77" height="8.77"/>
    <rect class="cls-2" x="328.87" y="479.1" width="8.77" height="8.77"/>
    <rect class="cls-2" x="302.56" y="470.33" width="8.77" height="8.77"/>
    <rect class="cls-2" x="311.33" y="461.56" width="8.77" height="8.77"/>
    <rect class="cls-2" x="311.33" y="479.1" width="8.77" height="8.77"/>
    <rect class="cls-2" x="311.33" y="514.18" width="8.77" height="8.77"/>
    <rect class="cls-2" x="311.33" y="522.95" width="8.77" height="8.77"/>
    <rect class="cls-2" x="320.1" y="435.25" width="8.77" height="8.77"/>
    <rect class="cls-2" x="320.1" y="452.79" width="8.77" height="8.77"/>
    <rect class="cls-2" x="320.1" y="487.87" width="8.77" height="8.77"/>
    <rect class="cls-2" x="320.1" y="505.41" width="8.77" height="8.77"/>
    <rect class="cls-2" x="320.1" y="531.72" width="8.77" height="8.77"/>
    <rect class="cls-2" x="328.87" y="444.02" width="8.77" height="8.77"/>
    <rect class="cls-2" x="328.87" y="496.64" width="8.77" height="8.77"/>
    <rect class="cls-2" x="328.87" y="540.49" width="8.77" height="8.77"/>
    <rect class="cls-2" x="337.64" y="435.25" width="8.76" height="8.77"/>
    <rect class="cls-2" x="337.64" y="452.79" width="8.76" height="8.77"/>
    <rect class="cls-2" x="337.64" y="487.87" width="8.76" height="8.77"/>
    <rect class="cls-2" x="337.64" y="505.41" width="8.76" height="8.77"/>
    <rect class="cls-2" x="337.64" y="531.72" width="8.76" height="8.77"/>
    <rect class="cls-2" x="346.4" y="461.56" width="8.77" height="8.77"/>
    <rect class="cls-2" x="346.4" y="479.1" width="8.77" height="8.77"/>
    <rect class="cls-2" x="346.4" y="514.18" width="8.77" height="8.77"/>
    <rect class="cls-2" x="346.4" y="522.95" width="8.77" height="8.77"/>
    <rect class="cls-2" x="355.17" y="470.33" width="8.77" height="8.77"/>
  </g>
  <g>
    <rect class="cls-1" x="244.5" y="692.42" width="8.76" height="8.77"/>
    <rect class="cls-1" x="226.96" y="692.42" width="8.77" height="8.77"/>
    <rect class="cls-1" x="235.73" y="701.19" width="8.77" height="8.77"/>
    <rect class="cls-1" x="235.73" y="683.65" width="8.77" height="8.77"/>
    <rect class="cls-1" x="209.42" y="692.42" width="8.77" height="8.77"/>
    <rect class="cls-1" x="218.19" y="701.19" width="8.77" height="8.77"/>
    <rect class="cls-1" x="218.19" y="683.65" width="8.77" height="8.77"/>
    <rect class="cls-1" x="218.19" y="648.57" width="8.77" height="8.77"/>
    <rect class="cls-1" x="218.19" y="639.8" width="8.77" height="8.77"/>
    <rect class="cls-1" x="226.96" y="727.5" width="8.77" height="8.77"/>
    <rect class="cls-1" x="226.96" y="709.96" width="8.77" height="8.77"/>
    <rect class="cls-1" x="226.96" y="674.88" width="8.77" height="8.77"/>
    <rect class="cls-1" x="226.96" y="657.34" width="8.77" height="8.77"/>
    <rect class="cls-1" x="226.96" y="631.03" width="8.77" height="8.77"/>
    <rect class="cls-1" x="235.73" y="718.73" width="8.77" height="8.77"/>
    <rect class="cls-1" x="235.73" y="666.11" width="8.77" height="8.77"/>
    <rect class="cls-1" x="235.73" y="622.26" width="8.77" height="8.77"/>
    <rect class="cls-1" x="244.5" y="727.5" width="8.76" height="8.77"/>
    <rect class="cls-1" x="244.5" y="709.96" width="8.76" height="8.77"/>
    <rect class="cls-1" x="244.5" y="674.88" width="8.76" height="8.77"/>
    <rect class="cls-1" x="244.5" y="657.34" width="8.76" height="8.77"/>
    <rect class="cls-1" x="244.5" y="631.03" width="8.76" height="8.77"/>
    <rect class="cls-1" x="253.26" y="701.19" width="8.77" height="8.77"/>
    <rect class="cls-1" x="253.26" y="683.65" width="8.77" height="8.77"/>
    <rect class="cls-1" x="253.26" y="648.57" width="8.77" height="8.77"/>
    <rect class="cls-1" x="253.26" y="639.8" width="8.77" height="8.77"/>
    <rect class="cls-1" x="262.03" y="692.42" width="8.77" height="8.77"/>
  </g>
  <g>
    <rect class="cls-1" x="153.35" y="470.33" width="8.76" height="8.77"/>
    <rect class="cls-1" x="135.81" y="470.33" width="8.77" height="8.77"/>
    <rect class="cls-1" x="144.58" y="461.56" width="8.77" height="8.77"/>
    <rect class="cls-1" x="144.58" y="479.1" width="8.77" height="8.77"/>
    <rect class="cls-1" x="118.27" y="470.33" width="8.77" height="8.77"/>
    <rect class="cls-1" x="127.04" y="461.56" width="8.77" height="8.77"/>
    <rect class="cls-1" x="127.04" y="479.1" width="8.77" height="8.77"/>
    <rect class="cls-1" x="127.04" y="514.18" width="8.77" height="8.77"/>
    <rect class="cls-1" x="127.04" y="522.95" width="8.77" height="8.77"/>
    <rect class="cls-1" x="135.81" y="435.25" width="8.77" height="8.77"/>
    <rect class="cls-1" x="135.81" y="452.79" width="8.77" height="8.77"/>
    <rect class="cls-1" x="135.81" y="487.87" width="8.77" height="8.77"/>
    <rect class="cls-1" x="135.81" y="505.41" width="8.77" height="8.77"/>
    <rect class="cls-1" x="135.81" y="531.72" width="8.77" height="8.77"/>
    <rect class="cls-1" x="144.58" y="444.02" width="8.77" height="8.77"/>
    <rect class="cls-1" x="144.58" y="496.64" width="8.77" height="8.77"/>
    <rect class="cls-1" x="144.58" y="540.49" width="8.77" height="8.77"/>
    <rect class="cls-1" x="153.35" y="435.25" width="8.76" height="8.77"/>
    <rect class="cls-1" x="153.35" y="452.79" width="8.76" height="8.77"/>
    <rect class="cls-1" x="153.35" y="487.87" width="8.76" height="8.77"/>
    <rect class="cls-1" x="153.35" y="505.41" width="8.76" height="8.77"/>
    <rect class="cls-1" x="153.35" y="531.72" width="8.76" height="8.77"/>
    <rect class="cls-1" x="162.11" y="461.56" width="8.77" height="8.77"/>
    <rect class="cls-1" x="162.11" y="479.1" width="8.77" height="8.77"/>
    <rect class="cls-1" x="162.11" y="514.18" width="8.77" height="8.77"/>
    <rect class="cls-1" x="162.11" y="522.95" width="8.77" height="8.77"/>
    <rect class="cls-1" x="170.88" y="470.33" width="8.77" height="8.77"/>
  </g>
  <g>
    <rect class="cls-1" x="60.21" y="692.42" width="8.76" height="8.77"/>
    <rect class="cls-1" x="42.67" y="692.42" width="8.77" height="8.77"/>
    <rect class="cls-1" x="51.44" y="701.19" width="8.77" height="8.77"/>
    <rect class="cls-1" x="51.44" y="683.65" width="8.77" height="8.77"/>
    <rect class="cls-1" x="25.13" y="692.42" width="8.77" height="8.77"/>
    <rect class="cls-1" x="33.9" y="701.19" width="8.77" height="8.77"/>
    <rect class="cls-1" x="33.9" y="683.65" width="8.77" height="8.77"/>
    <rect class="cls-1" x="33.9" y="648.57" width="8.77" height="8.77"/>
    <rect class="cls-1" x="33.9" y="639.8" width="8.77" height="8.77"/>
    <rect class="cls-1" x="42.67" y="727.5" width="8.77" height="8.77"/>
    <rect class="cls-1" x="42.67" y="709.96" width="8.77" height="8.77"/>
    <rect class="cls-1" x="42.67" y="674.88" width="8.77" height="8.77"/>
    <rect class="cls-1" x="42.67" y="657.34" width="8.77" height="8.77"/>
    <rect class="cls-1" x="42.67" y="631.03" width="8.77" height="8.77"/>
    <rect class="cls-1" x="51.44" y="718.73" width="8.77" height="8.77"/>
    <rect class="cls-1" x="51.44" y="666.11" width="8.77" height="8.77"/>
    <rect class="cls-1" x="51.44" y="622.26" width="8.77" height="8.77"/>
    <rect class="cls-1" x="60.21" y="727.5" width="8.76" height="8.77"/>
    <rect class="cls-1" x="60.21" y="709.96" width="8.76" height="8.77"/>
    <rect class="cls-1" x="60.21" y="674.88" width="8.76" height="8.77"/>
    <rect class="cls-1" x="60.21" y="657.34" width="8.76" height="8.77"/>
    <rect class="cls-1" x="60.21" y="631.03" width="8.76" height="8.77"/>
    <rect class="cls-1" x="68.97" y="701.19" width="8.77" height="8.77"/>
    <rect class="cls-1" x="68.97" y="683.65" width="8.77" height="8.77"/>
    <rect class="cls-1" x="68.97" y="648.57" width="8.77" height="8.77"/>
    <rect class="cls-1" x="68.97" y="639.8" width="8.77" height="8.77"/>
    <rect class="cls-1" x="77.74" y="692.42" width="8.77" height="8.77"/>
  </g>
  <g>
    <g>
      <rect class="cls-1" x="573.46" y="869.12" width="8.77" height="8.77"/>
      <rect class="cls-1" x="573.46" y="860.35" width="8.77" height="8.77"/>
      <rect class="cls-1" x="582.23" y="965.59" width="8.77" height="8.77"/>
      <rect class="cls-1" x="582.23" y="886.66" width="8.77" height="8.77"/>
      <rect class="cls-1" x="582.23" y="877.89" width="8.77" height="8.77"/>
      <rect class="cls-1" x="582.23" y="851.58" width="8.77" height="8.77"/>
      <rect class="cls-1" x="582.23" y="842.81" width="8.77" height="8.77"/>
      <rect class="cls-1" x="591" y="974.36" width="8.77" height="8.77"/>
      <rect class="cls-1" x="591" y="956.82" width="8.77" height="8.77"/>
      <rect class="cls-1" x="591" y="930.51" width="8.77" height="8.77"/>
      <rect class="cls-1" x="591" y="912.97" width="8.77" height="8.77"/>
      <rect class="cls-1" x="591" y="895.43" width="8.77" height="8.77"/>
      <rect class="cls-1" x="591" y="869.12" width="8.77" height="8.77"/>
      <rect class="cls-1" x="591" y="860.35" width="8.77" height="8.77"/>
      <rect class="cls-1" x="591" y="834.04" width="8.77" height="8.77"/>
      <rect class="cls-1" x="599.77" y="991.9" width="8.77" height="8.76"/>
      <rect class="cls-1" x="599.77" y="983.13" width="8.77" height="8.77"/>
      <rect class="cls-1" x="599.77" y="948.05" width="8.77" height="8.77"/>
      <rect class="cls-1" x="599.77" y="921.74" width="8.77" height="8.77"/>
      <rect class="cls-1" x="599.77" y="904.2" width="8.77" height="8.77"/>
      <rect class="cls-1" x="599.77" y="877.89" width="8.77" height="8.77"/>
      <rect class="cls-1" x="599.77" y="851.58" width="8.77" height="8.77"/>
      <rect class="cls-1" x="599.77" y="825.27" width="8.77" height="8.77"/>
      <rect class="cls-1" x="608.54" y="991.9" width="8.76" height="8.76"/>
      <rect class="cls-1" x="608.54" y="983.13" width="8.76" height="8.77"/>
      <rect class="cls-1" x="608.54" y="939.28" width="8.76" height="8.77"/>
      <rect class="cls-1" x="608.54" y="921.74" width="8.76" height="8.77"/>
      <rect class="cls-1" x="608.54" y="904.2" width="8.76" height="8.77"/>
      <rect class="cls-1" x="608.54" y="877.89" width="8.76" height="8.77"/>
      <rect class="cls-1" x="608.54" y="851.58" width="8.76" height="8.77"/>
      <rect class="cls-1" x="608.54" y="825.27" width="8.76" height="8.77"/>
      <rect class="cls-1" x="617.3" y="974.36" width="8.77" height="8.77"/>
      <rect class="cls-1" x="617.3" y="956.82" width="8.77" height="8.77"/>
      <rect class="cls-1" x="617.3" y="930.51" width="8.77" height="8.77"/>
      <rect class="cls-1" x="617.3" y="912.97" width="8.77" height="8.77"/>
      <rect class="cls-1" x="617.3" y="895.43" width="8.77" height="8.77"/>
      <rect class="cls-1" x="617.3" y="869.12" width="8.77" height="8.77"/>
      <rect class="cls-1" x="617.3" y="860.35" width="8.77" height="8.77"/>
      <rect class="cls-1" x="617.3" y="834.04" width="8.77" height="8.77"/>
      <rect class="cls-1" x="626.07" y="965.59" width="8.77" height="8.77"/>
      <rect class="cls-1" x="626.07" y="886.66" width="8.77" height="8.77"/>
      <rect class="cls-1" x="626.07" y="877.89" width="8.77" height="8.77"/>
      <rect class="cls-1" x="626.07" y="851.58" width="8.77" height="8.77"/>
      <rect class="cls-1" x="626.07" y="842.81" width="8.77" height="8.77"/>
      <rect class="cls-1" x="634.84" y="869.12" width="8.77" height="8.77"/>
      <rect class="cls-1" x="634.84" y="860.35" width="8.77" height="8.77"/>
    </g>
    <g>
      <rect class="cls-1" x="573.46" y="1106.03" width="8.77" height="8.77"/>
      <rect class="cls-1" x="573.46" y="1114.8" width="8.77" height="8.77"/>
      <rect class="cls-1" x="582.23" y="1009.56" width="8.77" height="8.77"/>
      <rect class="cls-1" x="582.23" y="1088.49" width="8.77" height="8.77"/>
      <rect class="cls-1" x="582.23" y="1097.26" width="8.77" height="8.77"/>
      <rect class="cls-1" x="582.23" y="1123.57" width="8.77" height="8.77"/>
      <rect class="cls-1" x="582.23" y="1132.34" width="8.77" height="8.77"/>
      <rect class="cls-1" x="591" y="1000.79" width="8.77" height="8.77"/>
      <rect class="cls-1" x="591" y="1018.33" width="8.77" height="8.77"/>
      <rect class="cls-1" x="591" y="1044.64" width="8.77" height="8.77"/>
      <rect class="cls-1" x="591" y="1062.18" width="8.77" height="8.77"/>
      <rect class="cls-1" x="591" y="1079.72" width="8.77" height="8.77"/>
      <rect class="cls-1" x="591" y="1106.03" width="8.77" height="8.77"/>
      <rect class="cls-1" x="591" y="1114.8" width="8.77" height="8.77"/>
      <rect class="cls-1" x="591" y="1141.11" width="8.77" height="8.77"/>
      <rect class="cls-1" x="599.77" y="983.26" width="8.77" height="8.76"/>
      <rect class="cls-1" x="599.77" y="992.02" width="8.77" height="8.77"/>
      <rect class="cls-1" x="599.77" y="1027.1" width="8.77" height="8.77"/>
      <rect class="cls-1" x="599.77" y="1053.41" width="8.77" height="8.77"/>
      <rect class="cls-1" x="599.77" y="1070.95" width="8.77" height="8.77"/>
      <rect class="cls-1" x="599.77" y="1097.26" width="8.77" height="8.77"/>
      <rect class="cls-1" x="599.77" y="1123.57" width="8.77" height="8.77"/>
      <rect class="cls-1" x="599.77" y="1149.88" width="8.77" height="8.77"/>
      <rect class="cls-1" x="608.54" y="983.26" width="8.76" height="8.76"/>
      <rect class="cls-1" x="608.54" y="992.02" width="8.76" height="8.77"/>
      <rect class="cls-1" x="608.54" y="1035.87" width="8.76" height="8.77"/>
      <rect class="cls-1" x="608.54" y="1053.41" width="8.76" height="8.77"/>
      <rect class="cls-1" x="608.54" y="1070.95" width="8.76" height="8.77"/>
      <rect class="cls-1" x="608.54" y="1097.26" width="8.76" height="8.77"/>
      <rect class="cls-1" x="608.54" y="1123.57" width="8.76" height="8.77"/>
      <rect class="cls-1" x="608.54" y="1149.88" width="8.76" height="8.77"/>
      <rect class="cls-1" x="617.3" y="1000.79" width="8.77" height="8.77"/>
      <rect class="cls-1" x="617.3" y="1018.33" width="8.77" height="8.77"/>
      <rect class="cls-1" x="617.3" y="1044.64" width="8.77" height="8.77"/>
      <rect class="cls-1" x="617.3" y="1062.18" width="8.77" height="8.77"/>
      <rect class="cls-1" x="617.3" y="1079.72" width="8.77" height="8.77"/>
      <rect class="cls-1" x="617.3" y="1106.03" width="8.77" height="8.77"/>
      <rect class="cls-1" x="617.3" y="1114.8" width="8.77" height="8.77"/>
      <rect class="cls-1" x="617.3" y="1141.11" width="8.77" height="8.77"/>
      <rect class="cls-1" x="626.07" y="1009.56" width="8.77" height="8.77"/>
      <rect class="cls-1" x="626.07" y="1088.49" width="8.77" height="8.77"/>
      <rect class="cls-1" x="626.07" y="1097.26" width="8.77" height="8.77"/>
      <rect class="cls-1" x="626.07" y="1123.57" width="8.77" height="8.77"/>
      <rect class="cls-1" x="626.07" y="1132.34" width="8.77" height="8.77"/>
      <rect class="cls-1" x="634.84" y="1106.03" width="8.77" height="8.77"/>
      <rect class="cls-1" x="634.84" y="1114.8" width="8.77" height="8.77"/>
    </g>
  </g>
  <g>
    <g>
      <rect class="cls-1" x="113.09" y="869.12" width="8.77" height="8.77"/>
      <rect class="cls-1" x="113.09" y="860.35" width="8.77" height="8.77"/>
      <rect class="cls-1" x="121.86" y="965.59" width="8.77" height="8.77"/>
      <rect class="cls-1" x="121.86" y="886.66" width="8.77" height="8.77"/>
      <rect class="cls-1" x="121.86" y="877.89" width="8.77" height="8.77"/>
      <rect class="cls-1" x="121.86" y="851.58" width="8.77" height="8.77"/>
      <rect class="cls-1" x="121.86" y="842.81" width="8.77" height="8.77"/>
      <rect class="cls-1" x="130.63" y="974.36" width="8.77" height="8.77"/>
      <rect class="cls-1" x="130.63" y="956.82" width="8.77" height="8.77"/>
      <rect class="cls-1" x="130.63" y="930.51" width="8.77" height="8.77"/>
      <rect class="cls-1" x="130.63" y="912.97" width="8.77" height="8.77"/>
      <rect class="cls-1" x="130.63" y="895.43" width="8.77" height="8.77"/>
      <rect class="cls-1" x="130.63" y="869.12" width="8.77" height="8.77"/>
      <rect class="cls-1" x="130.63" y="860.35" width="8.77" height="8.77"/>
      <rect class="cls-1" x="130.63" y="834.04" width="8.77" height="8.77"/>
      <rect class="cls-1" x="139.4" y="991.9" width="8.77" height="8.76"/>
      <rect class="cls-1" x="139.4" y="983.13" width="8.77" height="8.77"/>
      <rect class="cls-1" x="139.4" y="948.05" width="8.77" height="8.77"/>
      <rect class="cls-1" x="139.4" y="921.74" width="8.77" height="8.77"/>
      <rect class="cls-1" x="139.4" y="904.2" width="8.77" height="8.77"/>
      <rect class="cls-1" x="139.4" y="877.89" width="8.77" height="8.77"/>
      <rect class="cls-1" x="139.4" y="851.58" width="8.77" height="8.77"/>
      <rect class="cls-1" x="139.4" y="825.27" width="8.77" height="8.77"/>
      <rect class="cls-1" x="148.17" y="991.9" width="8.76" height="8.76"/>
      <rect class="cls-1" x="148.17" y="983.13" width="8.76" height="8.77"/>
      <rect class="cls-1" x="148.17" y="939.28" width="8.76" height="8.77"/>
      <rect class="cls-1" x="148.17" y="921.74" width="8.76" height="8.77"/>
      <rect class="cls-1" x="148.17" y="904.2" width="8.76" height="8.77"/>
      <rect class="cls-1" x="148.17" y="877.89" width="8.76" height="8.77"/>
      <rect class="cls-1" x="148.17" y="851.58" width="8.76" height="8.77"/>
      <rect class="cls-1" x="148.17" y="825.27" width="8.76" height="8.77"/>
      <rect class="cls-1" x="156.93" y="974.36" width="8.77" height="8.77"/>
      <rect class="cls-1" x="156.93" y="956.82" width="8.77" height="8.77"/>
      <rect class="cls-1" x="156.93" y="930.51" width="8.77" height="8.77"/>
      <rect class="cls-1" x="156.93" y="912.97" width="8.77" height="8.77"/>
      <rect class="cls-1" x="156.93" y="895.43" width="8.77" height="8.77"/>
      <rect class="cls-1" x="156.93" y="869.12" width="8.77" height="8.77"/>
      <rect class="cls-1" x="156.93" y="860.35" width="8.77" height="8.77"/>
      <rect class="cls-1" x="156.93" y="834.04" width="8.77" height="8.77"/>
      <rect class="cls-1" x="165.7" y="965.59" width="8.77" height="8.77"/>
      <rect class="cls-1" x="165.7" y="886.66" width="8.77" height="8.77"/>
      <rect class="cls-1" x="165.7" y="877.89" width="8.77" height="8.77"/>
      <rect class="cls-1" x="165.7" y="851.58" width="8.77" height="8.77"/>
      <rect class="cls-1" x="165.7" y="842.81" width="8.77" height="8.77"/>
      <rect class="cls-1" x="174.47" y="869.12" width="8.77" height="8.77"/>
      <rect class="cls-1" x="174.47" y="860.35" width="8.77" height="8.77"/>
    </g>
    <g>
      <rect class="cls-1" x="113.09" y="1106.03" width="8.77" height="8.77"/>
      <rect class="cls-1" x="113.09" y="1114.8" width="8.77" height="8.77"/>
      <rect class="cls-1" x="121.86" y="1009.56" width="8.77" height="8.77"/>
      <rect class="cls-1" x="121.86" y="1088.49" width="8.77" height="8.77"/>
      <rect class="cls-1" x="121.86" y="1097.26" width="8.77" height="8.77"/>
      <rect class="cls-1" x="121.86" y="1123.57" width="8.77" height="8.77"/>
      <rect class="cls-1" x="121.86" y="1132.34" width="8.77" height="8.77"/>
      <rect class="cls-1" x="130.63" y="1000.79" width="8.77" height="8.77"/>
      <rect class="cls-1" x="130.63" y="1018.33" width="8.77" height="8.77"/>
      <rect class="cls-1" x="130.63" y="1044.64" width="8.77" height="8.77"/>
      <rect class="cls-1" x="130.63" y="1062.18" width="8.77" height="8.77"/>
      <rect class="cls-1" x="130.63" y="1079.72" width="8.77" height="8.77"/>
      <rect class="cls-1" x="130.63" y="1106.03" width="8.77" height="8.77"/>
      <rect class="cls-1" x="130.63" y="1114.8" width="8.77" height="8.77"/>
      <rect class="cls-1" x="130.63" y="1141.11" width="8.77" height="8.77"/>
      <rect class="cls-1" x="139.4" y="983.26" width="8.77" height="8.76"/>
      <rect class="cls-1" x="139.4" y="992.02" width="8.77" height="8.77"/>
      <rect class="cls-1" x="139.4" y="1027.1" width="8.77" height="8.77"/>
      <rect class="cls-1" x="139.4" y="1053.41" width="8.77" height="8.77"/>
      <rect class="cls-1" x="139.4" y="1070.95" width="8.77" height="8.77"/>
      <rect class="cls-1" x="139.4" y="1097.26" width="8.77" height="8.77"/>
      <rect class="cls-1" x="139.4" y="1123.57" width="8.77" height="8.77"/>
      <rect class="cls-1" x="139.4" y="1149.88" width="8.77" height="8.77"/>
      <rect class="cls-1" x="148.17" y="983.26" width="8.76" height="8.76"/>
      <rect class="cls-1" x="148.17" y="992.02" width="8.76" height="8.77"/>
      <rect class="cls-1" x="148.17" y="1035.87" width="8.76" height="8.77"/>
      <rect class="cls-1" x="148.17" y="1053.41" width="8.76" height="8.77"/>
      <rect class="cls-1" x="148.17" y="1070.95" width="8.76" height="8.77"/>
      <rect class="cls-1" x="148.17" y="1097.26" width="8.76" height="8.77"/>
      <rect class="cls-1" x="148.17" y="1123.57" width="8.76" height="8.77"/>
      <rect class="cls-1" x="148.17" y="1149.88" width="8.76" height="8.77"/>
      <rect class="cls-1" x="156.93" y="1000.79" width="8.77" height="8.77"/>
      <rect class="cls-1" x="156.93" y="1018.33" width="8.77" height="8.77"/>
      <rect class="cls-1" x="156.93" y="1044.64" width="8.77" height="8.77"/>
      <rect class="cls-1" x="156.93" y="1062.18" width="8.77" height="8.77"/>
      <rect class="cls-1" x="156.93" y="1079.72" width="8.77" height="8.77"/>
      <rect class="cls-1" x="156.93" y="1106.03" width="8.77" height="8.77"/>
      <rect class="cls-1" x="156.93" y="1114.8" width="8.77" height="8.77"/>
      <rect class="cls-1" x="156.93" y="1141.11" width="8.77" height="8.77"/>
      <rect class="cls-1" x="165.7" y="1009.56" width="8.77" height="8.77"/>
      <rect class="cls-1" x="165.7" y="1088.49" width="8.77" height="8.77"/>
      <rect class="cls-1" x="165.7" y="1097.26" width="8.77" height="8.77"/>
      <rect class="cls-1" x="165.7" y="1123.57" width="8.77" height="8.77"/>
      <rect class="cls-1" x="165.7" y="1132.34" width="8.77" height="8.77"/>
      <rect class="cls-1" x="174.47" y="1106.03" width="8.77" height="8.77"/>
      <rect class="cls-1" x="174.47" y="1114.8" width="8.77" height="8.77"/>
    </g>
  </g>
  <g>
    <rect class="cls-1" x="799.13" y="1498.04" width="8.76" height="8.77"/>
    <rect class="cls-1" x="781.59" y="1498.04" width="8.77" height="8.77"/>
    <rect class="cls-1" x="790.36" y="1506.81" width="8.77" height="8.77"/>
    <rect class="cls-1" x="790.36" y="1489.27" width="8.77" height="8.77"/>
    <rect class="cls-1" x="764.05" y="1498.04" width="8.77" height="8.77"/>
    <rect class="cls-1" x="772.82" y="1506.81" width="8.77" height="8.77"/>
    <rect class="cls-1" x="772.82" y="1489.27" width="8.77" height="8.77"/>
    <rect class="cls-1" x="772.82" y="1454.19" width="8.77" height="8.77"/>
    <rect class="cls-1" x="772.82" y="1445.42" width="8.77" height="8.77"/>
    <rect class="cls-1" x="781.59" y="1533.12" width="8.77" height="8.77"/>
    <rect class="cls-1" x="781.59" y="1515.58" width="8.77" height="8.77"/>
    <rect class="cls-1" x="781.59" y="1480.5" width="8.77" height="8.77"/>
    <rect class="cls-1" x="781.59" y="1462.96" width="8.77" height="8.77"/>
    <rect class="cls-1" x="781.59" y="1436.65" width="8.77" height="8.77"/>
    <rect class="cls-1" x="790.36" y="1524.35" width="8.77" height="8.77"/>
    <rect class="cls-1" x="790.36" y="1471.73" width="8.77" height="8.77"/>
    <rect class="cls-1" x="790.36" y="1427.88" width="8.77" height="8.77"/>
    <rect class="cls-1" x="799.13" y="1533.12" width="8.76" height="8.77"/>
    <rect class="cls-1" x="799.13" y="1515.58" width="8.76" height="8.77"/>
    <rect class="cls-1" x="799.13" y="1480.5" width="8.76" height="8.77"/>
    <rect class="cls-1" x="799.13" y="1462.96" width="8.76" height="8.77"/>
    <rect class="cls-1" x="799.13" y="1436.65" width="8.76" height="8.77"/>
    <rect class="cls-1" x="807.89" y="1506.81" width="8.77" height="8.77"/>
    <rect class="cls-1" x="807.89" y="1489.27" width="8.77" height="8.77"/>
    <rect class="cls-1" x="807.89" y="1454.19" width="8.77" height="8.77"/>
    <rect class="cls-1" x="807.89" y="1445.42" width="8.77" height="8.77"/>
    <rect class="cls-1" x="816.66" y="1498.04" width="8.77" height="8.77"/>
  </g>
  <g>
    <rect class="cls-1" x="892.27" y="1275.95" width="8.76" height="8.77"/>
    <rect class="cls-1" x="874.73" y="1275.95" width="8.77" height="8.77"/>
    <rect class="cls-1" x="883.5" y="1267.18" width="8.77" height="8.77"/>
    <rect class="cls-1" x="883.5" y="1284.72" width="8.77" height="8.77"/>
    <rect class="cls-1" x="857.19" y="1275.95" width="8.77" height="8.77"/>
    <rect class="cls-1" x="865.96" y="1267.18" width="8.77" height="8.77"/>
    <rect class="cls-1" x="865.96" y="1284.72" width="8.77" height="8.77"/>
    <rect class="cls-1" x="865.96" y="1319.8" width="8.77" height="8.77"/>
    <rect class="cls-1" x="865.96" y="1328.57" width="8.77" height="8.77"/>
    <rect class="cls-1" x="874.73" y="1240.87" width="8.77" height="8.77"/>
    <rect class="cls-1" x="874.73" y="1258.41" width="8.77" height="8.77"/>
    <rect class="cls-1" x="874.73" y="1293.49" width="8.77" height="8.77"/>
    <rect class="cls-1" x="874.73" y="1311.03" width="8.77" height="8.77"/>
    <rect class="cls-1" x="874.73" y="1337.34" width="8.77" height="8.77"/>
    <rect class="cls-1" x="883.5" y="1249.64" width="8.77" height="8.77"/>
    <rect class="cls-1" x="883.5" y="1302.26" width="8.77" height="8.77"/>
    <rect class="cls-1" x="883.5" y="1346.11" width="8.77" height="8.77"/>
    <rect class="cls-1" x="892.27" y="1240.87" width="8.76" height="8.77"/>
    <rect class="cls-1" x="892.27" y="1258.41" width="8.76" height="8.77"/>
    <rect class="cls-1" x="892.27" y="1293.49" width="8.76" height="8.77"/>
    <rect class="cls-1" x="892.27" y="1311.03" width="8.76" height="8.77"/>
    <rect class="cls-1" x="892.27" y="1337.34" width="8.76" height="8.77"/>
    <rect class="cls-1" x="901.03" y="1267.18" width="8.77" height="8.77"/>
    <rect class="cls-1" x="901.03" y="1284.72" width="8.77" height="8.77"/>
    <rect class="cls-1" x="901.03" y="1319.8" width="8.77" height="8.77"/>
    <rect class="cls-1" x="901.03" y="1328.57" width="8.77" height="8.77"/>
    <rect class="cls-1" x="909.8" y="1275.95" width="8.77" height="8.77"/>
  </g>
  <g>
    <rect class="cls-2" x="614.49" y="1498.04" width="8.76" height="8.77"/>
    <rect class="cls-2" x="596.95" y="1498.04" width="8.77" height="8.77"/>
    <rect class="cls-2" x="605.72" y="1506.81" width="8.77" height="8.77"/>
    <rect class="cls-2" x="605.72" y="1489.27" width="8.77" height="8.77"/>
    <rect class="cls-2" x="579.41" y="1498.04" width="8.77" height="8.77"/>
    <rect class="cls-2" x="588.18" y="1506.81" width="8.77" height="8.77"/>
    <rect class="cls-2" x="588.18" y="1489.27" width="8.77" height="8.77"/>
    <rect class="cls-2" x="588.18" y="1454.19" width="8.77" height="8.77"/>
    <rect class="cls-2" x="588.18" y="1445.42" width="8.77" height="8.77"/>
    <rect class="cls-2" x="596.95" y="1533.12" width="8.77" height="8.77"/>
    <rect class="cls-2" x="596.95" y="1515.58" width="8.77" height="8.77"/>
    <rect class="cls-2" x="596.95" y="1480.5" width="8.77" height="8.77"/>
    <rect class="cls-2" x="596.95" y="1462.96" width="8.77" height="8.77"/>
    <rect class="cls-2" x="596.95" y="1436.65" width="8.77" height="8.77"/>
    <rect class="cls-2" x="605.72" y="1524.35" width="8.77" height="8.77"/>
    <rect class="cls-2" x="605.72" y="1471.73" width="8.77" height="8.77"/>
    <rect class="cls-2" x="605.72" y="1427.88" width="8.77" height="8.77"/>
    <rect class="cls-2" x="614.49" y="1533.12" width="8.76" height="8.77"/>
    <rect class="cls-2" x="614.49" y="1515.58" width="8.76" height="8.77"/>
    <rect class="cls-2" x="614.49" y="1480.5" width="8.76" height="8.77"/>
    <rect class="cls-2" x="614.49" y="1462.96" width="8.76" height="8.77"/>
    <rect class="cls-2" x="614.49" y="1436.65" width="8.76" height="8.77"/>
    <rect class="cls-2" x="623.25" y="1506.81" width="8.77" height="8.77"/>
    <rect class="cls-2" x="623.25" y="1489.27" width="8.77" height="8.77"/>
    <rect class="cls-2" x="623.25" y="1454.19" width="8.77" height="8.77"/>
    <rect class="cls-2" x="623.25" y="1445.42" width="8.77" height="8.77"/>
    <rect class="cls-2" x="632.02" y="1498.04" width="8.77" height="8.77"/>
  </g>
  <g>
    <rect class="cls-1" x="707.62" y="1275.95" width="8.76" height="8.77"/>
    <rect class="cls-1" x="690.08" y="1275.95" width="8.77" height="8.77"/>
    <rect class="cls-1" x="698.85" y="1267.18" width="8.77" height="8.77"/>
    <rect class="cls-1" x="698.85" y="1284.72" width="8.77" height="8.77"/>
    <rect class="cls-1" x="672.54" y="1275.95" width="8.77" height="8.77"/>
    <rect class="cls-1" x="681.31" y="1267.18" width="8.77" height="8.77"/>
    <rect class="cls-1" x="681.31" y="1284.72" width="8.77" height="8.77"/>
    <rect class="cls-1" x="681.31" y="1319.8" width="8.77" height="8.77"/>
    <rect class="cls-1" x="681.31" y="1328.57" width="8.77" height="8.77"/>
    <rect class="cls-1" x="690.08" y="1240.87" width="8.77" height="8.77"/>
    <rect class="cls-1" x="690.08" y="1258.41" width="8.77" height="8.77"/>
    <rect class="cls-1" x="690.08" y="1293.49" width="8.77" height="8.77"/>
    <rect class="cls-1" x="690.08" y="1311.03" width="8.77" height="8.77"/>
    <rect class="cls-1" x="690.08" y="1337.34" width="8.77" height="8.77"/>
    <rect class="cls-1" x="698.85" y="1249.64" width="8.77" height="8.77"/>
    <rect class="cls-1" x="698.85" y="1302.26" width="8.77" height="8.77"/>
    <rect class="cls-1" x="698.85" y="1346.11" width="8.77" height="8.77"/>
    <rect class="cls-1" x="707.62" y="1240.87" width="8.76" height="8.77"/>
    <rect class="cls-1" x="707.62" y="1258.41" width="8.76" height="8.77"/>
    <rect class="cls-1" x="707.62" y="1293.49" width="8.76" height="8.77"/>
    <rect class="cls-1" x="707.62" y="1311.03" width="8.76" height="8.77"/>
    <rect class="cls-1" x="707.62" y="1337.34" width="8.76" height="8.77"/>
    <rect class="cls-1" x="716.38" y="1267.18" width="8.77" height="8.77"/>
    <rect class="cls-1" x="716.38" y="1284.72" width="8.77" height="8.77"/>
    <rect class="cls-1" x="716.38" y="1319.8" width="8.77" height="8.77"/>
    <rect class="cls-1" x="716.38" y="1328.57" width="8.77" height="8.77"/>
    <rect class="cls-1" x="725.15" y="1275.95" width="8.77" height="8.77"/>
  </g>
  <g>
    <rect class="cls-1" x="429.17" y="1498.04" width="8.76" height="8.77"/>
    <rect class="cls-1" x="411.63" y="1498.04" width="8.77" height="8.77"/>
    <rect class="cls-1" x="420.4" y="1506.81" width="8.77" height="8.77"/>
    <rect class="cls-1" x="420.4" y="1489.27" width="8.77" height="8.77"/>
    <rect class="cls-1" x="394.09" y="1498.04" width="8.77" height="8.77"/>
    <rect class="cls-1" x="402.86" y="1506.81" width="8.77" height="8.77"/>
    <rect class="cls-1" x="402.86" y="1489.27" width="8.77" height="8.77"/>
    <rect class="cls-1" x="402.86" y="1454.19" width="8.77" height="8.77"/>
    <rect class="cls-1" x="402.86" y="1445.42" width="8.77" height="8.77"/>
    <rect class="cls-1" x="411.63" y="1533.12" width="8.77" height="8.77"/>
    <rect class="cls-1" x="411.63" y="1515.58" width="8.77" height="8.77"/>
    <rect class="cls-1" x="411.63" y="1480.5" width="8.77" height="8.77"/>
    <rect class="cls-1" x="411.63" y="1462.96" width="8.77" height="8.77"/>
    <rect class="cls-1" x="411.63" y="1436.65" width="8.77" height="8.77"/>
    <rect class="cls-1" x="420.4" y="1524.35" width="8.77" height="8.77"/>
    <rect class="cls-1" x="420.4" y="1471.73" width="8.77" height="8.77"/>
    <rect class="cls-1" x="420.4" y="1427.88" width="8.77" height="8.77"/>
    <rect class="cls-1" x="429.17" y="1533.12" width="8.76" height="8.77"/>
    <rect class="cls-1" x="429.17" y="1515.58" width="8.76" height="8.77"/>
    <rect class="cls-1" x="429.17" y="1480.5" width="8.76" height="8.77"/>
    <rect class="cls-1" x="429.17" y="1462.96" width="8.76" height="8.77"/>
    <rect class="cls-1" x="429.17" y="1436.65" width="8.76" height="8.77"/>
    <rect class="cls-1" x="437.93" y="1506.81" width="8.77" height="8.77"/>
    <rect class="cls-1" x="437.93" y="1489.27" width="8.77" height="8.77"/>
    <rect class="cls-1" x="437.93" y="1454.19" width="8.77" height="8.77"/>
    <rect class="cls-1" x="437.93" y="1445.42" width="8.77" height="8.77"/>
    <rect class="cls-1" x="446.7" y="1498.04" width="8.77" height="8.77"/>
  </g>
  <g>
    <rect class="cls-1" x="522.3" y="1275.95" width="8.76" height="8.77"/>
    <rect class="cls-1" x="504.76" y="1275.95" width="8.77" height="8.77"/>
    <rect class="cls-1" x="513.53" y="1267.18" width="8.77" height="8.77"/>
    <rect class="cls-1" x="513.53" y="1284.72" width="8.77" height="8.77"/>
    <rect class="cls-1" x="487.22" y="1275.95" width="8.77" height="8.77"/>
    <rect class="cls-1" x="495.99" y="1267.18" width="8.77" height="8.77"/>
    <rect class="cls-1" x="495.99" y="1284.72" width="8.77" height="8.77"/>
    <rect class="cls-1" x="495.99" y="1319.8" width="8.77" height="8.77"/>
    <rect class="cls-1" x="495.99" y="1328.57" width="8.77" height="8.77"/>
    <rect class="cls-1" x="504.76" y="1240.87" width="8.77" height="8.77"/>
    <rect class="cls-1" x="504.76" y="1258.41" width="8.77" height="8.77"/>
    <rect class="cls-1" x="504.76" y="1293.49" width="8.77" height="8.77"/>
    <rect class="cls-1" x="504.76" y="1311.03" width="8.77" height="8.77"/>
    <rect class="cls-1" x="504.76" y="1337.34" width="8.77" height="8.77"/>
    <rect class="cls-1" x="513.53" y="1249.64" width="8.77" height="8.77"/>
    <rect class="cls-1" x="513.53" y="1302.26" width="8.77" height="8.77"/>
    <rect class="cls-1" x="513.53" y="1346.11" width="8.77" height="8.77"/>
    <rect class="cls-1" x="522.3" y="1240.87" width="8.76" height="8.77"/>
    <rect class="cls-1" x="522.3" y="1258.41" width="8.76" height="8.77"/>
    <rect class="cls-1" x="522.3" y="1293.49" width="8.76" height="8.77"/>
    <rect class="cls-1" x="522.3" y="1311.03" width="8.76" height="8.77"/>
    <rect class="cls-1" x="522.3" y="1337.34" width="8.76" height="8.77"/>
    <rect class="cls-1" x="531.06" y="1267.18" width="8.77" height="8.77"/>
    <rect class="cls-1" x="531.06" y="1284.72" width="8.77" height="8.77"/>
    <rect class="cls-1" x="531.06" y="1319.8" width="8.77" height="8.77"/>
    <rect class="cls-1" x="531.06" y="1328.57" width="8.77" height="8.77"/>
    <rect class="cls-1" x="539.83" y="1275.95" width="8.77" height="8.77"/>
  </g>
  <g>
    <rect class="cls-1" x="243.87" y="1498.04" width="8.76" height="8.77"/>
    <rect class="cls-1" x="226.33" y="1498.04" width="8.77" height="8.77"/>
    <rect class="cls-1" x="235.1" y="1506.81" width="8.77" height="8.77"/>
    <rect class="cls-1" x="235.1" y="1489.27" width="8.77" height="8.77"/>
    <rect class="cls-1" x="208.79" y="1498.04" width="8.77" height="8.77"/>
    <rect class="cls-1" x="217.56" y="1506.81" width="8.77" height="8.77"/>
    <rect class="cls-1" x="217.56" y="1489.27" width="8.77" height="8.77"/>
    <rect class="cls-1" x="217.56" y="1454.19" width="8.77" height="8.77"/>
    <rect class="cls-1" x="217.56" y="1445.42" width="8.77" height="8.77"/>
    <rect class="cls-1" x="226.33" y="1533.12" width="8.77" height="8.77"/>
    <rect class="cls-1" x="226.33" y="1515.58" width="8.77" height="8.77"/>
    <rect class="cls-1" x="226.33" y="1480.5" width="8.77" height="8.77"/>
    <rect class="cls-1" x="226.33" y="1462.96" width="8.77" height="8.77"/>
    <rect class="cls-1" x="226.33" y="1436.65" width="8.77" height="8.77"/>
    <rect class="cls-1" x="235.1" y="1524.35" width="8.77" height="8.77"/>
    <rect class="cls-1" x="235.1" y="1471.73" width="8.77" height="8.77"/>
    <rect class="cls-1" x="235.1" y="1427.88" width="8.77" height="8.77"/>
    <rect class="cls-1" x="243.87" y="1533.12" width="8.76" height="8.77"/>
    <rect class="cls-1" x="243.87" y="1515.58" width="8.76" height="8.77"/>
    <rect class="cls-1" x="243.87" y="1480.5" width="8.76" height="8.77"/>
    <rect class="cls-1" x="243.87" y="1462.96" width="8.76" height="8.77"/>
    <rect class="cls-1" x="243.87" y="1436.65" width="8.76" height="8.77"/>
    <rect class="cls-1" x="252.63" y="1506.81" width="8.77" height="8.77"/>
    <rect class="cls-1" x="252.63" y="1489.27" width="8.77" height="8.77"/>
    <rect class="cls-1" x="252.63" y="1454.19" width="8.77" height="8.77"/>
    <rect class="cls-1" x="252.63" y="1445.42" width="8.77" height="8.77"/>
    <rect class="cls-1" x="261.4" y="1498.04" width="8.77" height="8.77"/>
  </g>
  <g>
    <rect class="cls-1" x="337" y="1275.95" width="8.76" height="8.77"/>
    <rect class="cls-1" x="319.46" y="1275.95" width="8.77" height="8.77"/>
    <rect class="cls-1" x="328.23" y="1267.18" width="8.77" height="8.77"/>
    <rect class="cls-1" x="328.23" y="1284.72" width="8.77" height="8.77"/>
    <rect class="cls-1" x="301.92" y="1275.95" width="8.77" height="8.77"/>
    <rect class="cls-1" x="310.69" y="1267.18" width="8.77" height="8.77"/>
    <rect class="cls-1" x="310.69" y="1284.72" width="8.77" height="8.77"/>
    <rect class="cls-1" x="310.69" y="1319.8" width="8.77" height="8.77"/>
    <rect class="cls-1" x="310.69" y="1328.57" width="8.77" height="8.77"/>
    <rect class="cls-1" x="319.46" y="1240.87" width="8.77" height="8.77"/>
    <rect class="cls-1" x="319.46" y="1258.41" width="8.77" height="8.77"/>
    <rect class="cls-1" x="319.46" y="1293.49" width="8.77" height="8.77"/>
    <rect class="cls-1" x="319.46" y="1311.03" width="8.77" height="8.77"/>
    <rect class="cls-1" x="319.46" y="1337.34" width="8.77" height="8.77"/>
    <rect class="cls-1" x="328.23" y="1249.64" width="8.77" height="8.77"/>
    <rect class="cls-1" x="328.23" y="1302.26" width="8.77" height="8.77"/>
    <rect class="cls-1" x="328.23" y="1346.11" width="8.77" height="8.77"/>
    <rect class="cls-1" x="337" y="1240.87" width="8.76" height="8.77"/>
    <rect class="cls-1" x="337" y="1258.41" width="8.76" height="8.77"/>
    <rect class="cls-1" x="337" y="1293.49" width="8.76" height="8.77"/>
    <rect class="cls-1" x="337" y="1311.03" width="8.76" height="8.77"/>
    <rect class="cls-1" x="337" y="1337.34" width="8.76" height="8.77"/>
    <rect class="cls-1" x="345.76" y="1267.18" width="8.77" height="8.77"/>
    <rect class="cls-1" x="345.76" y="1284.72" width="8.77" height="8.77"/>
    <rect class="cls-1" x="345.76" y="1319.8" width="8.77" height="8.77"/>
    <rect class="cls-1" x="345.76" y="1328.57" width="8.77" height="8.77"/>
    <rect class="cls-1" x="354.53" y="1275.95" width="8.77" height="8.77"/>
  </g>
  <g>
    <rect class="cls-1" x="58.87" y="1498.04" width="8.76" height="8.77"/>
    <rect class="cls-1" x="41.33" y="1498.04" width="8.77" height="8.77"/>
    <rect class="cls-1" x="50.1" y="1506.81" width="8.77" height="8.77"/>
    <rect class="cls-1" x="50.1" y="1489.27" width="8.77" height="8.77"/>
    <rect class="cls-1" x="23.79" y="1498.04" width="8.77" height="8.77"/>
    <rect class="cls-1" x="32.56" y="1506.81" width="8.77" height="8.77"/>
    <rect class="cls-1" x="32.56" y="1489.27" width="8.77" height="8.77"/>
    <rect class="cls-1" x="32.56" y="1454.19" width="8.77" height="8.77"/>
    <rect class="cls-1" x="32.56" y="1445.42" width="8.77" height="8.77"/>
    <rect class="cls-1" x="41.33" y="1533.12" width="8.77" height="8.77"/>
    <rect class="cls-1" x="41.33" y="1515.58" width="8.77" height="8.77"/>
    <rect class="cls-1" x="41.33" y="1480.5" width="8.77" height="8.77"/>
    <rect class="cls-1" x="41.33" y="1462.96" width="8.77" height="8.77"/>
    <rect class="cls-1" x="41.33" y="1436.65" width="8.77" height="8.77"/>
    <rect class="cls-1" x="50.1" y="1524.35" width="8.77" height="8.77"/>
    <rect class="cls-1" x="50.1" y="1471.73" width="8.77" height="8.77"/>
    <rect class="cls-1" x="50.1" y="1427.88" width="8.77" height="8.77"/>
    <rect class="cls-1" x="58.87" y="1533.12" width="8.76" height="8.77"/>
    <rect class="cls-1" x="58.87" y="1515.58" width="8.76" height="8.77"/>
    <rect class="cls-1" x="58.87" y="1480.5" width="8.76" height="8.77"/>
    <rect class="cls-1" x="58.87" y="1462.96" width="8.76" height="8.77"/>
    <rect class="cls-1" x="58.87" y="1436.65" width="8.76" height="8.77"/>
    <rect class="cls-1" x="67.63" y="1506.81" width="8.77" height="8.77"/>
    <rect class="cls-1" x="67.63" y="1489.27" width="8.77" height="8.77"/>
    <rect class="cls-1" x="67.63" y="1454.19" width="8.77" height="8.77"/>
    <rect class="cls-1" x="67.63" y="1445.42" width="8.77" height="8.77"/>
    <rect class="cls-1" x="76.4" y="1498.04" width="8.77" height="8.77"/>
  </g>
  <g>
    <rect class="cls-2" x="152.01" y="1275.95" width="8.76" height="8.77"/>
    <rect class="cls-2" x="134.47" y="1275.95" width="8.77" height="8.77"/>
    <rect class="cls-2" x="143.24" y="1267.18" width="8.77" height="8.77"/>
    <rect class="cls-2" x="143.24" y="1284.72" width="8.77" height="8.77"/>
    <rect class="cls-2" x="116.93" y="1275.95" width="8.77" height="8.77"/>
    <rect class="cls-2" x="125.7" y="1267.18" width="8.77" height="8.77"/>
    <rect class="cls-2" x="125.7" y="1284.72" width="8.77" height="8.77"/>
    <rect class="cls-2" x="125.7" y="1319.8" width="8.77" height="8.77"/>
    <rect class="cls-2" x="125.7" y="1328.57" width="8.77" height="8.77"/>
    <rect class="cls-2" x="134.47" y="1240.87" width="8.77" height="8.77"/>
    <rect class="cls-2" x="134.47" y="1258.41" width="8.77" height="8.77"/>
    <rect class="cls-2" x="134.47" y="1293.49" width="8.77" height="8.77"/>
    <rect class="cls-2" x="134.47" y="1311.03" width="8.77" height="8.77"/>
    <rect class="cls-2" x="134.47" y="1337.34" width="8.77" height="8.77"/>
    <rect class="cls-2" x="143.24" y="1249.64" width="8.77" height="8.77"/>
    <rect class="cls-2" x="143.24" y="1302.26" width="8.77" height="8.77"/>
    <rect class="cls-2" x="143.24" y="1346.11" width="8.77" height="8.77"/>
    <rect class="cls-2" x="152.01" y="1240.87" width="8.76" height="8.77"/>
    <rect class="cls-2" x="152.01" y="1258.41" width="8.76" height="8.77"/>
    <rect class="cls-2" x="152.01" y="1293.49" width="8.76" height="8.77"/>
    <rect class="cls-2" x="152.01" y="1311.03" width="8.76" height="8.77"/>
    <rect class="cls-2" x="152.01" y="1337.34" width="8.76" height="8.77"/>
    <rect class="cls-2" x="160.77" y="1267.18" width="8.77" height="8.77"/>
    <rect class="cls-2" x="160.77" y="1284.72" width="8.77" height="8.77"/>
    <rect class="cls-2" x="160.77" y="1319.8" width="8.77" height="8.77"/>
    <rect class="cls-2" x="160.77" y="1328.57" width="8.77" height="8.77"/>
    <rect class="cls-2" x="169.54" y="1275.95" width="8.77" height="8.77"/>
  </g>
  <path class="cls-3" d="M839.9,13.45h-89.06c-1.6,0-2.9,1.32-2.9,2.94v1953.33c0,1.63,1.3,2.94,2.9,2.94h89.06c1.6,0,2.9-1.32,2.9-2.94V16.39c0-1.63-1.3-2.94-2.9-2.94ZM840.47,324.94v144.58c0,3.07-4.05,4.09-5.47,1.38l-37.59-71.68c-.45-.86-.45-1.89,0-2.75l37.59-72.9c1.41-2.73,5.48-1.71,5.48,1.36ZM840.47,513.24v143.1c0,3.07-4.05,4.09-5.47,1.38l-37.2-70.94c-.45-.86-.45-1.89,0-2.75l37.2-72.15c1.41-2.73,5.48-1.71,5.48,1.36ZM840.47,700.05v144.58c0,3.07-4.05,4.09-5.47,1.38l-37.59-71.68c-.45-.86-.45-1.89,0-2.75l37.59-72.9c1.41-2.73,5.48-1.71,5.48,1.36ZM840.47,1129.52v144.58c0,3.07-4.05,4.09-5.47,1.38l-37.59-71.68c-.45-.86-.45-1.89,0-2.75l37.59-72.9c1.41-2.73,5.48-1.71,5.48,1.36ZM840.47,1317.81v143.1c0,3.07-4.05,4.09-5.47,1.38l-37.2-70.94c-.45-.86-.45-1.89,0-2.75l37.2-72.15c1.41-2.73,5.48-1.71,5.48,1.36ZM840.47,1504.62v144.59c0,3.07-4.05,4.09-5.47,1.38l-37.59-71.69c-.45-.86-.45-1.88,0-2.75l37.59-72.9c1.41-2.73,5.48-1.71,5.48,1.36ZM750.28,1967.35v-300.55c0-.48.12-.96.34-1.38l44.74-85.34v.02s.02-.02.02-.02l44.75,85.34c.22.43.34.9.34,1.38v300.55c0,1.63-1.3,2.94-2.9,2.94h-84.38c-1.6,0-2.9-1.32-2.9-2.94ZM750.28,1649.2v-144.58c0-3.08,4.07-4.09,5.48-1.36l37.59,72.9c.44.86.44,1.89,0,2.75l-37.59,71.68c-1.42,2.71-5.47,1.69-5.47-1.38ZM795.34,1392.12l44.78,85c.22.43.34.9.34,1.39v8.29c0,.48-.11.94-.33,1.36l-42.19,81.83c-1.09,2.11-4.06,2.11-5.15,0l-42.19-81.83c-.22-.42-.33-.89-.33-1.36v-8.29c0-.48.12-.96.34-1.39l44.72-85M750.28,1460.91v-143.09c0-3.08,4.07-4.09,5.48-1.36l37.2,72.15c.44.86.44,1.89,0,2.75l-37.2,70.94c-1.42,2.71-5.47,1.69-5.47-1.38ZM750.28,1291.69c0-.48.12-.96.34-1.38l44.74-85.34v.02s.02-.02.02-.02l44.75,85.34c.22.43.34.9.34,1.38v8.29c0,.47-.11.94-.33,1.36l-44.39,86.09-.36.77-.4-.77-44.39-86.09c-.22-.42-.33-.89-.33-1.36v-8.29ZM750.28,1274.1v-144.58c0-3.08,4.07-4.09,5.48-1.36l37.59,72.9c.44.86.44,1.89,0,2.75l-37.59,71.68c-1.42,2.71-5.47,1.69-5.47-1.38ZM750.28,1111.68v-249.45c0-.48.12-.96.34-1.38l44.74-85.34v.02s.02-.02.02-.02l44.75,85.34c.22.43.34.9.34,1.38v249.45c0,.47-.11.94-.33,1.36l-42.19,81.84c-1.09,2.11-4.06,2.11-5.15,0l-42.19-81.84c-.22-.42-.33-.89-.33-1.36ZM750.28,844.63v-144.58c0-3.08,4.07-4.09,5.48-1.36l37.59,72.9c.44.86.44,1.89,0,2.75l-37.59,71.68c-1.42,2.71-5.47,1.69-5.47-1.38ZM750.28,682.22v-8.29c0-.48.12-.96.34-1.38l44.36-84.59.39-.77.4.77,44.36,84.59c.22.43.34.9.34,1.38v8.29c0,.48-.11.94-.33,1.36l-42.19,81.83c-1.09,2.11-4.06,2.11-5.15,0l-42.19-81.83c-.22-.42-.33-.89-.33-1.36ZM750.28,656.33v-143.09c0-3.08,4.07-4.09,5.48-1.36l37.2,72.15c.44.86.44,1.89,0,2.75l-37.2,70.94c-1.42,2.71-5.47,1.69-5.47-1.38ZM750.28,487.12c0-.48.12-.96.34-1.38l44.74-85.34v.02s.02-.02.02-.02l44.75,85.34c.22.43.34.9.34,1.38v8.29c0,.47-.11.94-.33,1.36l-44.39,86.09-.38.74-.37-.74-44.39-86.09c-.22-.42-.33-.89-.33-1.36v-8.29ZM750.28,469.52v-144.58c0-3.08,4.07-4.09,5.48-1.36l37.59,72.9c.44.86.44,1.89,0,2.75l-37.59,71.68c-1.42,2.71-5.47,1.69-5.47-1.38ZM750.28,307.11V18.77c0-1.63,1.3-2.94,2.9-2.94h84.38c1.6,0,2.9,1.32,2.9,2.94v288.34c0,.47-.11.94-.33,1.36l-42.19,81.84c-1.09,2.11-4.06,2.11-5.15,0l-42.19-81.84c-.22-.42-.33-.89-.33-1.36Z"/>
  <path class="cls-3" d="M747.38,13.45h-89.06c-1.6,0-2.9,1.32-2.9,2.94v1953.33c0,1.63,1.3,2.94,2.9,2.94h89.06c1.6,0,2.9-1.32,2.9-2.94V16.39c0-1.63-1.3-2.94-2.9-2.94ZM747.94,324.94v144.58c0,3.07-4.05,4.09-5.47,1.38l-37.59-71.68c-.45-.86-.45-1.89,0-2.75l37.59-72.9c1.41-2.73,5.48-1.71,5.48,1.36ZM747.94,513.24v143.1c0,3.07-4.05,4.09-5.47,1.38l-37.2-70.94c-.45-.86-.45-1.89,0-2.75l37.2-72.15c1.41-2.73,5.48-1.71,5.48,1.36ZM747.94,700.05v144.58c0,3.07-4.05,4.09-5.47,1.38l-37.59-71.68c-.45-.86-.45-1.89,0-2.75l37.59-72.9c1.41-2.73,5.48-1.71,5.48,1.36ZM747.94,1129.52v144.58c0,3.07-4.05,4.09-5.47,1.38l-37.59-71.68c-.45-.86-.45-1.89,0-2.75l37.59-72.9c1.41-2.73,5.48-1.71,5.48,1.36ZM747.94,1317.81v143.1c0,3.07-4.05,4.09-5.47,1.38l-37.2-70.94c-.45-.86-.45-1.89,0-2.75l37.2-72.15c1.41-2.73,5.48-1.71,5.48,1.36ZM747.94,1504.62v144.59c0,3.07-4.05,4.09-5.47,1.38l-37.59-71.69c-.45-.86-.45-1.88,0-2.75l37.59-72.9c1.41-2.73,5.48-1.71,5.48,1.36ZM657.75,1967.35v-300.55c0-.48.12-.96.34-1.38l44.74-85.34v.02s.02-.02.02-.02l44.75,85.34c.22.43.34.9.34,1.38v300.55c0,1.63-1.3,2.94-2.9,2.94h-84.38c-1.6,0-2.9-1.32-2.9-2.94ZM657.75,1649.2v-144.58c0-3.08,4.07-4.09,5.48-1.36l37.59,72.9c.44.86.44,1.89,0,2.75l-37.59,71.68c-1.42,2.71-5.47,1.69-5.47-1.38ZM702.81,1392.12l44.78,85c.22.43.34.9.34,1.39v8.29c0,.48-.11.94-.33,1.36l-42.19,81.83c-1.09,2.11-4.06,2.11-5.15,0l-42.19-81.83c-.22-.42-.33-.89-.33-1.36v-8.29c0-.48.12-.96.34-1.39l44.72-85M657.75,1460.91v-143.09c0-3.08,4.07-4.09,5.48-1.36l37.2,72.15c.44.86.44,1.89,0,2.75l-37.2,70.94c-1.42,2.71-5.47,1.69-5.47-1.38ZM657.75,1291.69c0-.48.12-.96.34-1.38l44.74-85.34v.02s.02-.02.02-.02l44.75,85.34c.22.43.34.9.34,1.38v8.29c0,.47-.11.94-.33,1.36l-44.39,86.09-.36.77-.4-.77-44.39-86.09c-.22-.42-.33-.89-.33-1.36v-8.29ZM657.75,1274.1v-144.58c0-3.08,4.07-4.09,5.48-1.36l37.59,72.9c.44.86.44,1.89,0,2.75l-37.59,71.68c-1.42,2.71-5.47,1.69-5.47-1.38ZM657.75,1111.68v-249.45c0-.48.12-.96.34-1.38l44.74-85.34v.02s.02-.02.02-.02l44.75,85.34c.22.43.34.9.34,1.38v249.45c0,.47-.11.94-.33,1.36l-42.19,81.84c-1.09,2.11-4.06,2.11-5.15,0l-42.19-81.84c-.22-.42-.33-.89-.33-1.36ZM657.75,844.63v-144.58c0-3.08,4.07-4.09,5.48-1.36l37.59,72.9c.44.86.44,1.89,0,2.75l-37.59,71.68c-1.42,2.71-5.47,1.69-5.47-1.38ZM657.75,682.22v-8.29c0-.48.12-.96.34-1.38l44.36-84.59.39-.77.4.77,44.36,84.59c.22.43.34.9.34,1.38v8.29c0,.48-.11.94-.33,1.36l-42.19,81.83c-1.09,2.11-4.06,2.11-5.15,0l-42.19-81.83c-.22-.42-.33-.89-.33-1.36ZM657.75,656.33v-143.09c0-3.08,4.07-4.09,5.48-1.36l37.2,72.15c.44.86.44,1.89,0,2.75l-37.2,70.94c-1.42,2.71-5.47,1.69-5.47-1.38ZM657.75,487.12c0-.48.12-.96.34-1.38l44.74-85.34v.02s.02-.02.02-.02l44.75,85.34c.22.43.34.9.34,1.38v8.29c0,.47-.11.94-.33,1.36l-44.39,86.09-.38.74-.37-.74-44.39-86.09c-.22-.42-.33-.89-.33-1.36v-8.29ZM657.75,469.52v-144.58c0-3.08,4.07-4.09,5.48-1.36l37.59,72.9c.44.86.44,1.89,0,2.75l-37.59,71.68c-1.42,2.71-5.47,1.69-5.47-1.38ZM657.75,307.11V18.77c0-1.63,1.3-2.94,2.9-2.94h84.38c1.6,0,2.9,1.32,2.9,2.94v288.34c0,.47-.11.94-.33,1.36l-42.19,81.84c-1.09,2.11-4.06,2.11-5.15,0l-42.19-81.84c-.22-.42-.33-.89-.33-1.36Z"/>
  <path class="cls-3" d="M654.85,13.45h-89.06c-1.6,0-2.9,1.32-2.9,2.94v1953.33c0,1.63,1.3,2.94,2.9,2.94h89.06c1.6,0,2.9-1.32,2.9-2.94V16.39c0-1.63-1.3-2.94-2.9-2.94ZM655.41,324.94v144.58c0,3.07-4.05,4.09-5.47,1.38l-37.59-71.68c-.45-.86-.45-1.89,0-2.75l37.59-72.9c1.41-2.73,5.48-1.71,5.48,1.36ZM655.41,513.24v143.1c0,3.07-4.05,4.09-5.47,1.38l-37.2-70.94c-.45-.86-.45-1.89,0-2.75l37.2-72.15c1.41-2.73,5.48-1.71,5.48,1.36ZM655.41,700.05v144.58c0,3.07-4.05,4.09-5.47,1.38l-37.59-71.68c-.45-.86-.45-1.89,0-2.75l37.59-72.9c1.41-2.73,5.48-1.71,5.48,1.36ZM655.41,1129.52v144.58c0,3.07-4.05,4.09-5.47,1.38l-37.59-71.68c-.45-.86-.45-1.89,0-2.75l37.59-72.9c1.41-2.73,5.48-1.71,5.48,1.36ZM655.41,1317.81v143.1c0,3.07-4.05,4.09-5.47,1.38l-37.2-70.94c-.45-.86-.45-1.89,0-2.75l37.2-72.15c1.41-2.73,5.48-1.71,5.48,1.36ZM655.41,1504.62v144.59c0,3.07-4.05,4.09-5.47,1.38l-37.59-71.69c-.45-.86-.45-1.88,0-2.75l37.59-72.9c1.41-2.73,5.48-1.71,5.48,1.36ZM565.22,1967.35v-300.55c0-.48.12-.96.34-1.38l44.74-85.34v.02s.02-.02.02-.02l44.75,85.34c.22.43.34.9.34,1.38v300.55c0,1.63-1.3,2.94-2.9,2.94h-84.38c-1.6,0-2.9-1.32-2.9-2.94ZM565.22,1649.2v-144.58c0-3.08,4.07-4.09,5.48-1.36l37.59,72.9c.44.86.44,1.89,0,2.75l-37.59,71.68c-1.42,2.71-5.47,1.69-5.47-1.38ZM610.28,1392.12l44.78,85c.22.43.34.9.34,1.39v8.29c0,.48-.11.94-.33,1.36l-42.19,81.83c-1.09,2.11-4.06,2.11-5.15,0l-42.19-81.83c-.22-.42-.33-.89-.33-1.36v-8.29c0-.48.12-.96.34-1.39l44.72-85M565.22,1460.91v-143.09c0-3.08,4.07-4.09,5.48-1.36l37.2,72.15c.44.86.44,1.89,0,2.75l-37.2,70.94c-1.42,2.71-5.47,1.69-5.47-1.38ZM565.22,1291.69c0-.48.12-.96.34-1.38l44.74-85.34v.02s.02-.02.02-.02l44.75,85.34c.22.43.34.9.34,1.38v8.29c0,.47-.11.94-.33,1.36l-44.39,86.09-.36.77-.4-.77-44.39-86.09c-.22-.42-.33-.89-.33-1.36v-8.29ZM565.22,1274.1v-144.58c0-3.08,4.07-4.09,5.48-1.36l37.59,72.9c.44.86.44,1.89,0,2.75l-37.59,71.68c-1.42,2.71-5.47,1.69-5.47-1.38ZM565.22,1111.68v-249.45c0-.48.12-.96.34-1.38l44.74-85.34v.02s.02-.02.02-.02l44.75,85.34c.22.43.34.9.34,1.38v249.45c0,.47-.11.94-.33,1.36l-42.19,81.84c-1.09,2.11-4.06,2.11-5.15,0l-42.19-81.84c-.22-.42-.33-.89-.33-1.36ZM565.22,844.63v-144.58c0-3.08,4.07-4.09,5.48-1.36l37.59,72.9c.44.86.44,1.89,0,2.75l-37.59,71.68c-1.42,2.71-5.47,1.69-5.47-1.38ZM565.22,682.22v-8.29c0-.48.12-.96.34-1.38l44.36-84.59.39-.77.4.77,44.36,84.59c.22.43.34.9.34,1.38v8.29c0,.48-.11.94-.33,1.36l-42.19,81.83c-1.09,2.11-4.06,2.11-5.15,0l-42.19-81.83c-.22-.42-.33-.89-.33-1.36ZM565.22,656.33v-143.09c0-3.08,4.07-4.09,5.48-1.36l37.2,72.15c.44.86.44,1.89,0,2.75l-37.2,70.94c-1.42,2.71-5.47,1.69-5.47-1.38ZM565.22,487.12c0-.48.12-.96.34-1.38l44.74-85.34v.02s.02-.02.02-.02l44.75,85.34c.22.43.34.9.34,1.38v8.29c0,.47-.11.94-.33,1.36l-44.39,86.09-.38.74-.37-.74-44.39-86.09c-.22-.42-.33-.89-.33-1.36v-8.29ZM565.22,469.52v-144.58c0-3.08,4.07-4.09,5.48-1.36l37.59,72.9c.44.86.44,1.89,0,2.75l-37.59,71.68c-1.42,2.71-5.47,1.69-5.47-1.38ZM565.22,307.11V18.77c0-1.63,1.3-2.94,2.9-2.94h84.38c1.6,0,2.9,1.32,2.9,2.94v288.34c0,.47-.11.94-.33,1.36l-42.19,81.84c-1.09,2.11-4.06,2.11-5.15,0l-42.19-81.84c-.22-.42-.33-.89-.33-1.36Z"/>
  <path class="cls-3" d="M562.32,13.45h-89.06c-1.6,0-2.9,1.32-2.9,2.94v1953.33c0,1.63,1.3,2.94,2.9,2.94h89.06c1.6,0,2.9-1.32,2.9-2.94V16.39c0-1.63-1.3-2.94-2.9-2.94ZM562.88,324.94v144.58c0,3.07-4.05,4.09-5.47,1.38l-37.59-71.68c-.45-.86-.45-1.89,0-2.75l37.59-72.9c1.41-2.73,5.48-1.71,5.48,1.36ZM562.88,513.24v143.1c0,3.07-4.05,4.09-5.47,1.38l-37.2-70.94c-.45-.86-.45-1.89,0-2.75l37.2-72.15c1.41-2.73,5.48-1.71,5.48,1.36ZM562.88,700.05v144.58c0,3.07-4.05,4.09-5.47,1.38l-37.59-71.68c-.45-.86-.45-1.89,0-2.75l37.59-72.9c1.41-2.73,5.48-1.71,5.48,1.36ZM562.88,1129.52v144.58c0,3.07-4.05,4.09-5.47,1.38l-37.59-71.68c-.45-.86-.45-1.89,0-2.75l37.59-72.9c1.41-2.73,5.48-1.71,5.48,1.36ZM562.88,1317.81v143.1c0,3.07-4.05,4.09-5.47,1.38l-37.2-70.94c-.45-.86-.45-1.89,0-2.75l37.2-72.15c1.41-2.73,5.48-1.71,5.48,1.36ZM562.88,1504.62v144.59c0,3.07-4.05,4.09-5.47,1.38l-37.59-71.69c-.45-.86-.45-1.88,0-2.75l37.59-72.9c1.41-2.73,5.48-1.71,5.48,1.36ZM472.69,1967.35v-300.55c0-.48.12-.96.34-1.38l44.74-85.34v.02s.02-.02.02-.02l44.75,85.34c.22.43.34.9.34,1.38v300.55c0,1.63-1.3,2.94-2.9,2.94h-84.38c-1.6,0-2.9-1.32-2.9-2.94ZM472.69,1649.2v-144.58c0-3.08,4.07-4.09,5.48-1.36l37.59,72.9c.44.86.44,1.89,0,2.75l-37.59,71.68c-1.42,2.71-5.47,1.69-5.47-1.38ZM517.76,1392.12l44.78,85c.22.43.34.9.34,1.39v8.29c0,.48-.11.94-.33,1.36l-42.19,81.83c-1.09,2.11-4.06,2.11-5.15,0l-42.19-81.83c-.22-.42-.33-.89-.33-1.36v-8.29c0-.48.12-.96.34-1.39l44.72-85M472.69,1460.91v-143.09c0-3.08,4.07-4.09,5.48-1.36l37.2,72.15c.44.86.44,1.89,0,2.75l-37.2,70.94c-1.42,2.71-5.47,1.69-5.47-1.38ZM472.69,1291.69c0-.48.12-.96.34-1.38l44.74-85.34v.02s.02-.02.02-.02l44.75,85.34c.22.43.34.9.34,1.38v8.29c0,.47-.11.94-.33,1.36l-44.39,86.09-.36.77-.4-.77-44.39-86.09c-.22-.42-.33-.89-.33-1.36v-8.29ZM472.69,1274.1v-144.58c0-3.08,4.07-4.09,5.48-1.36l37.59,72.9c.44.86.44,1.89,0,2.75l-37.59,71.68c-1.42,2.71-5.47,1.69-5.47-1.38ZM472.69,1111.68v-249.45c0-.48.12-.96.34-1.38l44.74-85.34v.02s.02-.02.02-.02l44.75,85.34c.22.43.34.9.34,1.38v249.45c0,.47-.11.94-.33,1.36l-42.19,81.84c-1.09,2.11-4.06,2.11-5.15,0l-42.19-81.84c-.22-.42-.33-.89-.33-1.36ZM472.69,844.63v-144.58c0-3.08,4.07-4.09,5.48-1.36l37.59,72.9c.44.86.44,1.89,0,2.75l-37.59,71.68c-1.42,2.71-5.47,1.69-5.47-1.38ZM472.69,682.22v-8.29c0-.48.12-.96.34-1.38l44.36-84.59.39-.77.4.77,44.36,84.59c.22.43.34.9.34,1.38v8.29c0,.48-.11.94-.33,1.36l-42.19,81.83c-1.09,2.11-4.06,2.11-5.15,0l-42.19-81.83c-.22-.42-.33-.89-.33-1.36ZM472.69,656.33v-143.09c0-3.08,4.07-4.09,5.48-1.36l37.2,72.15c.44.86.44,1.89,0,2.75l-37.2,70.94c-1.42,2.71-5.47,1.69-5.47-1.38ZM472.69,487.12c0-.48.12-.96.34-1.38l44.74-85.34v.02s.02-.02.02-.02l44.75,85.34c.22.43.34.9.34,1.38v8.29c0,.47-.11.94-.33,1.36l-44.39,86.09-.38.74-.37-.74-44.39-86.09c-.22-.42-.33-.89-.33-1.36v-8.29ZM472.69,469.52v-144.58c0-3.08,4.07-4.09,5.48-1.36l37.59,72.9c.44.86.44,1.89,0,2.75l-37.59,71.68c-1.42,2.71-5.47,1.69-5.47-1.38ZM472.69,307.11V18.77c0-1.63,1.3-2.94,2.9-2.94h84.38c1.6,0,2.9,1.32,2.9,2.94v288.34c0,.47-.11.94-.33,1.36l-42.19,81.84c-1.09,2.11-4.06,2.11-5.15,0l-42.19-81.84c-.22-.42-.33-.89-.33-1.36Z"/>
  <path class="cls-3" d="M469.79,13.45h-89.06c-1.6,0-2.9,1.32-2.9,2.94v1953.33c0,1.63,1.3,2.94,2.9,2.94h89.06c1.6,0,2.9-1.32,2.9-2.94V16.39c0-1.63-1.3-2.94-2.9-2.94ZM470.35,324.94v144.58c0,3.07-4.05,4.09-5.47,1.38l-37.59-71.68c-.45-.86-.45-1.89,0-2.75l37.59-72.9c1.41-2.73,5.48-1.71,5.48,1.36ZM470.35,513.24v143.1c0,3.07-4.05,4.09-5.47,1.38l-37.2-70.94c-.45-.86-.45-1.89,0-2.75l37.2-72.15c1.41-2.73,5.48-1.71,5.48,1.36ZM470.35,700.05v144.58c0,3.07-4.05,4.09-5.47,1.38l-37.59-71.68c-.45-.86-.45-1.89,0-2.75l37.59-72.9c1.41-2.73,5.48-1.71,5.48,1.36ZM470.35,1129.52v144.58c0,3.07-4.05,4.09-5.47,1.38l-37.59-71.68c-.45-.86-.45-1.89,0-2.75l37.59-72.9c1.41-2.73,5.48-1.71,5.48,1.36ZM470.35,1317.81v143.1c0,3.07-4.05,4.09-5.47,1.38l-37.2-70.94c-.45-.86-.45-1.89,0-2.75l37.2-72.15c1.41-2.73,5.48-1.71,5.48,1.36ZM470.35,1504.62v144.59c0,3.07-4.05,4.09-5.47,1.38l-37.59-71.69c-.45-.86-.45-1.88,0-2.75l37.59-72.9c1.41-2.73,5.48-1.71,5.48,1.36ZM380.17,1967.35v-300.55c0-.48.12-.96.34-1.38l44.74-85.34v.02s.02-.02.02-.02l44.75,85.34c.22.43.34.9.34,1.38v300.55c0,1.63-1.3,2.94-2.9,2.94h-84.38c-1.6,0-2.9-1.32-2.9-2.94ZM380.17,1649.2v-144.58c0-3.08,4.07-4.09,5.48-1.36l37.59,72.9c.44.86.44,1.89,0,2.75l-37.59,71.68c-1.42,2.71-5.47,1.69-5.47-1.38ZM425.23,1392.12l44.78,85c.22.43.34.9.34,1.39v8.29c0,.48-.11.94-.33,1.36l-42.19,81.83c-1.09,2.11-4.06,2.11-5.15,0l-42.19-81.83c-.22-.42-.33-.89-.33-1.36v-8.29c0-.48.12-.96.34-1.39l44.72-85M380.17,1460.91v-143.09c0-3.08,4.07-4.09,5.48-1.36l37.2,72.15c.44.86.44,1.89,0,2.75l-37.2,70.94c-1.42,2.71-5.47,1.69-5.47-1.38ZM380.17,1291.69c0-.48.12-.96.34-1.38l44.74-85.34v.02s.02-.02.02-.02l44.75,85.34c.22.43.34.9.34,1.38v8.29c0,.47-.11.94-.33,1.36l-44.39,86.09-.36.77-.4-.77-44.39-86.09c-.22-.42-.33-.89-.33-1.36v-8.29ZM380.17,1274.1v-144.58c0-3.08,4.07-4.09,5.48-1.36l37.59,72.9c.44.86.44,1.89,0,2.75l-37.59,71.68c-1.42,2.71-5.47,1.69-5.47-1.38ZM380.17,1111.68v-249.45c0-.48.12-.96.34-1.38l44.74-85.34v.02s.02-.02.02-.02l44.75,85.34c.22.43.34.9.34,1.38v249.45c0,.47-.11.94-.33,1.36l-42.19,81.84c-1.09,2.11-4.06,2.11-5.15,0l-42.19-81.84c-.22-.42-.33-.89-.33-1.36ZM380.17,844.63v-144.58c0-3.08,4.07-4.09,5.48-1.36l37.59,72.9c.44.86.44,1.89,0,2.75l-37.59,71.68c-1.42,2.71-5.47,1.69-5.47-1.38ZM380.17,682.22v-8.29c0-.48.12-.96.34-1.38l44.36-84.59.39-.77.4.77,44.36,84.59c.22.43.34.9.34,1.38v8.29c0,.48-.11.94-.33,1.36l-42.19,81.83c-1.09,2.11-4.06,2.11-5.15,0l-42.19-81.83c-.22-.42-.33-.89-.33-1.36ZM380.17,656.33v-143.09c0-3.08,4.07-4.09,5.48-1.36l37.2,72.15c.44.86.44,1.89,0,2.75l-37.2,70.94c-1.42,2.71-5.47,1.69-5.47-1.38ZM380.17,487.12c0-.48.12-.96.34-1.38l44.74-85.34v.02s.02-.02.02-.02l44.75,85.34c.22.43.34.9.34,1.38v8.29c0,.47-.11.94-.33,1.36l-44.39,86.09-.38.74-.37-.74-44.39-86.09c-.22-.42-.33-.89-.33-1.36v-8.29ZM380.17,469.52v-144.58c0-3.08,4.07-4.09,5.48-1.36l37.59,72.9c.44.86.44,1.89,0,2.75l-37.59,71.68c-1.42,2.71-5.47,1.69-5.47-1.38ZM380.17,307.11V18.77c0-1.63,1.3-2.94,2.9-2.94h84.38c1.6,0,2.9,1.32,2.9,2.94v288.34c0,.47-.11.94-.33,1.36l-42.19,81.84c-1.09,2.11-4.06,2.11-5.15,0l-42.19-81.84c-.22-.42-.33-.89-.33-1.36Z"/>
  <path class="cls-3" d="M377.26,13.45h-89.06c-1.6,0-2.9,1.32-2.9,2.94v1953.33c0,1.63,1.3,2.94,2.9,2.94h89.06c1.6,0,2.9-1.32,2.9-2.94V16.39c0-1.63-1.3-2.94-2.9-2.94ZM377.83,324.94v144.58c0,3.07-4.05,4.09-5.47,1.38l-37.59-71.68c-.45-.86-.45-1.89,0-2.75l37.59-72.9c1.41-2.73,5.48-1.71,5.48,1.36ZM377.83,513.24v143.1c0,3.07-4.05,4.09-5.47,1.38l-37.2-70.94c-.45-.86-.45-1.89,0-2.75l37.2-72.15c1.41-2.73,5.48-1.71,5.48,1.36ZM377.83,700.05v144.58c0,3.07-4.05,4.09-5.47,1.38l-37.59-71.68c-.45-.86-.45-1.89,0-2.75l37.59-72.9c1.41-2.73,5.48-1.71,5.48,1.36ZM377.83,1129.52v144.58c0,3.07-4.05,4.09-5.47,1.38l-37.59-71.68c-.45-.86-.45-1.89,0-2.75l37.59-72.9c1.41-2.73,5.48-1.71,5.48,1.36ZM377.83,1317.81v143.1c0,3.07-4.05,4.09-5.47,1.38l-37.2-70.94c-.45-.86-.45-1.89,0-2.75l37.2-72.15c1.41-2.73,5.48-1.71,5.48,1.36ZM377.83,1504.62v144.59c0,3.07-4.05,4.09-5.47,1.38l-37.59-71.69c-.45-.86-.45-1.88,0-2.75l37.59-72.9c1.41-2.73,5.48-1.71,5.48,1.36ZM287.64,1967.35v-300.55c0-.48.12-.96.34-1.38l44.74-85.34v.02s.02-.02.02-.02l44.75,85.34c.22.43.34.9.34,1.38v300.55c0,1.63-1.3,2.94-2.9,2.94h-84.38c-1.6,0-2.9-1.32-2.9-2.94ZM287.64,1649.2v-144.58c0-3.08,4.07-4.09,5.48-1.36l37.59,72.9c.44.86.44,1.89,0,2.75l-37.59,71.68c-1.42,2.71-5.47,1.69-5.47-1.38ZM332.7,1392.12l44.78,85c.22.43.34.9.34,1.39v8.29c0,.48-.11.94-.33,1.36l-42.19,81.83c-1.09,2.11-4.06,2.11-5.15,0l-42.19-81.83c-.22-.42-.33-.89-.33-1.36v-8.29c0-.48.12-.96.34-1.39l44.72-85M287.64,1460.91v-143.09c0-3.08,4.07-4.09,5.48-1.36l37.2,72.15c.44.86.44,1.89,0,2.75l-37.2,70.94c-1.42,2.71-5.47,1.69-5.47-1.38ZM287.64,1291.69c0-.48.12-.96.34-1.38l44.74-85.34v.02s.02-.02.02-.02l44.75,85.34c.22.43.34.9.34,1.38v8.29c0,.47-.11.94-.33,1.36l-44.39,86.09-.36.77-.4-.77-44.39-86.09c-.22-.42-.33-.89-.33-1.36v-8.29ZM287.64,1274.1v-144.58c0-3.08,4.07-4.09,5.48-1.36l37.59,72.9c.44.86.44,1.89,0,2.75l-37.59,71.68c-1.42,2.71-5.47,1.69-5.47-1.38ZM287.64,1111.68v-249.45c0-.48.12-.96.34-1.38l44.74-85.34v.02s.02-.02.02-.02l44.75,85.34c.22.43.34.9.34,1.38v249.45c0,.47-.11.94-.33,1.36l-42.19,81.84c-1.09,2.11-4.06,2.11-5.15,0l-42.19-81.84c-.22-.42-.33-.89-.33-1.36ZM287.64,844.63v-144.58c0-3.08,4.07-4.09,5.48-1.36l37.59,72.9c.44.86.44,1.89,0,2.75l-37.59,71.68c-1.42,2.71-5.47,1.69-5.47-1.38ZM287.64,682.22v-8.29c0-.48.12-.96.34-1.38l44.36-84.59.39-.77.4.77,44.36,84.59c.22.43.34.9.34,1.38v8.29c0,.48-.11.94-.33,1.36l-42.19,81.83c-1.09,2.11-4.06,2.11-5.15,0l-42.19-81.83c-.22-.42-.33-.89-.33-1.36ZM287.64,656.33v-143.09c0-3.08,4.07-4.09,5.48-1.36l37.2,72.15c.44.86.44,1.89,0,2.75l-37.2,70.94c-1.42,2.71-5.47,1.69-5.47-1.38ZM287.64,487.12c0-.48.12-.96.34-1.38l44.74-85.34v.02s.02-.02.02-.02l44.75,85.34c.22.43.34.9.34,1.38v8.29c0,.47-.11.94-.33,1.36l-44.39,86.09-.38.74-.37-.74-44.39-86.09c-.22-.42-.33-.89-.33-1.36v-8.29ZM287.64,469.52v-144.58c0-3.08,4.07-4.09,5.48-1.36l37.59,72.9c.44.86.44,1.89,0,2.75l-37.59,71.68c-1.42,2.71-5.47,1.69-5.47-1.38ZM287.64,307.11V18.77c0-1.63,1.3-2.94,2.9-2.94h84.38c1.6,0,2.9,1.32,2.9,2.94v288.34c0,.47-.11.94-.33,1.36l-42.19,81.84c-1.09,2.11-4.06,2.11-5.15,0l-42.19-81.84c-.22-.42-.33-.89-.33-1.36Z"/>
  <path class="cls-3" d="M840.47,16.39v1953.33c0,1.63,1.3,2.94,2.9,2.94h89.06c.27,0,.53-.05.77-.12v.12s3.66,0,3.66,0V13.45s-3.66,0-3.66,0v.12c-.25-.07-.5-.12-.77-.12h-89.06c-1.6,0-2.9,1.32-2.9,2.94ZM933,469.52c0,3.07-4.05,4.09-5.47,1.38l-37.59-71.68c-.45-.86-.45-1.89,0-2.75l37.59-72.9c1.41-2.73,5.48-1.71,5.48,1.36v144.58ZM933,656.33c0,3.07-4.05,4.09-5.47,1.38l-37.2-70.94c-.45-.86-.45-1.89,0-2.75l37.2-72.15c1.41-2.73,5.48-1.71,5.48,1.36v143.1ZM933,844.63c0,3.07-4.05,4.09-5.47,1.38l-37.59-71.68c-.45-.86-.45-1.89,0-2.75l37.59-72.9c1.41-2.73,5.48-1.71,5.48,1.36v144.58ZM933,1274.1c0,3.07-4.05,4.09-5.47,1.38l-37.59-71.68c-.45-.86-.45-1.89,0-2.75l37.59-72.9c1.41-2.73,5.48-1.71,5.48,1.36v144.58ZM933,1460.91c0,3.07-4.05,4.09-5.47,1.38l-37.2-70.94c-.45-.86-.45-1.89,0-2.75l37.2-72.15c1.41-2.73,5.48-1.71,5.48,1.36v143.1ZM933,1649.21c0,3.07-4.05,4.09-5.47,1.38l-37.59-71.69c-.45-.86-.45-1.88,0-2.75l37.59-72.9c1.41-2.73,5.48-1.71,5.48,1.36v144.59ZM842.81,1666.8c0-.48.12-.96.34-1.38l44.74-85.34v.02s.02-.02.02-.02l44.75,85.34c.22.43.34.9.34,1.38v300.55c0,1.63-1.3,2.94-2.9,2.94h-84.38c-1.6,0-2.9-1.32-2.9-2.94v-300.55ZM842.81,1504.62c0-3.08,4.07-4.09,5.48-1.36l37.59,72.9c.44.86.44,1.89,0,2.75l-37.59,71.68c-1.42,2.71-5.47,1.69-5.47-1.38v-144.58ZM842.81,1478.51c0-.48.12-.96.34-1.39l44.72-85,44.78,85c.22.43.34.9.34,1.39v8.29c0,.47-.11.94-.33,1.36l-42.19,81.83c-1.09,2.11-4.06,2.11-5.15,0l-42.19-81.83c-.22-.42-.33-.89-.33-1.36v-8.29ZM842.81,1317.81c0-3.08,4.07-4.09,5.48-1.36l37.2,72.15c.44.86.44,1.89,0,2.75l-37.2,70.94c-1.42,2.71-5.47,1.69-5.47-1.38v-143.09ZM842.81,1291.69c0-.48.12-.96.34-1.38l44.74-85.34v.02s.02-.02.02-.02l44.75,85.34c.22.43.34.9.34,1.38v8.29c0,.48-.11.94-.33,1.36l-44.39,86.09-.36.77-.4-.77-44.39-86.09c-.22-.42-.33-.89-.33-1.36v-8.29ZM842.81,1129.52c0-3.08,4.07-4.09,5.48-1.36l37.59,72.9c.44.86.44,1.89,0,2.75l-37.59,71.68c-1.42,2.71-5.47,1.69-5.47-1.38v-144.58ZM842.81,862.23c0-.48.12-.96.34-1.38l44.74-85.34v.02s.02-.02.02-.02l44.75,85.34c.22.43.34.9.34,1.38v249.45c0,.47-.11.94-.33,1.36l-42.19,81.84c-1.09,2.11-4.06,2.11-5.15,0l-42.19-81.84c-.22-.42-.33-.89-.33-1.36v-249.45ZM842.81,700.05c0-3.08,4.07-4.09,5.48-1.36l37.59,72.9c.44.86.44,1.89,0,2.75l-37.59,71.68c-1.42,2.71-5.47,1.69-5.47-1.38v-144.58ZM842.81,673.93c0-.48.12-.96.34-1.38l44.36-84.59.39-.77.4.77,44.36,84.59c.22.43.34.9.34,1.38v8.29c0,.48-.11.94-.33,1.36l-42.19,81.83c-1.09,2.11-4.06,2.11-5.15,0l-42.19-81.83c-.22-.42-.33-.89-.33-1.36v-8.29ZM842.81,513.24c0-3.08,4.07-4.09,5.48-1.36l37.2,72.15c.44.86.44,1.89,0,2.75l-37.2,70.94c-1.42,2.71-5.47,1.69-5.47-1.38v-143.09ZM842.81,487.12c0-.48.12-.96.34-1.38l44.74-85.34v.02s.02-.02.02-.02l44.75,85.34c.22.43.34.9.34,1.38v8.29c0,.47-.11.94-.33,1.36l-44.39,86.09-.38.74-.37-.74-44.39-86.09c-.22-.42-.33-.89-.33-1.36v-8.29ZM842.81,324.94c0-3.08,4.07-4.09,5.48-1.36l37.59,72.9c.44.86.44,1.89,0,2.75l-37.59,71.68c-1.42,2.71-5.47,1.69-5.47-1.38v-144.58ZM842.81,18.77c0-1.63,1.3-2.94,2.9-2.94h84.38c1.6,0,2.9,1.32,2.9,2.94v288.34c0,.47-.11.94-.33,1.36l-42.19,81.84c-1.09,2.11-4.06,2.11-5.15,0l-42.19-81.84c-.22-.42-.33-.89-.33-1.36V18.77Z"/>
  <path class="cls-3" d="M285.41,13.45h-89.06c-1.6,0-2.9,1.32-2.9,2.94v1953.33c0,1.63,1.3,2.94,2.9,2.94h89.06c1.6,0,2.9-1.32,2.9-2.94V16.39c0-1.63-1.3-2.94-2.9-2.94ZM285.98,324.94v144.58c0,3.07-4.05,4.09-5.47,1.38l-37.59-71.68c-.45-.86-.45-1.89,0-2.75l37.59-72.9c1.41-2.73,5.48-1.71,5.48,1.36ZM285.98,513.24v143.1c0,3.07-4.05,4.09-5.47,1.38l-37.2-70.94c-.45-.86-.45-1.89,0-2.75l37.2-72.15c1.41-2.73,5.48-1.71,5.48,1.36ZM285.98,700.05v144.58c0,3.07-4.05,4.09-5.47,1.38l-37.59-71.68c-.45-.86-.45-1.89,0-2.75l37.59-72.9c1.41-2.73,5.48-1.71,5.48,1.36ZM285.98,1129.52v144.58c0,3.07-4.05,4.09-5.47,1.38l-37.59-71.68c-.45-.86-.45-1.89,0-2.75l37.59-72.9c1.41-2.73,5.48-1.71,5.48,1.36ZM285.98,1317.81v143.1c0,3.07-4.05,4.09-5.47,1.38l-37.2-70.94c-.45-.86-.45-1.89,0-2.75l37.2-72.15c1.41-2.73,5.48-1.71,5.48,1.36ZM285.98,1504.62v144.59c0,3.07-4.05,4.09-5.47,1.38l-37.59-71.69c-.45-.86-.45-1.88,0-2.75l37.59-72.9c1.41-2.73,5.48-1.71,5.48,1.36ZM195.79,1967.35v-300.55c0-.48.12-.96.34-1.38l44.74-85.34v.02s.02-.02.02-.02l44.75,85.34c.22.43.34.9.34,1.38v300.55c0,1.63-1.3,2.94-2.9,2.94h-84.38c-1.6,0-2.9-1.32-2.9-2.94ZM195.79,1649.2v-144.58c0-3.08,4.07-4.09,5.48-1.36l37.59,72.9c.44.86.44,1.89,0,2.75l-37.59,71.68c-1.42,2.71-5.47,1.69-5.47-1.38ZM240.85,1392.12l44.78,85c.22.43.34.9.34,1.39v8.29c0,.48-.11.94-.33,1.36l-42.19,81.83c-1.09,2.11-4.06,2.11-5.15,0l-42.19-81.83c-.22-.42-.33-.89-.33-1.36v-8.29c0-.48.12-.96.34-1.39l44.72-85M195.79,1460.91v-143.09c0-3.08,4.07-4.09,5.48-1.36l37.2,72.15c.44.86.44,1.89,0,2.75l-37.2,70.94c-1.42,2.71-5.47,1.69-5.47-1.38ZM195.79,1291.69c0-.48.12-.96.34-1.38l44.74-85.34v.02s.02-.02.02-.02l44.75,85.34c.22.43.34.9.34,1.38v8.29c0,.47-.11.94-.33,1.36l-44.39,86.09-.36.77-.4-.77-44.39-86.09c-.22-.42-.33-.89-.33-1.36v-8.29ZM195.79,1274.1v-144.58c0-3.08,4.07-4.09,5.48-1.36l37.59,72.9c.44.86.44,1.89,0,2.75l-37.59,71.68c-1.42,2.71-5.47,1.69-5.47-1.38ZM195.79,1111.68v-249.45c0-.48.12-.96.34-1.38l44.74-85.34v.02s.02-.02.02-.02l44.75,85.34c.22.43.34.9.34,1.38v249.45c0,.47-.11.94-.33,1.36l-42.19,81.84c-1.09,2.11-4.06,2.11-5.15,0l-42.19-81.84c-.22-.42-.33-.89-.33-1.36ZM195.79,844.63v-144.58c0-3.08,4.07-4.09,5.48-1.36l37.59,72.9c.44.86.44,1.89,0,2.75l-37.59,71.68c-1.42,2.71-5.47,1.69-5.47-1.38ZM195.79,682.22v-8.29c0-.48.12-.96.34-1.38l44.36-84.59.39-.77.4.77,44.36,84.59c.22.43.34.9.34,1.38v8.29c0,.48-.11.94-.33,1.36l-42.19,81.83c-1.09,2.11-4.06,2.11-5.15,0l-42.19-81.83c-.22-.42-.33-.89-.33-1.36ZM195.79,656.33v-143.09c0-3.08,4.07-4.09,5.48-1.36l37.2,72.15c.44.86.44,1.89,0,2.75l-37.2,70.94c-1.42,2.71-5.47,1.69-5.47-1.38ZM195.79,487.12c0-.48.12-.96.34-1.38l44.74-85.34v.02s.02-.02.02-.02l44.75,85.34c.22.43.34.9.34,1.38v8.29c0,.47-.11.94-.33,1.36l-44.39,86.09-.38.74-.37-.74-44.39-86.09c-.22-.42-.33-.89-.33-1.36v-8.29ZM195.79,469.52v-144.58c0-3.08,4.07-4.09,5.48-1.36l37.59,72.9c.44.86.44,1.89,0,2.75l-37.59,71.68c-1.42,2.71-5.47,1.69-5.47-1.38ZM195.79,307.11V18.77c0-1.63,1.3-2.94,2.9-2.94h84.38c1.6,0,2.9,1.32,2.9,2.94v288.34c0,.47-.11.94-.33,1.36l-42.19,81.84c-1.09,2.11-4.06,2.11-5.15,0l-42.19-81.84c-.22-.42-.33-.89-.33-1.36Z"/>
  <path class="cls-3" d="M192.84,13.45h-89.06c-1.6,0-2.9,1.32-2.9,2.94v1953.33c0,1.63,1.3,2.94,2.9,2.94h89.06c1.6,0,2.9-1.32,2.9-2.94V16.39c0-1.63-1.3-2.94-2.9-2.94ZM193.4,324.94v144.58c0,3.07-4.05,4.09-5.47,1.38l-37.59-71.68c-.45-.86-.45-1.89,0-2.75l37.59-72.9c1.41-2.73,5.48-1.71,5.48,1.36ZM193.4,513.24v143.1c0,3.07-4.05,4.09-5.47,1.38l-37.2-70.94c-.45-.86-.45-1.89,0-2.75l37.2-72.15c1.41-2.73,5.48-1.71,5.48,1.36ZM193.4,700.05v144.58c0,3.07-4.05,4.09-5.47,1.38l-37.59-71.68c-.45-.86-.45-1.89,0-2.75l37.59-72.9c1.41-2.73,5.48-1.71,5.48,1.36ZM193.4,1129.52v144.58c0,3.07-4.05,4.09-5.47,1.38l-37.59-71.68c-.45-.86-.45-1.89,0-2.75l37.59-72.9c1.41-2.73,5.48-1.71,5.48,1.36ZM193.4,1317.81v143.1c0,3.07-4.05,4.09-5.47,1.38l-37.2-70.94c-.45-.86-.45-1.89,0-2.75l37.2-72.15c1.41-2.73,5.48-1.71,5.48,1.36ZM193.4,1504.62v144.59c0,3.07-4.05,4.09-5.47,1.38l-37.59-71.69c-.45-.86-.45-1.88,0-2.75l37.59-72.9c1.41-2.73,5.48-1.71,5.48,1.36ZM103.22,1967.35v-300.55c0-.48.12-.96.34-1.38l44.74-85.34v.02s.02-.02.02-.02l44.75,85.34c.22.43.34.9.34,1.38v300.55c0,1.63-1.3,2.94-2.9,2.94h-84.38c-1.6,0-2.9-1.32-2.9-2.94ZM103.22,1649.2v-144.58c0-3.08,4.07-4.09,5.48-1.36l37.59,72.9c.44.86.44,1.89,0,2.75l-37.59,71.68c-1.42,2.71-5.47,1.69-5.47-1.38ZM148.28,1392.12l44.78,85c.22.43.34.9.34,1.39v8.29c0,.48-.11.94-.33,1.36l-42.19,81.83c-1.09,2.11-4.06,2.11-5.15,0l-42.19-81.83c-.22-.42-.33-.89-.33-1.36v-8.29c0-.48.12-.96.34-1.39l44.72-85M103.22,1460.91v-143.09c0-3.08,4.07-4.09,5.48-1.36l37.2,72.15c.44.86.44,1.89,0,2.75l-37.2,70.94c-1.42,2.71-5.47,1.69-5.47-1.38ZM103.22,1291.69c0-.48.12-.96.34-1.38l44.74-85.34v.02s.02-.02.02-.02l44.75,85.34c.22.43.34.9.34,1.38v8.29c0,.47-.11.94-.33,1.36l-44.39,86.09-.36.77-.4-.77-44.39-86.09c-.22-.42-.33-.89-.33-1.36v-8.29ZM103.22,1274.1v-144.58c0-3.08,4.07-4.09,5.48-1.36l37.59,72.9c.44.86.44,1.89,0,2.75l-37.59,71.68c-1.42,2.71-5.47,1.69-5.47-1.38ZM103.22,1111.68v-249.45c0-.48.12-.96.34-1.38l44.74-85.34v.02s.02-.02.02-.02l44.75,85.34c.22.43.34.9.34,1.38v249.45c0,.47-.11.94-.33,1.36l-42.19,81.84c-1.09,2.11-4.06,2.11-5.15,0l-42.19-81.84c-.22-.42-.33-.89-.33-1.36ZM103.22,844.63v-144.58c0-3.08,4.07-4.09,5.48-1.36l37.59,72.9c.44.86.44,1.89,0,2.75l-37.59,71.68c-1.42,2.71-5.47,1.69-5.47-1.38ZM103.22,682.22v-8.29c0-.48.12-.96.34-1.38l44.36-84.59.39-.77.4.77,44.36,84.59c.22.43.34.9.34,1.38v8.29c0,.48-.11.94-.33,1.36l-42.19,81.83c-1.09,2.11-4.06,2.11-5.15,0l-42.19-81.83c-.22-.42-.33-.89-.33-1.36ZM103.22,656.33v-143.09c0-3.08,4.07-4.09,5.48-1.36l37.2,72.15c.44.86.44,1.89,0,2.75l-37.2,70.94c-1.42,2.71-5.47,1.69-5.47-1.38ZM103.22,487.12c0-.48.12-.96.34-1.38l44.74-85.34v.02s.02-.02.02-.02l44.75,85.34c.22.43.34.9.34,1.38v8.29c0,.47-.11.94-.33,1.36l-44.39,86.09-.38.74-.37-.74-44.39-86.09c-.22-.42-.33-.89-.33-1.36v-8.29ZM103.22,469.52v-144.58c0-3.08,4.07-4.09,5.48-1.36l37.59,72.9c.44.86.44,1.89,0,2.75l-37.59,71.68c-1.42,2.71-5.47,1.69-5.47-1.38ZM103.22,307.11V18.77c0-1.63,1.3-2.94,2.9-2.94h84.38c1.6,0,2.9,1.32,2.9,2.94v288.34c0,.47-.11.94-.33,1.36l-42.19,81.84c-1.09,2.11-4.06,2.11-5.15,0l-42.19-81.84c-.22-.42-.33-.89-.33-1.36Z"/>
  <path class="cls-3" d="M100.99,13.45H11.93c-1.6,0-2.9,1.32-2.9,2.94v1953.33c0,1.63,1.3,2.94,2.9,2.94h89.06c1.6,0,2.9-1.32,2.9-2.94V16.39c0-1.63-1.3-2.94-2.9-2.94ZM101.56,324.94v144.58c0,3.07-4.05,4.09-5.47,1.38l-37.59-71.68c-.45-.86-.45-1.89,0-2.75l37.59-72.9c1.41-2.73,5.48-1.71,5.48,1.36ZM101.56,513.24v143.1c0,3.07-4.05,4.09-5.47,1.38l-37.2-70.94c-.45-.86-.45-1.89,0-2.75l37.2-72.15c1.41-2.73,5.48-1.71,5.48,1.36ZM101.56,700.05v144.58c0,3.07-4.05,4.09-5.47,1.38l-37.59-71.68c-.45-.86-.45-1.89,0-2.75l37.59-72.9c1.41-2.73,5.48-1.71,5.48,1.36ZM101.56,1129.52v144.58c0,3.07-4.05,4.09-5.47,1.38l-37.59-71.68c-.45-.86-.45-1.89,0-2.75l37.59-72.9c1.41-2.73,5.48-1.71,5.48,1.36ZM101.56,1317.81v143.1c0,3.07-4.05,4.09-5.47,1.38l-37.2-70.94c-.45-.86-.45-1.89,0-2.75l37.2-72.15c1.41-2.73,5.48-1.71,5.48,1.36ZM101.56,1504.62v144.59c0,3.07-4.05,4.09-5.47,1.38l-37.59-71.69c-.45-.86-.45-1.88,0-2.75l37.59-72.9c1.41-2.73,5.48-1.71,5.48,1.36ZM11.37,1967.35v-300.55c0-.48.12-.96.34-1.38l44.74-85.34v.02s.02-.02.02-.02l44.75,85.34c.22.43.34.9.34,1.38v300.55c0,1.63-1.3,2.94-2.9,2.94H14.27c-1.6,0-2.9-1.32-2.9-2.94ZM11.37,1649.2v-144.58c0-3.08,4.07-4.09,5.48-1.36l37.59,72.9c.44.86.44,1.89,0,2.75l-37.59,71.68c-1.42,2.71-5.47,1.69-5.47-1.38ZM56.43,1392.12l44.78,85c.22.43.34.9.34,1.39v8.29c0,.48-.11.94-.33,1.36l-42.19,81.83c-1.09,2.11-4.06,2.11-5.15,0l-42.19-81.83c-.22-.42-.33-.89-.33-1.36v-8.29c0-.48.12-.96.34-1.39l44.72-85M11.37,1460.91v-143.09c0-3.08,4.07-4.09,5.48-1.36l37.2,72.15c.44.86.44,1.89,0,2.75l-37.2,70.94c-1.42,2.71-5.47,1.69-5.47-1.38ZM11.37,1291.69c0-.48.12-.96.34-1.38l44.74-85.34v.02s.02-.02.02-.02l44.75,85.34c.22.43.34.9.34,1.38v8.29c0,.47-.11.94-.33,1.36l-44.39,86.09-.36.77-.4-.77-44.39-86.09c-.22-.42-.33-.89-.33-1.36v-8.29ZM11.37,1274.1v-144.58c0-3.08,4.07-4.09,5.48-1.36l37.59,72.9c.44.86.44,1.89,0,2.75l-37.59,71.68c-1.42,2.71-5.47,1.69-5.47-1.38ZM11.37,1111.68v-249.45c0-.48.12-.96.34-1.38l44.74-85.34v.02s.02-.02.02-.02l44.75,85.34c.22.43.34.9.34,1.38v249.45c0,.47-.11.94-.33,1.36l-42.19,81.84c-1.09,2.11-4.06,2.11-5.15,0l-42.19-81.84c-.22-.42-.33-.89-.33-1.36ZM11.37,844.63v-144.58c0-3.08,4.07-4.09,5.48-1.36l37.59,72.9c.44.86.44,1.89,0,2.75l-37.59,71.68c-1.42,2.71-5.47,1.69-5.47-1.38ZM11.37,682.22v-8.29c0-.48.12-.96.34-1.38l44.36-84.59.39-.77.4.77,44.36,84.59c.22.43.34.9.34,1.38v8.29c0,.48-.11.94-.33,1.36l-42.19,81.83c-1.09,2.11-4.06,2.11-5.15,0l-42.19-81.83c-.22-.42-.33-.89-.33-1.36ZM11.37,656.33v-143.09c0-3.08,4.07-4.09,5.48-1.36l37.2,72.15c.44.86.44,1.89,0,2.75l-37.2,70.94c-1.42,2.71-5.47,1.69-5.47-1.38ZM11.37,487.12c0-.48.12-.96.34-1.38l44.74-85.34v.02s.02-.02.02-.02l44.75,85.34c.22.43.34.9.34,1.38v8.29c0,.47-.11.94-.33,1.36l-44.39,86.09-.38.74-.37-.74-44.39-86.09c-.22-.42-.33-.89-.33-1.36v-8.29ZM11.37,469.52v-144.58c0-3.08,4.07-4.09,5.48-1.36l37.59,72.9c.44.86.44,1.89,0,2.75l-37.59,71.68c-1.42,2.71-5.47,1.69-5.47-1.38ZM11.37,307.11V18.77c0-1.63,1.3-2.94,2.9-2.94h84.38c1.6,0,2.9,1.32,2.9,2.94v288.34c0,.47-.11.94-.33,1.36l-42.19,81.84c-1.09,2.11-4.06,2.11-5.15,0l-42.19-81.84c-.22-.42-.33-.89-.33-1.36Z"/>
  <path class="cls-3" d="M908.09,909.65v159.44c0,.71.76,1.29,1.71,1.29h5.57c.7,0,1.32.32,1.58.81,4.04,7.51,11.08,12.49,19.11,12.49.27,0,.54-.01.81-.01v-189.29c-.27-.01-.54-.02-.81-.02-8.27,0-15.5,5.28-19.47,13.16-.25.51-.88.85-1.59.85h-5.2c-.95,0-1.71.57-1.71,1.28Z"/>
</svg>