<?xml version="1.0" encoding="UTF-8"?>
<svg id="Layer_1" data-name="Layer 1" xmlns="http://www.w3.org/2000/svg" viewBox="0 0 1781.36 447.82">
  <defs>
    <style>
      .cls-1 {
        fill: #c8bdb3;
      }
    </style>
  </defs>
  <rect class="cls-1" x="744.16" y="387.99" width="12.59" height="12.59"/>
  <rect class="cls-1" x="731.57" y="387.99" width="12.59" height="12.59"/>
  <rect class="cls-1" x="718.98" y="375.4" width="12.59" height="12.59"/>
  <rect class="cls-1" x="706.39" y="387.99" width="12.59" height="12.59"/>
  <rect class="cls-1" x="693.8" y="387.99" width="12.59" height="12.59"/>
  <rect class="cls-1" x="681.22" y="387.99" width="12.58" height="12.59"/>
  <rect class="cls-1" x="668.62" y="387.99" width="12.59" height="12.59"/>
  <rect class="cls-1" x="656.03" y="375.4" width="12.59" height="12.59"/>
  <rect class="cls-1" x="643.44" y="375.4" width="12.59" height="12.59"/>
  <rect class="cls-1" x="630.85" y="362.8" width="12.59" height="12.59"/>
  <rect class="cls-1" x="618.26" y="375.4" width="12.59" height="12.59"/>
  <rect class="cls-1" x="618.26" y="362.8" width="12.59" height="12.59"/>
  <rect class="cls-1" x="605.68" y="387.99" width="12.58" height="12.59"/>
  <rect class="cls-1" x="605.68" y="350.22" width="12.58" height="12.58"/>
  <rect class="cls-1" x="593.08" y="400.58" width="12.59" height="12.59"/>
  <rect class="cls-1" x="593.08" y="337.63" width="12.59" height="12.59"/>
  <rect class="cls-1" x="580.49" y="413.17" width="12.59" height="12.59"/>
  <rect class="cls-1" x="580.49" y="325.04" width="12.59" height="12.59"/>
  <rect class="cls-1" x="567.9" y="413.17" width="12.59" height="12.59"/>
  <rect class="cls-1" x="555.31" y="425.76" width="12.59" height="12.59"/>
  <rect class="cls-1" x="542.72" y="425.76" width="12.59" height="12.59"/>
  <rect class="cls-1" x="744.16" y="60.65" width="12.59" height="12.59"/>
  <rect class="cls-1" x="731.57" y="60.65" width="12.59" height="12.59"/>
  <rect class="cls-1" x="718.98" y="35.46" width="12.59" height="12.59"/>
  <rect class="cls-1" x="718.98" y="22.87" width="12.59" height="12.59"/>
  <rect class="cls-1" x="718.98" y="10.28" width="12.59" height="12.59"/>
  <rect class="cls-1" x="718.98" y="48.05" width="12.59" height="12.59"/>
  <rect class="cls-1" x="718.98" y="73.24" width="12.59" height="12.59"/>
  <rect class="cls-1" x="706.39" y="60.65" width="12.59" height="12.59"/>
  <rect class="cls-1" x="693.8" y="60.65" width="12.59" height="12.59"/>
  <rect class="cls-1" x="681.22" y="60.65" width="12.58" height="12.59"/>
  <rect class="cls-1" x="668.62" y="60.65" width="12.59" height="12.59"/>
  <rect class="cls-1" x="656.03" y="73.24" width="12.59" height="12.59"/>
  <rect class="cls-1" x="643.44" y="73.24" width="12.59" height="12.59"/>
  <rect class="cls-1" x="630.85" y="85.83" width="12.59" height="12.59"/>
  <rect class="cls-1" x="618.26" y="73.24" width="12.59" height="12.59"/>
  <rect class="cls-1" x="618.26" y="85.83" width="12.59" height="12.59"/>
  <rect class="cls-1" x="605.68" y="60.65" width="12.58" height="12.59"/>
  <rect class="cls-1" x="605.68" y="98.42" width="12.58" height="12.58"/>
  <rect class="cls-1" x="593.08" y="48.05" width="12.59" height="12.59"/>
  <rect class="cls-1" x="593.08" y="111" width="12.59" height="12.59"/>
  <rect class="cls-1" x="580.49" y="35.46" width="12.59" height="12.59"/>
  <rect class="cls-1" x="580.49" y="123.59" width="12.59" height="12.59"/>
  <rect class="cls-1" x="567.9" y="35.46" width="12.59" height="12.59"/>
  <rect class="cls-1" x="567.9" y="136.19" width="12.59" height="12.59"/>
  <rect class="cls-1" x="567.9" y="148.78" width="12.59" height="12.59"/>
  <rect class="cls-1" x="567.9" y="161.37" width="12.59" height="12.59"/>
  <rect class="cls-1" x="555.31" y="22.87" width="12.59" height="12.59"/>
  <rect class="cls-1" x="542.72" y="22.87" width="12.59" height="12.59"/>
  <rect class="cls-1" x="416.35" y="387.99" width="12.59" height="12.59"/>
  <rect class="cls-1" x="428.95" y="375.4" width="12.59" height="12.59"/>
  <rect class="cls-1" x="441.54" y="375.4" width="12.59" height="12.59"/>
  <rect class="cls-1" x="454.13" y="362.8" width="12.59" height="12.59"/>
  <rect class="cls-1" x="466.72" y="375.4" width="12.59" height="12.59"/>
  <rect class="cls-1" x="466.72" y="362.8" width="12.59" height="12.59"/>
  <rect class="cls-1" x="479.31" y="387.99" width="12.58" height="12.59"/>
  <rect class="cls-1" x="491.89" y="400.58" width="12.59" height="12.59"/>
  <rect class="cls-1" x="504.49" y="413.17" width="12.59" height="12.59"/>
  <rect class="cls-1" x="517.08" y="413.17" width="12.59" height="12.59"/>
  <rect class="cls-1" x="517.08" y="299.86" width="12.59" height="12.59"/>
  <rect class="cls-1" x="517.08" y="287.26" width="12.59" height="12.59"/>
  <rect class="cls-1" x="517.08" y="274.68" width="12.59" height="12.58"/>
  <rect class="cls-1" x="517.08" y="236.91" width="12.59" height="12.59"/>
  <rect class="cls-1" x="529.67" y="425.76" width="12.59" height="12.59"/>
  <rect class="cls-1" x="529.67" y="262.09" width="12.59" height="12.59"/>
  <rect class="cls-1" x="529.67" y="249.5" width="12.59" height="12.59"/>
  <rect class="cls-1" x="542.26" y="425.76" width="12.59" height="12.59"/>
  <rect class="cls-1" x="416.35" y="60.65" width="12.59" height="12.59"/>
  <rect class="cls-1" x="428.95" y="73.24" width="12.59" height="12.59"/>
  <rect class="cls-1" x="441.54" y="73.24" width="12.59" height="12.59"/>
  <rect class="cls-1" x="454.13" y="85.83" width="12.59" height="12.59"/>
  <rect class="cls-1" x="466.72" y="73.24" width="12.59" height="12.59"/>
  <rect class="cls-1" x="466.72" y="85.83" width="12.59" height="12.59"/>
  <rect class="cls-1" x="479.31" y="60.65" width="12.58" height="12.59"/>
  <rect class="cls-1" x="479.31" y="98.42" width="12.58" height="12.58"/>
  <rect class="cls-1" x="491.89" y="48.05" width="12.59" height="12.59"/>
  <rect class="cls-1" x="491.89" y="111" width="12.59" height="12.59"/>
  <rect class="cls-1" x="504.49" y="35.46" width="12.59" height="12.59"/>
  <rect class="cls-1" x="504.49" y="123.59" width="12.59" height="12.59"/>
  <rect class="cls-1" x="517.08" y="35.46" width="12.59" height="12.59"/>
  <rect class="cls-1" x="517.08" y="136.19" width="12.59" height="12.59"/>
  <rect class="cls-1" x="517.08" y="148.78" width="12.59" height="12.59"/>
  <rect class="cls-1" x="517.08" y="161.37" width="12.59" height="12.59"/>
  <rect class="cls-1" x="517.08" y="173.96" width="12.59" height="12.58"/>
  <rect class="cls-1" x="517.08" y="211.73" width="12.59" height="12.59"/>
  <rect class="cls-1" x="529.67" y="22.87" width="12.59" height="12.59"/>
  <rect class="cls-1" x="529.67" y="186.54" width="12.59" height="12.59"/>
  <rect class="cls-1" x="542.26" y="22.87" width="12.59" height="12.59"/>
  <rect class="cls-1" x="1109.74" y="387.99" width="12.59" height="12.59"/>
  <rect class="cls-1" x="1097.15" y="387.99" width="12.59" height="12.59"/>
  <rect class="cls-1" x="1084.57" y="387.99" width="12.58" height="12.59"/>
  <rect class="cls-1" x="1071.97" y="387.99" width="12.59" height="12.59"/>
  <rect class="cls-1" x="1059.38" y="375.4" width="12.59" height="12.59"/>
  <rect class="cls-1" x="1046.79" y="375.4" width="12.59" height="12.59"/>
  <rect class="cls-1" x="1034.2" y="362.8" width="12.59" height="12.59"/>
  <rect class="cls-1" x="1021.61" y="375.4" width="12.59" height="12.59"/>
  <rect class="cls-1" x="1021.61" y="362.8" width="12.59" height="12.59"/>
  <rect class="cls-1" x="1009.03" y="387.99" width="12.58" height="12.59"/>
  <rect class="cls-1" x="1009.03" y="350.22" width="12.58" height="12.58"/>
  <rect class="cls-1" x="996.43" y="400.58" width="12.59" height="12.59"/>
  <rect class="cls-1" x="996.43" y="337.63" width="12.59" height="12.59"/>
  <rect class="cls-1" x="983.84" y="413.17" width="12.59" height="12.59"/>
  <rect class="cls-1" x="983.84" y="325.04" width="12.59" height="12.59"/>
  <rect class="cls-1" x="971.25" y="413.17" width="12.59" height="12.59"/>
  <rect class="cls-1" x="971.25" y="312.45" width="12.59" height="12.59"/>
  <rect class="cls-1" x="971.25" y="299.86" width="12.59" height="12.59"/>
  <rect class="cls-1" x="971.25" y="287.26" width="12.59" height="12.59"/>
  <rect class="cls-1" x="971.25" y="274.68" width="12.59" height="12.58"/>
  <rect class="cls-1" x="958.66" y="425.76" width="12.59" height="12.59"/>
  <rect class="cls-1" x="946.07" y="425.76" width="12.59" height="12.59"/>
  <rect class="cls-1" x="946.07" y="236.91" width="12.59" height="12.59"/>
  <rect class="cls-1" x="1109.74" y="60.65" width="12.59" height="12.59"/>
  <rect class="cls-1" x="1097.15" y="60.65" width="12.59" height="12.59"/>
  <rect class="cls-1" x="1084.57" y="60.65" width="12.58" height="12.59"/>
  <rect class="cls-1" x="1071.97" y="60.65" width="12.59" height="12.59"/>
  <rect class="cls-1" x="1059.38" y="73.24" width="12.59" height="12.59"/>
  <rect class="cls-1" x="1046.79" y="73.24" width="12.59" height="12.59"/>
  <rect class="cls-1" x="1034.2" y="85.83" width="12.59" height="12.59"/>
  <rect class="cls-1" x="1021.61" y="73.24" width="12.59" height="12.59"/>
  <rect class="cls-1" x="1021.61" y="85.83" width="12.59" height="12.59"/>
  <rect class="cls-1" x="1009.03" y="60.65" width="12.58" height="12.59"/>
  <rect class="cls-1" x="1009.03" y="98.42" width="12.58" height="12.58"/>
  <rect class="cls-1" x="996.43" y="48.05" width="12.59" height="12.59"/>
  <rect class="cls-1" x="996.43" y="111" width="12.59" height="12.59"/>
  <rect class="cls-1" x="983.84" y="35.46" width="12.59" height="12.59"/>
  <rect class="cls-1" x="983.84" y="123.59" width="12.59" height="12.59"/>
  <rect class="cls-1" x="971.25" y="35.46" width="12.59" height="12.59"/>
  <rect class="cls-1" x="971.25" y="136.19" width="12.59" height="12.59"/>
  <rect class="cls-1" x="971.25" y="148.78" width="12.59" height="12.59"/>
  <rect class="cls-1" x="971.25" y="161.37" width="12.59" height="12.59"/>
  <rect class="cls-1" x="958.66" y="22.87" width="12.59" height="12.59"/>
  <rect class="cls-1" x="946.07" y="22.87" width="12.59" height="12.59"/>
  <rect class="cls-1" x="744.16" y="387.99" width="12.59" height="12.59"/>
  <rect class="cls-1" x="756.76" y="387.99" width="12.59" height="12.59"/>
  <rect class="cls-1" x="769.35" y="375.4" width="12.59" height="12.59"/>
  <rect class="cls-1" x="781.94" y="387.99" width="12.59" height="12.59"/>
  <rect class="cls-1" x="794.53" y="387.99" width="12.59" height="12.59"/>
  <rect class="cls-1" x="807.12" y="387.99" width="12.58" height="12.59"/>
  <rect class="cls-1" x="819.7" y="387.99" width="12.59" height="12.59"/>
  <rect class="cls-1" x="832.3" y="375.4" width="12.59" height="12.59"/>
  <rect class="cls-1" x="844.89" y="375.4" width="12.59" height="12.59"/>
  <rect class="cls-1" x="857.48" y="362.8" width="12.59" height="12.59"/>
  <rect class="cls-1" x="870.07" y="375.4" width="12.59" height="12.59"/>
  <rect class="cls-1" x="870.07" y="362.8" width="12.59" height="12.59"/>
  <rect class="cls-1" x="882.66" y="387.99" width="12.58" height="12.59"/>
  <rect class="cls-1" x="895.24" y="400.58" width="12.59" height="12.59"/>
  <rect class="cls-1" x="907.84" y="413.17" width="12.59" height="12.59"/>
  <rect class="cls-1" x="920.43" y="413.17" width="12.59" height="12.59"/>
  <rect class="cls-1" x="920.43" y="299.86" width="12.59" height="12.59"/>
  <rect class="cls-1" x="920.43" y="287.26" width="12.59" height="12.59"/>
  <rect class="cls-1" x="920.43" y="274.68" width="12.59" height="12.58"/>
  <rect class="cls-1" x="920.43" y="236.91" width="12.59" height="12.59"/>
  <rect class="cls-1" x="933.02" y="425.76" width="12.59" height="12.59"/>
  <rect class="cls-1" x="933.02" y="262.09" width="12.59" height="12.59"/>
  <rect class="cls-1" x="933.02" y="249.5" width="12.59" height="12.59"/>
  <rect class="cls-1" x="945.61" y="425.76" width="12.59" height="12.59"/>
  <rect class="cls-1" x="744.16" y="60.65" width="12.59" height="12.59"/>
  <rect class="cls-1" x="756.76" y="60.65" width="12.59" height="12.59"/>
  <rect class="cls-1" x="769.35" y="35.46" width="12.59" height="12.59"/>
  <rect class="cls-1" x="769.35" y="22.87" width="12.59" height="12.59"/>
  <rect class="cls-1" x="769.35" y="10.28" width="12.59" height="12.59"/>
  <rect class="cls-1" x="769.35" y="48.05" width="12.59" height="12.59"/>
  <rect class="cls-1" x="769.35" y="73.24" width="12.59" height="12.59"/>
  <rect class="cls-1" x="781.94" y="60.65" width="12.59" height="12.59"/>
  <rect class="cls-1" x="794.53" y="60.65" width="12.59" height="12.59"/>
  <rect class="cls-1" x="807.12" y="60.65" width="12.58" height="12.59"/>
  <rect class="cls-1" x="819.7" y="60.65" width="12.59" height="12.59"/>
  <rect class="cls-1" x="832.3" y="73.24" width="12.59" height="12.59"/>
  <rect class="cls-1" x="844.89" y="73.24" width="12.59" height="12.59"/>
  <rect class="cls-1" x="857.48" y="85.83" width="12.59" height="12.59"/>
  <rect class="cls-1" x="870.07" y="73.24" width="12.59" height="12.59"/>
  <rect class="cls-1" x="870.07" y="85.83" width="12.59" height="12.59"/>
  <rect class="cls-1" x="882.66" y="60.65" width="12.58" height="12.59"/>
  <rect class="cls-1" x="882.66" y="98.42" width="12.58" height="12.58"/>
  <rect class="cls-1" x="895.24" y="48.05" width="12.59" height="12.59"/>
  <rect class="cls-1" x="895.24" y="111" width="12.59" height="12.59"/>
  <rect class="cls-1" x="907.84" y="35.46" width="12.59" height="12.59"/>
  <rect class="cls-1" x="907.84" y="123.59" width="12.59" height="12.59"/>
  <rect class="cls-1" x="920.43" y="35.46" width="12.59" height="12.59"/>
  <rect class="cls-1" x="920.43" y="136.19" width="12.59" height="12.59"/>
  <rect class="cls-1" x="920.43" y="148.78" width="12.59" height="12.59"/>
  <rect class="cls-1" x="933.02" y="22.87" width="12.59" height="12.59"/>
  <rect class="cls-1" x="945.61" y="22.87" width="12.59" height="12.59"/>
  <rect class="cls-1" x="1147.51" y="387.99" width="12.59" height="12.59"/>
  <rect class="cls-1" x="1134.92" y="387.99" width="12.59" height="12.59"/>
  <rect class="cls-1" x="1122.33" y="375.4" width="12.59" height="12.59"/>
  <rect class="cls-1" x="1147.51" y="60.65" width="12.59" height="12.59"/>
  <rect class="cls-1" x="1134.92" y="60.65" width="12.59" height="12.59"/>
  <rect class="cls-1" x="1122.33" y="35.46" width="12.59" height="12.59"/>
  <rect class="cls-1" x="1122.33" y="22.87" width="12.59" height="12.59"/>
  <rect class="cls-1" x="1122.33" y="10.28" width="12.59" height="12.59"/>
  <rect class="cls-1" x="1122.33" y="48.05" width="12.59" height="12.59"/>
  <rect class="cls-1" x="1122.33" y="73.24" width="12.59" height="12.59"/>
  <rect class="cls-1" x="1537.87" y="387.99" width="38.72" height="12.59"/>
  <rect class="cls-1" x="1525.68" y="375.4" width="12.59" height="12.59"/>
  <rect class="cls-1" x="1513.09" y="387.99" width="12.59" height="12.59"/>
  <rect class="cls-1" x="1500.5" y="387.99" width="12.59" height="12.59"/>
  <rect class="cls-1" x="1487.92" y="387.99" width="12.58" height="12.59"/>
  <rect class="cls-1" x="1475.32" y="387.99" width="12.59" height="12.59"/>
  <rect class="cls-1" x="1462.73" y="375.4" width="12.59" height="12.59"/>
  <rect class="cls-1" x="1450.14" y="375.4" width="12.59" height="12.59"/>
  <rect class="cls-1" x="1437.55" y="362.8" width="12.59" height="12.59"/>
  <rect class="cls-1" x="1424.96" y="375.4" width="12.59" height="12.59"/>
  <rect class="cls-1" x="1424.96" y="362.8" width="12.59" height="12.59"/>
  <rect class="cls-1" x="1412.38" y="387.99" width="12.58" height="12.59"/>
  <rect class="cls-1" x="1412.38" y="350.22" width="12.58" height="12.58"/>
  <rect class="cls-1" x="1399.78" y="400.58" width="12.59" height="12.59"/>
  <rect class="cls-1" x="1399.78" y="337.63" width="12.59" height="12.59"/>
  <rect class="cls-1" x="1387.19" y="413.17" width="12.59" height="12.59"/>
  <rect class="cls-1" x="1387.19" y="325.04" width="12.59" height="12.59"/>
  <rect class="cls-1" x="1374.6" y="413.17" width="12.59" height="12.59"/>
  <rect class="cls-1" x="1374.6" y="312.45" width="12.59" height="12.59"/>
  <rect class="cls-1" x="1374.6" y="299.86" width="12.59" height="12.59"/>
  <rect class="cls-1" x="1374.6" y="287.26" width="12.59" height="12.59"/>
  <rect class="cls-1" x="1362.01" y="425.76" width="12.59" height="12.59"/>
  <rect class="cls-1" x="1349.42" y="425.76" width="12.59" height="12.59"/>
  <rect class="cls-1" x="1550.86" y="60.65" width="12.59" height="12.59"/>
  <rect class="cls-1" x="1538.27" y="60.65" width="12.59" height="12.59"/>
  <rect class="cls-1" x="1525.68" y="35.46" width="12.59" height="12.59"/>
  <rect class="cls-1" x="1525.68" y="22.87" width="12.59" height="12.59"/>
  <rect class="cls-1" x="1525.68" y="10.28" width="12.59" height="12.59"/>
  <rect class="cls-1" x="1525.68" y="48.05" width="12.59" height="12.59"/>
  <rect class="cls-1" x="1525.68" y="73.24" width="12.59" height="12.59"/>
  <rect class="cls-1" x="1513.09" y="60.65" width="12.59" height="12.59"/>
  <rect class="cls-1" x="1500.5" y="60.65" width="12.59" height="12.59"/>
  <rect class="cls-1" x="1487.92" y="60.65" width="12.58" height="12.59"/>
  <rect class="cls-1" x="1475.32" y="60.65" width="12.59" height="12.59"/>
  <rect class="cls-1" x="1462.73" y="73.24" width="12.59" height="12.59"/>
  <rect class="cls-1" x="1450.14" y="73.24" width="12.59" height="12.59"/>
  <rect class="cls-1" x="1437.55" y="85.83" width="12.59" height="12.59"/>
  <rect class="cls-1" x="1424.96" y="73.24" width="12.59" height="12.59"/>
  <rect class="cls-1" x="1424.96" y="85.83" width="12.59" height="12.59"/>
  <rect class="cls-1" x="1412.38" y="60.65" width="12.58" height="12.59"/>
  <rect class="cls-1" x="1412.38" y="98.42" width="12.58" height="12.58"/>
  <rect class="cls-1" x="1399.78" y="48.05" width="12.59" height="12.59"/>
  <rect class="cls-1" x="1399.78" y="111" width="12.59" height="12.59"/>
  <rect class="cls-1" x="1387.19" y="35.46" width="12.59" height="12.59"/>
  <rect class="cls-1" x="1387.19" y="123.59" width="12.59" height="12.59"/>
  <rect class="cls-1" x="1374.6" y="35.46" width="12.59" height="12.59"/>
  <rect class="cls-1" x="1374.6" y="136.19" width="12.59" height="12.59"/>
  <rect class="cls-1" x="1374.6" y="148.78" width="12.59" height="12.59"/>
  <rect class="cls-1" x="1374.6" y="161.37" width="12.59" height="12.59"/>
  <rect class="cls-1" x="1362.01" y="22.87" width="12.59" height="12.59"/>
  <rect class="cls-1" x="1349.42" y="22.87" width="12.59" height="12.59"/>
  <rect class="cls-1" x="1147.51" y="387.99" width="12.59" height="12.59"/>
  <rect class="cls-1" x="1160.11" y="387.99" width="12.59" height="12.59"/>
  <rect class="cls-1" x="1172.7" y="375.4" width="12.59" height="12.59"/>
  <rect class="cls-1" x="1185.29" y="387.99" width="12.59" height="12.59"/>
  <rect class="cls-1" x="1197.88" y="387.99" width="12.59" height="12.59"/>
  <rect class="cls-1" x="1210.47" y="387.99" width="12.58" height="12.59"/>
  <rect class="cls-1" x="1223.05" y="387.99" width="12.59" height="12.59"/>
  <rect class="cls-1" x="1235.65" y="375.4" width="12.59" height="12.59"/>
  <rect class="cls-1" x="1248.24" y="375.4" width="12.59" height="12.59"/>
  <rect class="cls-1" x="1260.83" y="362.8" width="12.59" height="12.59"/>
  <rect class="cls-1" x="1273.42" y="375.4" width="12.59" height="12.59"/>
  <rect class="cls-1" x="1273.42" y="362.8" width="12.59" height="12.59"/>
  <rect class="cls-1" x="1286.01" y="387.99" width="12.58" height="12.59"/>
  <rect class="cls-1" x="1286.01" y="350.22" width="12.58" height="12.58"/>
  <rect class="cls-1" x="1298.59" y="400.58" width="12.59" height="12.59"/>
  <rect class="cls-1" x="1298.59" y="337.63" width="12.59" height="12.59"/>
  <rect class="cls-1" x="1311.19" y="413.17" width="12.59" height="12.59"/>
  <rect class="cls-1" x="1311.19" y="325.04" width="12.59" height="12.59"/>
  <rect class="cls-1" x="1323.78" y="413.17" width="12.59" height="12.59"/>
  <rect class="cls-1" x="1323.78" y="312.45" width="12.59" height="12.59"/>
  <rect class="cls-1" x="1323.78" y="299.86" width="12.59" height="12.59"/>
  <rect class="cls-1" x="1323.78" y="287.26" width="12.59" height="12.59"/>
  <rect class="cls-1" x="1323.78" y="274.68" width="12.59" height="12.58"/>
  <rect class="cls-1" x="1323.78" y="236.91" width="12.59" height="12.59"/>
  <rect class="cls-1" x="1336.37" y="425.76" width="12.59" height="12.59"/>
  <rect class="cls-1" x="1336.37" y="262.09" width="12.59" height="12.59"/>
  <rect class="cls-1" x="1336.37" y="249.5" width="12.59" height="12.59"/>
  <rect class="cls-1" x="1348.96" y="425.76" width="12.59" height="12.59"/>
  <rect class="cls-1" x="1147.51" y="60.65" width="12.59" height="12.59"/>
  <rect class="cls-1" x="1160.11" y="60.65" width="12.59" height="12.59"/>
  <rect class="cls-1" x="1172.7" y="35.46" width="12.59" height="12.59"/>
  <rect class="cls-1" x="1172.7" y="22.87" width="12.59" height="12.59"/>
  <rect class="cls-1" x="1172.7" y="10.28" width="12.59" height="12.59"/>
  <rect class="cls-1" x="1172.7" y="48.05" width="12.59" height="12.59"/>
  <rect class="cls-1" x="1172.7" y="73.24" width="12.59" height="12.59"/>
  <rect class="cls-1" x="1185.29" y="60.65" width="12.59" height="12.59"/>
  <rect class="cls-1" x="1197.88" y="60.65" width="12.59" height="12.59"/>
  <rect class="cls-1" x="1210.47" y="60.65" width="12.58" height="12.59"/>
  <rect class="cls-1" x="1223.05" y="60.65" width="12.59" height="12.59"/>
  <rect class="cls-1" x="1235.65" y="73.24" width="12.59" height="12.59"/>
  <rect class="cls-1" x="1248.24" y="73.24" width="12.59" height="12.59"/>
  <rect class="cls-1" x="1260.83" y="85.83" width="12.59" height="12.59"/>
  <rect class="cls-1" x="1273.42" y="73.24" width="12.59" height="12.59"/>
  <rect class="cls-1" x="1273.42" y="85.83" width="12.59" height="12.59"/>
  <rect class="cls-1" x="1286.01" y="60.65" width="12.58" height="12.59"/>
  <rect class="cls-1" x="1286.01" y="98.42" width="12.58" height="12.58"/>
  <rect class="cls-1" x="1298.59" y="48.05" width="12.59" height="12.59"/>
  <rect class="cls-1" x="1298.59" y="111" width="12.59" height="12.59"/>
  <rect class="cls-1" x="1311.19" y="35.46" width="12.59" height="12.59"/>
  <rect class="cls-1" x="1311.19" y="123.59" width="12.59" height="12.59"/>
  <rect class="cls-1" x="1323.78" y="35.46" width="12.59" height="12.59"/>
  <rect class="cls-1" x="1323.78" y="136.19" width="12.59" height="12.59"/>
  <rect class="cls-1" x="1323.78" y="148.78" width="12.59" height="12.59"/>
  <rect class="cls-1" x="1323.78" y="161.37" width="12.59" height="12.59"/>
  <rect class="cls-1" x="1323.78" y="173.96" width="12.59" height="12.58"/>
  <rect class="cls-1" x="1323.78" y="211.73" width="12.59" height="12.59"/>
  <rect class="cls-1" x="1336.37" y="22.87" width="12.59" height="12.59"/>
  <rect class="cls-1" x="1348.96" y="22.87" width="12.59" height="12.59"/>
  <rect class="cls-1" x="340.2" y="387.79" width="12.59" height="12.59"/>
  <rect class="cls-1" x="327.61" y="387.79" width="12.59" height="12.59"/>
  <rect class="cls-1" x="315.02" y="375.2" width="12.59" height="12.59"/>
  <rect class="cls-1" x="302.43" y="387.79" width="12.59" height="12.59"/>
  <rect class="cls-1" x="289.84" y="387.79" width="12.59" height="12.59"/>
  <rect class="cls-1" x="277.26" y="387.79" width="12.58" height="12.59"/>
  <rect class="cls-1" x="264.66" y="387.79" width="12.59" height="12.59"/>
  <rect class="cls-1" x="252.07" y="375.2" width="12.59" height="12.59"/>
  <rect class="cls-1" x="239.48" y="375.2" width="12.59" height="12.59"/>
  <rect class="cls-1" x="226.89" y="362.6" width="12.59" height="12.59"/>
  <rect class="cls-1" x="214.3" y="375.2" width="12.59" height="12.59"/>
  <rect class="cls-1" x="214.3" y="362.6" width="12.59" height="12.59"/>
  <rect class="cls-1" x="201.72" y="387.79" width="12.58" height="12.59"/>
  <rect class="cls-1" x="201.72" y="350.02" width="12.58" height="12.58"/>
  <rect class="cls-1" x="189.13" y="400.38" width="12.59" height="12.59"/>
  <rect class="cls-1" x="189.13" y="337.43" width="12.59" height="12.59"/>
  <rect class="cls-1" x="176.53" y="412.97" width="12.59" height="12.59"/>
  <rect class="cls-1" x="176.53" y="324.84" width="12.59" height="12.59"/>
  <rect class="cls-1" x="163.94" y="412.97" width="12.59" height="12.59"/>
  <rect class="cls-1" x="163.94" y="312.25" width="12.59" height="12.59"/>
  <rect class="cls-1" x="163.94" y="299.66" width="12.59" height="12.59"/>
  <rect class="cls-1" x="163.94" y="287.07" width="12.59" height="12.59"/>
  <rect class="cls-1" x="163.94" y="274.48" width="12.59" height="12.58"/>
  <rect class="cls-1" x="163.94" y="236.71" width="12.59" height="12.59"/>
  <rect class="cls-1" x="151.35" y="425.56" width="12.59" height="12.59"/>
  <rect class="cls-1" x="151.35" y="261.89" width="12.59" height="12.59"/>
  <rect class="cls-1" x="151.35" y="249.3" width="12.59" height="12.59"/>
  <rect class="cls-1" x="138.76" y="425.56" width="12.59" height="12.59"/>
  <rect class="cls-1" x="138.76" y="236.71" width="12.59" height="12.59"/>
  <rect class="cls-1" x="340.2" y="60.45" width="12.59" height="12.59"/>
  <rect class="cls-1" x="327.61" y="60.45" width="12.59" height="12.59"/>
  <rect class="cls-1" x="315.02" y="35.26" width="12.59" height="12.59"/>
  <rect class="cls-1" x="315.02" y="22.67" width="12.59" height="12.59"/>
  <rect class="cls-1" x="315.02" y="10.08" width="12.59" height="12.59"/>
  <rect class="cls-1" x="315.02" y="47.85" width="12.59" height="12.59"/>
  <rect class="cls-1" x="315.02" y="73.04" width="12.59" height="12.59"/>
  <rect class="cls-1" x="302.43" y="60.45" width="12.59" height="12.59"/>
  <rect class="cls-1" x="289.84" y="60.45" width="12.59" height="12.59"/>
  <rect class="cls-1" x="277.26" y="60.45" width="12.58" height="12.59"/>
  <rect class="cls-1" x="264.66" y="60.45" width="12.59" height="12.59"/>
  <rect class="cls-1" x="252.07" y="73.04" width="12.59" height="12.59"/>
  <rect class="cls-1" x="239.48" y="73.04" width="12.59" height="12.59"/>
  <rect class="cls-1" x="226.89" y="85.63" width="12.59" height="12.59"/>
  <rect class="cls-1" x="214.3" y="73.04" width="12.59" height="12.59"/>
  <rect class="cls-1" x="214.3" y="85.63" width="12.59" height="12.59"/>
  <rect class="cls-1" x="201.72" y="60.45" width="12.58" height="12.59"/>
  <rect class="cls-1" x="201.72" y="98.22" width="12.58" height="12.58"/>
  <rect class="cls-1" x="189.13" y="47.85" width="12.59" height="12.59"/>
  <rect class="cls-1" x="189.13" y="110.8" width="12.59" height="12.59"/>
  <rect class="cls-1" x="176.53" y="35.26" width="12.59" height="12.59"/>
  <rect class="cls-1" x="176.53" y="123.39" width="12.59" height="12.59"/>
  <rect class="cls-1" x="163.94" y="35.26" width="12.59" height="12.59"/>
  <rect class="cls-1" x="163.94" y="135.99" width="12.59" height="12.59"/>
  <rect class="cls-1" x="163.94" y="148.58" width="12.59" height="12.59"/>
  <rect class="cls-1" x="163.94" y="161.17" width="12.59" height="12.59"/>
  <rect class="cls-1" x="163.94" y="173.76" width="12.59" height="12.58"/>
  <rect class="cls-1" x="163.94" y="211.53" width="12.59" height="12.59"/>
  <rect class="cls-1" x="151.35" y="22.67" width="12.59" height="12.59"/>
  <rect class="cls-1" x="151.35" y="186.34" width="12.59" height="12.59"/>
  <rect class="cls-1" x="151.35" y="198.93" width="12.59" height="12.59"/>
  <rect class="cls-1" x="138.76" y="22.67" width="12.59" height="12.59"/>
  <rect class="cls-1" x="138.76" y="211.53" width="12.59" height="12.59"/>
  <rect class="cls-1" x="12.39" y="387.79" width="12.59" height="12.59"/>
  <rect class="cls-1" x="24.99" y="375.2" width="12.59" height="12.59"/>
  <rect class="cls-1" x="37.58" y="375.2" width="12.59" height="12.59"/>
  <rect class="cls-1" x="50.17" y="362.6" width="12.59" height="12.59"/>
  <rect class="cls-1" x="62.76" y="375.2" width="12.59" height="12.59"/>
  <rect class="cls-1" x="62.76" y="362.6" width="12.59" height="12.59"/>
  <rect class="cls-1" x="75.35" y="387.79" width="12.58" height="12.59"/>
  <rect class="cls-1" x="75.35" y="350.02" width="12.58" height="12.58"/>
  <rect class="cls-1" x="87.93" y="400.38" width="12.59" height="12.59"/>
  <rect class="cls-1" x="87.93" y="337.43" width="12.59" height="12.59"/>
  <rect class="cls-1" x="100.53" y="412.97" width="12.59" height="12.59"/>
  <rect class="cls-1" x="100.53" y="324.84" width="12.59" height="12.59"/>
  <rect class="cls-1" x="113.12" y="412.97" width="12.59" height="12.59"/>
  <rect class="cls-1" x="113.12" y="312.25" width="12.59" height="12.59"/>
  <rect class="cls-1" x="113.12" y="299.66" width="12.59" height="12.59"/>
  <rect class="cls-1" x="113.12" y="287.07" width="12.59" height="12.59"/>
  <rect class="cls-1" x="113.12" y="274.48" width="12.59" height="12.58"/>
  <rect class="cls-1" x="113.12" y="236.71" width="12.59" height="12.59"/>
  <rect class="cls-1" x="125.71" y="425.56" width="12.59" height="12.59"/>
  <rect class="cls-1" x="125.71" y="261.89" width="12.59" height="12.59"/>
  <rect class="cls-1" x="125.71" y="249.3" width="12.59" height="12.59"/>
  <rect class="cls-1" x="138.3" y="425.56" width="12.59" height="12.59"/>
  <rect class="cls-1" x="12.39" y="60.45" width="12.59" height="12.59"/>
  <rect class="cls-1" x="24.99" y="73.04" width="12.59" height="12.59"/>
  <rect class="cls-1" x="37.58" y="73.04" width="12.59" height="12.59"/>
  <rect class="cls-1" x="50.17" y="85.63" width="12.59" height="12.59"/>
  <rect class="cls-1" x="62.76" y="73.04" width="12.59" height="12.59"/>
  <rect class="cls-1" x="62.76" y="85.63" width="12.59" height="12.59"/>
  <rect class="cls-1" x="75.35" y="60.45" width="12.58" height="12.59"/>
  <rect class="cls-1" x="75.35" y="98.22" width="12.58" height="12.58"/>
  <rect class="cls-1" x="87.93" y="47.85" width="12.59" height="12.59"/>
  <rect class="cls-1" x="87.93" y="110.8" width="12.59" height="12.59"/>
  <rect class="cls-1" x="100.53" y="35.26" width="12.59" height="12.59"/>
  <rect class="cls-1" x="100.53" y="123.39" width="12.59" height="12.59"/>
  <rect class="cls-1" x="113.12" y="35.26" width="12.59" height="12.59"/>
  <rect class="cls-1" x="113.12" y="135.99" width="12.59" height="12.59"/>
  <rect class="cls-1" x="113.12" y="148.58" width="12.59" height="12.59"/>
  <rect class="cls-1" x="113.12" y="161.17" width="12.59" height="12.59"/>
  <rect class="cls-1" x="113.12" y="173.76" width="12.59" height="12.58"/>
  <rect class="cls-1" x="113.12" y="211.53" width="12.59" height="12.59"/>
  <rect class="cls-1" x="125.71" y="22.67" width="12.59" height="12.59"/>
  <rect class="cls-1" x="125.71" y="186.34" width="12.59" height="12.59"/>
  <rect class="cls-1" x="125.71" y="198.93" width="12.59" height="12.59"/>
  <rect class="cls-1" x="138.3" y="22.67" width="12.59" height="12.59"/>
  <rect class="cls-1" x="340.2" y="387.79" width="12.59" height="12.59"/>
  <rect class="cls-1" x="352.8" y="387.79" width="12.59" height="12.59"/>
  <rect class="cls-1" x="365.39" y="375.2" width="12.59" height="12.59"/>
  <rect class="cls-1" x="377.98" y="387.79" width="12.59" height="12.59"/>
  <rect class="cls-1" x="390.57" y="387.79" width="12.59" height="12.59"/>
  <rect class="cls-1" x="403.16" y="387.79" width="12.58" height="12.59"/>
  <rect class="cls-1" x="415.74" y="387.79" width="12.59" height="12.59"/>
  <rect class="cls-1" x="340.2" y="60.45" width="12.59" height="12.59"/>
  <rect class="cls-1" x="352.8" y="60.45" width="12.59" height="12.59"/>
  <rect class="cls-1" x="365.39" y="35.26" width="12.59" height="12.59"/>
  <rect class="cls-1" x="365.39" y="22.67" width="12.59" height="12.59"/>
  <rect class="cls-1" x="365.39" y="10.08" width="12.59" height="12.59"/>
  <rect class="cls-1" x="365.39" y="47.85" width="12.59" height="12.59"/>
  <rect class="cls-1" x="365.39" y="73.04" width="12.59" height="12.59"/>
  <rect class="cls-1" x="377.98" y="60.45" width="12.59" height="12.59"/>
  <rect class="cls-1" x="390.57" y="60.45" width="12.59" height="12.59"/>
  <rect class="cls-1" x="403.16" y="60.45" width="12.58" height="12.59"/>
  <rect class="cls-1" x="415.74" y="60.45" width="12.59" height="12.59"/>
  <rect class="cls-1" x="1513" y="387.18" width="12.59" height="12.59"/>
  <rect class="cls-1" x="1500.41" y="387.18" width="12.59" height="12.59"/>
  <rect class="cls-1" x="1487.83" y="387.18" width="12.58" height="12.59"/>
  <rect class="cls-1" x="1475.24" y="387.18" width="12.59" height="12.59"/>
  <rect class="cls-1" x="1462.65" y="374.59" width="12.59" height="12.59"/>
  <rect class="cls-1" x="1450.06" y="374.59" width="12.59" height="12.59"/>
  <rect class="cls-1" x="1437.46" y="361.99" width="12.59" height="12.59"/>
  <rect class="cls-1" x="1424.87" y="374.59" width="12.59" height="12.59"/>
  <rect class="cls-1" x="1424.87" y="361.99" width="12.59" height="12.59"/>
  <rect class="cls-1" x="1412.29" y="387.18" width="12.58" height="12.59"/>
  <rect class="cls-1" x="1412.29" y="349.41" width="12.58" height="12.58"/>
  <rect class="cls-1" x="1399.7" y="399.77" width="12.59" height="12.59"/>
  <rect class="cls-1" x="1399.7" y="336.82" width="12.59" height="12.59"/>
  <rect class="cls-1" x="1387.11" y="412.36" width="12.59" height="12.59"/>
  <rect class="cls-1" x="1387.11" y="324.23" width="12.59" height="12.59"/>
  <rect class="cls-1" x="1374.52" y="412.36" width="12.59" height="12.59"/>
  <rect class="cls-1" x="1374.52" y="311.64" width="12.59" height="12.59"/>
  <rect class="cls-1" x="1374.52" y="299.05" width="12.59" height="12.59"/>
  <rect class="cls-1" x="1374.52" y="286.45" width="12.59" height="12.59"/>
  <rect class="cls-1" x="1361.92" y="424.95" width="12.59" height="12.59"/>
  <rect class="cls-1" x="1349.33" y="424.95" width="12.59" height="12.59"/>
  <rect class="cls-1" x="1513" y="59.83" width="12.59" height="12.59"/>
  <rect class="cls-1" x="1500.41" y="59.83" width="12.59" height="12.59"/>
  <rect class="cls-1" x="1487.83" y="59.83" width="12.58" height="12.59"/>
  <rect class="cls-1" x="1475.24" y="59.83" width="12.59" height="12.59"/>
  <rect class="cls-1" x="1462.65" y="72.43" width="12.59" height="12.59"/>
  <rect class="cls-1" x="1450.06" y="72.43" width="12.59" height="12.59"/>
  <rect class="cls-1" x="1437.46" y="85.02" width="12.59" height="12.59"/>
  <rect class="cls-1" x="1424.87" y="72.43" width="12.59" height="12.59"/>
  <rect class="cls-1" x="1424.87" y="85.02" width="12.59" height="12.59"/>
  <rect class="cls-1" x="1412.29" y="59.83" width="12.58" height="12.59"/>
  <rect class="cls-1" x="1412.29" y="97.61" width="12.58" height="12.58"/>
  <rect class="cls-1" x="1399.7" y="47.24" width="12.59" height="12.59"/>
  <rect class="cls-1" x="1399.7" y="110.19" width="12.59" height="12.59"/>
  <rect class="cls-1" x="1387.11" y="34.65" width="12.59" height="12.59"/>
  <rect class="cls-1" x="1387.11" y="122.78" width="12.59" height="12.59"/>
  <rect class="cls-1" x="1374.52" y="34.65" width="12.59" height="12.59"/>
  <rect class="cls-1" x="1374.52" y="135.37" width="12.59" height="12.59"/>
  <rect class="cls-1" x="1374.52" y="147.97" width="12.59" height="12.59"/>
  <rect class="cls-1" x="1374.52" y="160.56" width="12.59" height="12.59"/>
  <rect class="cls-1" x="1361.92" y="22.06" width="12.59" height="12.59"/>
  <rect class="cls-1" x="1349.33" y="22.06" width="12.59" height="12.59"/>
  <rect class="cls-1" x="1348.88" y="424.95" width="12.59" height="12.59"/>
  <rect class="cls-1" x="1348.88" y="22.06" width="12.59" height="12.59"/>
  <rect class="cls-1" x="1525.6" y="374.59" width="12.59" height="12.59"/>
  <rect class="cls-1" x="1550.78" y="59.83" width="12.59" height="12.59"/>
  <rect class="cls-1" x="1538.19" y="59.83" width="12.59" height="12.59"/>
  <rect class="cls-1" x="1525.6" y="34.65" width="12.59" height="12.59"/>
  <rect class="cls-1" x="1525.6" y="22.06" width="12.59" height="12.59"/>
  <rect class="cls-1" x="1525.6" y="9.47" width="12.59" height="12.59"/>
  <rect class="cls-1" x="1525.6" y="47.24" width="12.59" height="12.59"/>
  <rect class="cls-1" x="1525.6" y="72.43" width="12.59" height="12.59"/>
  <rect class="cls-1" x="1752.68" y="424.95" width="12.59" height="12.59"/>
  <rect class="cls-1" x="1752.68" y="236.1" width="12.59" height="12.59"/>
  <rect class="cls-1" x="1752.68" y="22.06" width="12.59" height="12.59"/>
  <rect class="cls-1" x="1752.68" y="210.91" width="12.59" height="12.59"/>
  <rect class="cls-1" x="1575.96" y="374.59" width="12.59" height="12.59"/>
  <rect class="cls-1" x="1588.55" y="387.18" width="12.59" height="12.59"/>
  <rect class="cls-1" x="1601.15" y="387.18" width="12.59" height="12.59"/>
  <rect class="cls-1" x="1613.74" y="387.18" width="12.58" height="12.59"/>
  <rect class="cls-1" x="1626.32" y="387.18" width="12.59" height="12.59"/>
  <rect class="cls-1" x="1638.91" y="374.59" width="12.59" height="12.59"/>
  <rect class="cls-1" x="1651.5" y="374.59" width="12.59" height="12.59"/>
  <rect class="cls-1" x="1664.09" y="361.99" width="12.59" height="12.59"/>
  <rect class="cls-1" x="1676.69" y="374.59" width="12.59" height="12.59"/>
  <rect class="cls-1" x="1676.69" y="361.99" width="12.59" height="12.59"/>
  <rect class="cls-1" x="1689.28" y="387.18" width="12.58" height="12.59"/>
  <rect class="cls-1" x="1689.28" y="349.41" width="12.58" height="12.58"/>
  <rect class="cls-1" x="1701.86" y="399.77" width="12.59" height="12.59"/>
  <rect class="cls-1" x="1701.86" y="336.82" width="12.59" height="12.59"/>
  <rect class="cls-1" x="1714.45" y="412.36" width="12.59" height="12.59"/>
  <rect class="cls-1" x="1714.45" y="324.23" width="12.59" height="12.59"/>
  <rect class="cls-1" x="1727.04" y="412.36" width="12.59" height="12.59"/>
  <rect class="cls-1" x="1727.04" y="311.64" width="12.59" height="12.59"/>
  <rect class="cls-1" x="1727.04" y="299.05" width="12.59" height="12.59"/>
  <rect class="cls-1" x="1727.04" y="286.45" width="12.59" height="12.59"/>
  <rect class="cls-1" x="1727.04" y="273.87" width="12.59" height="12.58"/>
  <rect class="cls-1" x="1727.04" y="236.1" width="12.59" height="12.59"/>
  <rect class="cls-1" x="1739.63" y="424.95" width="12.59" height="12.59"/>
  <rect class="cls-1" x="1739.63" y="261.28" width="12.59" height="12.59"/>
  <rect class="cls-1" x="1739.63" y="248.69" width="12.59" height="12.59"/>
  <rect class="cls-1" x="1752.23" y="424.95" width="12.59" height="12.59"/>
  <rect class="cls-1" x="1550.78" y="59.83" width="12.59" height="12.59"/>
  <rect class="cls-1" x="1563.37" y="59.83" width="12.59" height="12.59"/>
  <rect class="cls-1" x="1575.96" y="34.65" width="12.59" height="12.59"/>
  <rect class="cls-1" x="1575.96" y="22.06" width="12.59" height="12.59"/>
  <rect class="cls-1" x="1575.96" y="9.47" width="12.59" height="12.59"/>
  <rect class="cls-1" x="1575.96" y="47.24" width="12.59" height="12.59"/>
  <rect class="cls-1" x="1575.96" y="72.43" width="12.59" height="12.59"/>
  <rect class="cls-1" x="1588.55" y="59.83" width="12.59" height="12.59"/>
  <rect class="cls-1" x="1601.15" y="59.83" width="12.59" height="12.59"/>
  <rect class="cls-1" x="1613.74" y="59.83" width="12.58" height="12.59"/>
  <rect class="cls-1" x="1626.32" y="59.83" width="12.59" height="12.59"/>
  <rect class="cls-1" x="1638.91" y="72.43" width="12.59" height="12.59"/>
  <rect class="cls-1" x="1651.5" y="72.43" width="12.59" height="12.59"/>
  <rect class="cls-1" x="1664.09" y="85.02" width="12.59" height="12.59"/>
  <rect class="cls-1" x="1676.69" y="72.43" width="12.59" height="12.59"/>
  <rect class="cls-1" x="1676.69" y="85.02" width="12.59" height="12.59"/>
  <rect class="cls-1" x="1689.28" y="59.83" width="12.58" height="12.59"/>
  <rect class="cls-1" x="1689.28" y="97.61" width="12.58" height="12.58"/>
  <rect class="cls-1" x="1701.86" y="47.24" width="12.59" height="12.59"/>
  <rect class="cls-1" x="1701.86" y="110.19" width="12.59" height="12.59"/>
  <rect class="cls-1" x="1714.45" y="34.65" width="12.59" height="12.59"/>
  <rect class="cls-1" x="1714.45" y="122.78" width="12.59" height="12.59"/>
  <rect class="cls-1" x="1727.04" y="34.65" width="12.59" height="12.59"/>
  <rect class="cls-1" x="1727.04" y="135.37" width="12.59" height="12.59"/>
  <rect class="cls-1" x="1727.04" y="147.97" width="12.59" height="12.59"/>
  <rect class="cls-1" x="1727.04" y="160.56" width="12.59" height="12.59"/>
  <rect class="cls-1" x="1727.04" y="173.15" width="12.59" height="12.58"/>
  <rect class="cls-1" x="1727.04" y="210.91" width="12.59" height="12.59"/>
  <rect class="cls-1" x="1739.63" y="22.06" width="12.59" height="12.59"/>
  <rect class="cls-1" x="1739.63" y="185.73" width="12.59" height="12.59"/>
  <rect class="cls-1" x="1739.63" y="198.32" width="12.59" height="12.59"/>
  <rect class="cls-1" x="1752.23" y="22.06" width="12.59" height="12.59"/>
</svg>