<?xml version="1.0" encoding="UTF-8"?>
<svg id="Layer_1" data-name="Layer 1" xmlns="http://www.w3.org/2000/svg" viewBox="0 0 1781.36 447.82">
  <defs>
    <style>
      .cls-1 {
        fill: #c8bdb3;
      }
    </style>
  </defs>
  <g>
    <rect class="cls-1" x="1336.37" y="186.54" width="12.59" height="12.59"/>
    <rect class="cls-1" x="1336.37" y="199.13" width="12.59" height="12.59"/>
    <rect class="cls-1" x="1374.52" y="273.87" width="12.59" height="12.58"/>
    <rect class="cls-1" x="1374.52" y="236.1" width="12.59" height="12.59"/>
    <rect class="cls-1" x="1361.92" y="261.28" width="12.59" height="12.59"/>
    <rect class="cls-1" x="1361.92" y="248.69" width="12.59" height="12.59"/>
    <rect class="cls-1" x="1349.33" y="236.1" width="12.59" height="12.59"/>
    <rect class="cls-1" x="1374.52" y="173.15" width="12.59" height="12.58"/>
    <rect class="cls-1" x="1374.52" y="210.91" width="12.59" height="12.59"/>
    <rect class="cls-1" x="1361.92" y="185.73" width="12.59" height="12.59"/>
    <rect class="cls-1" x="1361.92" y="198.32" width="12.59" height="12.59"/>
  </g>
  <g>
    <rect class="cls-1" x="971.25" y="236.91" width="12.59" height="12.59"/>
    <rect class="cls-1" x="958.66" y="262.09" width="12.59" height="12.59"/>
    <rect class="cls-1" x="958.66" y="249.5" width="12.59" height="12.59"/>
    <rect class="cls-1" x="971.25" y="173.96" width="12.59" height="12.58"/>
    <rect class="cls-1" x="971.25" y="211.73" width="12.59" height="12.59"/>
    <rect class="cls-1" x="958.66" y="186.54" width="12.59" height="12.59"/>
    <rect class="cls-1" x="958.66" y="199.13" width="12.59" height="12.59"/>
    <rect class="cls-1" x="946.07" y="211.73" width="12.59" height="12.59"/>
    <rect class="cls-1" x="882.66" y="350.22" width="12.58" height="12.58"/>
    <rect class="cls-1" x="895.24" y="337.63" width="12.59" height="12.59"/>
    <rect class="cls-1" x="907.84" y="325.04" width="12.59" height="12.59"/>
    <rect class="cls-1" x="920.43" y="312.45" width="12.59" height="12.59"/>
    <rect class="cls-1" x="920.43" y="161.37" width="12.59" height="12.59"/>
    <rect class="cls-1" x="920.43" y="173.96" width="12.59" height="12.58"/>
    <rect class="cls-1" x="920.43" y="211.73" width="12.59" height="12.59"/>
    <rect class="cls-1" x="933.02" y="186.54" width="12.59" height="12.59"/>
    <rect class="cls-1" x="933.02" y="199.13" width="12.59" height="12.59"/>
  </g>
  <g>
    <rect class="cls-1" x="567.9" y="274.68" width="12.59" height="12.58"/>
    <rect class="cls-1" x="567.9" y="236.91" width="12.59" height="12.59"/>
    <rect class="cls-1" x="555.31" y="262.09" width="12.59" height="12.59"/>
    <rect class="cls-1" x="555.31" y="249.5" width="12.59" height="12.59"/>
    <rect class="cls-1" x="542.72" y="236.91" width="12.59" height="12.59"/>
    <rect class="cls-1" x="567.9" y="173.96" width="12.59" height="12.58"/>
    <rect class="cls-1" x="567.9" y="211.73" width="12.59" height="12.59"/>
    <rect class="cls-1" x="555.31" y="186.54" width="12.59" height="12.59"/>
    <rect class="cls-1" x="555.31" y="199.13" width="12.59" height="12.59"/>
    <rect class="cls-1" x="542.72" y="211.73" width="12.59" height="12.59"/>
    <rect class="cls-1" x="479.31" y="350.22" width="12.58" height="12.58"/>
    <rect class="cls-1" x="491.89" y="337.63" width="12.59" height="12.59"/>
    <rect class="cls-1" x="504.49" y="325.04" width="12.59" height="12.59"/>
    <rect class="cls-1" x="517.08" y="312.45" width="12.59" height="12.59"/>
    <rect class="cls-1" x="529.67" y="199.13" width="12.59" height="12.59"/>
  </g>
  <rect class="cls-1" x="567.9" y="312.45" width="12.59" height="12.59"/>
  <rect class="cls-1" x="567.9" y="299.86" width="12.59" height="12.59"/>
  <rect class="cls-1" x="567.9" y="287.26" width="12.59" height="12.59"/>
</svg>