<?xml version="1.0" encoding="UTF-8"?>
<svg id="Layer_1" data-name="Layer 1" xmlns="http://www.w3.org/2000/svg" viewBox="0 0 783.47 757.69">
  <defs>
    <style>
      .cls-1 {
        fill: #c8bdb3;
      }
    </style>
  </defs>
  <rect class="cls-1" x="781.22" y="366.14" width="24.4" height="24.42"/>
  <rect class="cls-1" x="781.22" y="341.74" width="24.4" height="24.4"/>
  <rect class="cls-1" x="781.22" y="317.32" width="24.4" height="24.42"/>
  <rect class="cls-1" x="756.8" y="292.92" width="24.42" height="24.4"/>
  <rect class="cls-1" x="634.76" y="292.92" width="24.4" height="24.4"/>
  <rect class="cls-1" x="707.98" y="268.5" width="24.42" height="24.42"/>
  <rect class="cls-1" x="683.58" y="268.5" width="24.4" height="24.42"/>
  <rect class="cls-1" x="659.16" y="268.5" width="24.42" height="24.42"/>
  <rect class="cls-1" x="610.34" y="292.92" width="24.42" height="24.4"/>
  <rect class="cls-1" x="659.16" y="0" width="24.42" height="24.4"/>
  <rect class="cls-1" x="683.58" y="24.4" width="24.4" height="24.42"/>
  <rect class="cls-1" x="707.98" y="24.4" width="24.42" height="24.42"/>
  <rect class="cls-1" x="732.4" y="48.82" width="24.4" height="24.4"/>
  <rect class="cls-1" x="756.8" y="73.22" width="24.42" height="24.42"/>
  <rect class="cls-1" x="756.8" y="97.64" width="24.42" height="24.4"/>
  <rect class="cls-1" x="781.22" y="122.04" width="24.4" height="24.42"/>
  <rect class="cls-1" x="634.76" y="0" width="24.4" height="24.4"/>
  <rect class="cls-1" x="781.22" y="146.46" width="24.4" height="24.4"/>
  <rect class="cls-1" x="781.22" y="170.86" width="24.4" height="24.42"/>
  <rect class="cls-1" x="781.22" y="195.28" width="24.4" height="24.4"/>
  <rect class="cls-1" x="781.22" y="219.68" width="24.4" height="24.42"/>
  <rect class="cls-1" x="781.22" y="244.1" width="24.4" height="24.4"/>
  <rect class="cls-1" x="732.4" y="292.92" width="24.4" height="24.4"/>
  <rect class="cls-1" x="756.8" y="268.5" width="24.42" height="24.42"/>
  <rect class="cls-1" x="707.98" y="317.32" width="24.42" height="24.42"/>
  <rect class="cls-1" x="683.58" y="341.74" width="24.4" height="24.4"/>
  <rect class="cls-1" x="659.16" y="366.14" width="24.42" height="24.42"/>
  <rect class="cls-1" x="634.76" y="366.14" width="24.4" height="24.42"/>
  <rect class="cls-1" x="610.34" y="366.14" width="24.42" height="24.42"/>
  <rect class="cls-1" x="610.34" y="0" width="24.42" height="24.4"/>
  <rect class="cls-1" x="585.94" y="0" width="24.4" height="24.4"/>
  <rect class="cls-1" x="537.12" y="73.22" width="24.4" height="24.42"/>
  <rect class="cls-1" x="488.3" y="24.4" width="24.4" height="24.42"/>
  <rect class="cls-1" x="415.06" y="97.64" width="24.42" height="24.4"/>
  <rect class="cls-1" x="390.66" y="170.86" width="24.4" height="24.42"/>
  <rect class="cls-1" x="390.66" y="146.46" width="24.4" height="24.4"/>
  <rect class="cls-1" x="390.66" y="122.04" width="24.4" height="24.42"/>
  <rect class="cls-1" x="415.06" y="73.22" width="24.42" height="24.42"/>
  <rect class="cls-1" x="439.48" y="48.82" width="24.4" height="24.4"/>
  <rect class="cls-1" x="463.88" y="24.4" width="24.42" height="24.42"/>
  <rect class="cls-1" x="512.7" y="0" width="24.42" height="24.4"/>
  <rect class="cls-1" x="537.12" y="0" width="24.4" height="24.4"/>
  <rect class="cls-1" x="561.52" y="0" width="24.42" height="24.4"/>
  <rect class="cls-1" x="561.52" y="24.4" width="24.42" height="24.42"/>
  <rect class="cls-1" x="561.52" y="48.82" width="24.42" height="24.4"/>
  <rect class="cls-1" x="537.12" y="97.64" width="24.4" height="24.4"/>
  <rect class="cls-1" x="512.7" y="122.04" width="24.42" height="24.42"/>
  <rect class="cls-1" x="488.3" y="146.46" width="24.4" height="24.4"/>
  <rect class="cls-1" x="463.88" y="146.46" width="24.42" height="24.4"/>
  <rect class="cls-1" x="561.52" y="366.14" width="24.42" height="24.42"/>
  <rect class="cls-1" x="537.12" y="366.14" width="24.4" height="24.42"/>
  <rect class="cls-1" x="512.7" y="366.14" width="24.42" height="24.42"/>
  <rect class="cls-1" x="585.94" y="366.14" width="24.4" height="24.42"/>
  <rect class="cls-1" x="585.94" y="341.74" width="24.4" height="24.4"/>
  <rect class="cls-1" x="585.94" y="317.32" width="24.4" height="24.42"/>
  <rect class="cls-1" x="561.52" y="292.92" width="24.42" height="24.4"/>
  <rect class="cls-1" x="561.52" y="268.5" width="24.42" height="24.42"/>
  <rect class="cls-1" x="537.12" y="244.1" width="24.4" height="24.4"/>
  <rect class="cls-1" x="512.7" y="219.68" width="24.42" height="24.42"/>
  <rect class="cls-1" x="488.3" y="341.74" width="24.4" height="24.4"/>
  <rect class="cls-1" x="488.3" y="195.28" width="24.4" height="24.4"/>
  <rect class="cls-1" x="463.88" y="317.32" width="24.42" height="24.42"/>
  <rect class="cls-1" x="463.88" y="195.28" width="24.42" height="24.4"/>
  <rect class="cls-1" x="439.48" y="292.92" width="24.4" height="24.4"/>
  <rect class="cls-1" x="439.48" y="170.86" width="24.4" height="24.42"/>
  <rect class="cls-1" x="415.06" y="268.5" width="24.42" height="24.42"/>
  <rect class="cls-1" x="415.06" y="170.86" width="24.42" height="24.42"/>
  <rect class="cls-1" x="390.66" y="244.1" width="24.4" height="24.4"/>
  <rect class="cls-1" x="390.66" y="219.68" width="24.4" height="24.42"/>
  <rect class="cls-1" x="390.66" y="195.28" width="24.4" height="24.4"/>
  <rect class="cls-1" x="781.22" y="390.56" width="24.4" height="24.4"/>
  <rect class="cls-1" x="781.22" y="414.96" width="24.4" height="24.42"/>
  <rect class="cls-1" x="756.8" y="439.38" width="24.42" height="24.4"/>
  <rect class="cls-1" x="634.76" y="439.38" width="24.4" height="24.4"/>
  <rect class="cls-1" x="707.98" y="463.78" width="24.42" height="24.42"/>
  <rect class="cls-1" x="683.58" y="463.78" width="24.4" height="24.42"/>
  <rect class="cls-1" x="659.16" y="463.78" width="24.42" height="24.42"/>
  <rect class="cls-1" x="610.34" y="439.38" width="24.42" height="24.4"/>
  <rect class="cls-1" x="659.16" y="732.3" width="24.42" height="24.4"/>
  <rect class="cls-1" x="683.58" y="707.88" width="24.4" height="24.42"/>
  <rect class="cls-1" x="707.98" y="707.88" width="24.42" height="24.42"/>
  <rect class="cls-1" x="732.4" y="683.48" width="24.4" height="24.4"/>
  <rect class="cls-1" x="756.8" y="659.06" width="24.42" height="24.42"/>
  <rect class="cls-1" x="756.8" y="634.66" width="24.42" height="24.4"/>
  <rect class="cls-1" x="781.22" y="610.24" width="24.4" height="24.42"/>
  <rect class="cls-1" x="634.76" y="732.3" width="24.4" height="24.4"/>
  <rect class="cls-1" x="781.22" y="585.84" width="24.4" height="24.4"/>
  <rect class="cls-1" x="781.22" y="561.42" width="24.4" height="24.42"/>
  <rect class="cls-1" x="781.22" y="537.02" width="24.4" height="24.4"/>
  <rect class="cls-1" x="781.22" y="512.6" width="24.4" height="24.42"/>
  <rect class="cls-1" x="781.22" y="488.2" width="24.4" height="24.4"/>
  <rect class="cls-1" x="732.4" y="439.38" width="24.4" height="24.4"/>
  <rect class="cls-1" x="756.8" y="463.78" width="24.42" height="24.42"/>
  <rect class="cls-1" x="707.98" y="414.96" width="24.42" height="24.42"/>
  <rect class="cls-1" x="683.58" y="390.56" width="24.4" height="24.4"/>
  <rect class="cls-1" x="610.34" y="732.3" width="24.42" height="24.4"/>
  <rect class="cls-1" x="585.94" y="732.3" width="24.4" height="24.4"/>
  <rect class="cls-1" x="537.12" y="659.06" width="24.4" height="24.42"/>
  <rect class="cls-1" x="488.3" y="707.88" width="24.4" height="24.42"/>
  <rect class="cls-1" x="415.06" y="634.66" width="24.42" height="24.4"/>
  <rect class="cls-1" x="390.66" y="561.42" width="24.4" height="24.42"/>
  <rect class="cls-1" x="390.66" y="585.84" width="24.4" height="24.4"/>
  <rect class="cls-1" x="390.66" y="610.24" width="24.4" height="24.42"/>
  <rect class="cls-1" x="415.06" y="659.06" width="24.42" height="24.42"/>
  <rect class="cls-1" x="439.48" y="683.48" width="24.4" height="24.4"/>
  <rect class="cls-1" x="463.88" y="707.88" width="24.42" height="24.42"/>
  <rect class="cls-1" x="512.7" y="732.3" width="24.42" height="24.4"/>
  <rect class="cls-1" x="537.12" y="732.3" width="24.4" height="24.4"/>
  <rect class="cls-1" x="561.52" y="732.3" width="24.42" height="24.4"/>
  <rect class="cls-1" x="561.52" y="707.88" width="24.42" height="24.42"/>
  <rect class="cls-1" x="561.52" y="683.48" width="24.42" height="24.4"/>
  <rect class="cls-1" x="537.12" y="634.66" width="24.4" height="24.4"/>
  <rect class="cls-1" x="512.7" y="610.24" width="24.42" height="24.42"/>
  <rect class="cls-1" x="488.3" y="585.84" width="24.4" height="24.4"/>
  <rect class="cls-1" x="463.88" y="585.84" width="24.42" height="24.4"/>
  <rect class="cls-1" x="585.94" y="390.56" width="24.4" height="24.4"/>
  <rect class="cls-1" x="585.94" y="414.96" width="24.4" height="24.42"/>
  <rect class="cls-1" x="561.52" y="439.38" width="24.42" height="24.4"/>
  <rect class="cls-1" x="561.52" y="463.78" width="24.42" height="24.42"/>
  <rect class="cls-1" x="537.12" y="488.2" width="24.4" height="24.4"/>
  <rect class="cls-1" x="512.7" y="512.6" width="24.42" height="24.42"/>
  <rect class="cls-1" x="488.3" y="390.56" width="24.4" height="24.4"/>
  <rect class="cls-1" x="488.3" y="537.02" width="24.4" height="24.4"/>
  <rect class="cls-1" x="463.88" y="414.96" width="24.42" height="24.42"/>
  <rect class="cls-1" x="463.88" y="537.02" width="24.42" height="24.4"/>
  <rect class="cls-1" x="439.48" y="439.38" width="24.4" height="24.4"/>
  <rect class="cls-1" x="439.48" y="561.42" width="24.4" height="24.42"/>
  <rect class="cls-1" x="415.06" y="463.78" width="24.42" height="24.42"/>
  <rect class="cls-1" x="415.06" y="561.42" width="24.42" height="24.42"/>
  <rect class="cls-1" x="390.66" y="488.2" width="24.4" height="24.4"/>
  <rect class="cls-1" x="390.66" y="512.6" width="24.4" height="24.42"/>
  <rect class="cls-1" x="390.66" y="537.02" width="24.4" height="24.4"/>
  <rect class="cls-1" x="0" y="366.14" width="24.4" height="24.42"/>
  <rect class="cls-1" x="0" y="341.74" width="24.4" height="24.4"/>
  <rect class="cls-1" x="0" y="317.32" width="24.4" height="24.42"/>
  <rect class="cls-1" x="24.4" y="292.92" width="24.42" height="24.4"/>
  <rect class="cls-1" x="146.46" y="292.92" width="24.4" height="24.4"/>
  <rect class="cls-1" x="73.22" y="268.5" width="24.42" height="24.42"/>
  <rect class="cls-1" x="97.64" y="268.5" width="24.4" height="24.42"/>
  <rect class="cls-1" x="122.04" y="268.5" width="24.42" height="24.42"/>
  <rect class="cls-1" x="170.86" y="292.92" width="24.42" height="24.4"/>
  <rect class="cls-1" x="122.04" y="0" width="24.42" height="24.4"/>
  <rect class="cls-1" x="97.64" y="24.4" width="24.4" height="24.42"/>
  <rect class="cls-1" x="73.22" y="24.4" width="24.42" height="24.42"/>
  <rect class="cls-1" x="48.82" y="48.82" width="24.4" height="24.4"/>
  <rect class="cls-1" x="24.4" y="73.22" width="24.42" height="24.42"/>
  <rect class="cls-1" x="24.4" y="97.64" width="24.42" height="24.4"/>
  <rect class="cls-1" x="0" y="122.04" width="24.4" height="24.42"/>
  <rect class="cls-1" x="146.46" y="0" width="24.4" height="24.4"/>
  <rect class="cls-1" x="0" y="146.46" width="24.4" height="24.4"/>
  <rect class="cls-1" x="0" y="170.86" width="24.4" height="24.42"/>
  <rect class="cls-1" x="0" y="195.28" width="24.4" height="24.4"/>
  <rect class="cls-1" x="0" y="219.68" width="24.4" height="24.42"/>
  <rect class="cls-1" x="0" y="244.1" width="24.4" height="24.4"/>
  <rect class="cls-1" x="48.82" y="292.92" width="24.4" height="24.4"/>
  <rect class="cls-1" x="24.4" y="268.5" width="24.42" height="24.42"/>
  <rect class="cls-1" x="73.22" y="317.32" width="24.42" height="24.42"/>
  <rect class="cls-1" x="97.64" y="341.74" width="24.4" height="24.4"/>
  <rect class="cls-1" x="122.04" y="366.14" width="24.42" height="24.42"/>
  <rect class="cls-1" x="146.46" y="366.14" width="24.4" height="24.42"/>
  <rect class="cls-1" x="170.86" y="366.14" width="24.42" height="24.42"/>
  <rect class="cls-1" x="170.86" y="0" width="24.42" height="24.4"/>
  <rect class="cls-1" x="195.28" y="0" width="24.4" height="24.4"/>
  <rect class="cls-1" x="244.1" y="73.22" width="24.4" height="24.42"/>
  <rect class="cls-1" x="292.92" y="24.4" width="24.4" height="24.42"/>
  <rect class="cls-1" x="366.14" y="97.64" width="24.42" height="24.4"/>
  <rect class="cls-1" x="366.14" y="73.22" width="24.42" height="24.42"/>
  <rect class="cls-1" x="341.74" y="48.82" width="24.4" height="24.4"/>
  <rect class="cls-1" x="317.32" y="24.4" width="24.42" height="24.42"/>
  <rect class="cls-1" x="268.5" y="0" width="24.42" height="24.4"/>
  <rect class="cls-1" x="244.1" y="0" width="24.4" height="24.4"/>
  <rect class="cls-1" x="219.68" y="0" width="24.42" height="24.4"/>
  <rect class="cls-1" x="219.68" y="24.4" width="24.42" height="24.42"/>
  <rect class="cls-1" x="219.68" y="48.82" width="24.42" height="24.4"/>
  <rect class="cls-1" x="244.1" y="97.64" width="24.4" height="24.4"/>
  <rect class="cls-1" x="268.5" y="122.04" width="24.42" height="24.42"/>
  <rect class="cls-1" x="292.92" y="146.46" width="24.4" height="24.4"/>
  <rect class="cls-1" x="317.32" y="146.46" width="24.42" height="24.4"/>
  <rect class="cls-1" x="219.68" y="366.14" width="24.42" height="24.42"/>
  <rect class="cls-1" x="244.1" y="366.14" width="24.4" height="24.42"/>
  <rect class="cls-1" x="268.5" y="366.14" width="24.42" height="24.42"/>
  <rect class="cls-1" x="195.28" y="366.14" width="24.4" height="24.42"/>
  <rect class="cls-1" x="195.28" y="341.74" width="24.4" height="24.4"/>
  <rect class="cls-1" x="195.28" y="317.32" width="24.4" height="24.42"/>
  <rect class="cls-1" x="219.68" y="292.92" width="24.42" height="24.4"/>
  <rect class="cls-1" x="219.68" y="268.5" width="24.42" height="24.42"/>
  <rect class="cls-1" x="244.1" y="244.1" width="24.4" height="24.4"/>
  <rect class="cls-1" x="268.5" y="219.68" width="24.42" height="24.42"/>
  <rect class="cls-1" x="292.92" y="341.74" width="24.4" height="24.4"/>
  <rect class="cls-1" x="292.92" y="195.28" width="24.4" height="24.4"/>
  <rect class="cls-1" x="317.32" y="317.32" width="24.42" height="24.42"/>
  <rect class="cls-1" x="317.32" y="195.28" width="24.42" height="24.4"/>
  <rect class="cls-1" x="341.74" y="292.92" width="24.4" height="24.4"/>
  <rect class="cls-1" x="341.74" y="170.86" width="24.4" height="24.42"/>
  <rect class="cls-1" x="366.14" y="268.5" width="24.42" height="24.42"/>
  <rect class="cls-1" x="366.14" y="170.86" width="24.42" height="24.42"/>
  <rect class="cls-1" x="0" y="390.56" width="24.4" height="24.4"/>
  <rect class="cls-1" x="0" y="414.96" width="24.4" height="24.42"/>
  <rect class="cls-1" x="24.4" y="439.38" width="24.42" height="24.4"/>
  <rect class="cls-1" x="146.46" y="439.38" width="24.4" height="24.4"/>
  <rect class="cls-1" x="73.22" y="463.78" width="24.42" height="24.42"/>
  <rect class="cls-1" x="97.64" y="463.78" width="24.4" height="24.42"/>
  <rect class="cls-1" x="122.04" y="463.78" width="24.42" height="24.42"/>
  <rect class="cls-1" x="170.86" y="439.38" width="24.42" height="24.4"/>
  <rect class="cls-1" x="122.04" y="732.3" width="24.42" height="24.4"/>
  <rect class="cls-1" x="97.64" y="707.88" width="24.4" height="24.42"/>
  <rect class="cls-1" x="73.22" y="707.88" width="24.42" height="24.42"/>
  <rect class="cls-1" x="48.82" y="683.48" width="24.4" height="24.4"/>
  <rect class="cls-1" x="24.4" y="659.06" width="24.42" height="24.42"/>
  <rect class="cls-1" x="24.4" y="634.66" width="24.42" height="24.4"/>
  <rect class="cls-1" x="0" y="610.24" width="24.4" height="24.42"/>
  <rect class="cls-1" x="146.46" y="732.3" width="24.4" height="24.4"/>
  <rect class="cls-1" x="0" y="585.84" width="24.4" height="24.4"/>
  <rect class="cls-1" x="0" y="561.42" width="24.4" height="24.42"/>
  <rect class="cls-1" x="0" y="537.02" width="24.4" height="24.4"/>
  <rect class="cls-1" x="0" y="512.6" width="24.4" height="24.42"/>
  <rect class="cls-1" x="0" y="488.2" width="24.4" height="24.4"/>
  <rect class="cls-1" x="48.82" y="439.38" width="24.4" height="24.4"/>
  <rect class="cls-1" x="24.4" y="463.78" width="24.42" height="24.42"/>
  <rect class="cls-1" x="73.22" y="414.96" width="24.42" height="24.42"/>
  <rect class="cls-1" x="97.64" y="390.56" width="24.4" height="24.4"/>
  <rect class="cls-1" x="170.86" y="732.3" width="24.42" height="24.4"/>
  <rect class="cls-1" x="195.28" y="732.3" width="24.4" height="24.4"/>
  <rect class="cls-1" x="244.1" y="659.06" width="24.4" height="24.42"/>
  <rect class="cls-1" x="292.92" y="707.88" width="24.4" height="24.42"/>
  <rect class="cls-1" x="366.14" y="634.66" width="24.42" height="24.4"/>
  <rect class="cls-1" x="366.14" y="659.06" width="24.42" height="24.42"/>
  <rect class="cls-1" x="341.74" y="683.48" width="24.4" height="24.4"/>
  <rect class="cls-1" x="317.32" y="707.88" width="24.42" height="24.42"/>
  <rect class="cls-1" x="268.5" y="732.3" width="24.42" height="24.4"/>
  <rect class="cls-1" x="244.1" y="732.3" width="24.4" height="24.4"/>
  <rect class="cls-1" x="219.68" y="732.3" width="24.42" height="24.4"/>
  <rect class="cls-1" x="219.68" y="707.88" width="24.42" height="24.42"/>
  <rect class="cls-1" x="219.68" y="683.48" width="24.42" height="24.4"/>
  <rect class="cls-1" x="244.1" y="634.66" width="24.4" height="24.4"/>
  <rect class="cls-1" x="268.5" y="610.24" width="24.42" height="24.42"/>
  <rect class="cls-1" x="292.92" y="585.84" width="24.4" height="24.4"/>
  <rect class="cls-1" x="317.32" y="585.84" width="24.42" height="24.4"/>
  <rect class="cls-1" x="195.28" y="390.56" width="24.4" height="24.4"/>
  <rect class="cls-1" x="195.28" y="414.96" width="24.4" height="24.42"/>
  <rect class="cls-1" x="219.68" y="439.38" width="24.42" height="24.4"/>
  <rect class="cls-1" x="219.68" y="463.78" width="24.42" height="24.42"/>
  <rect class="cls-1" x="244.1" y="488.2" width="24.4" height="24.4"/>
  <rect class="cls-1" x="268.5" y="512.6" width="24.42" height="24.42"/>
  <rect class="cls-1" x="292.92" y="390.56" width="24.4" height="24.4"/>
  <rect class="cls-1" x="292.92" y="537.02" width="24.4" height="24.4"/>
  <rect class="cls-1" x="317.32" y="414.96" width="24.42" height="24.42"/>
  <rect class="cls-1" x="317.32" y="537.02" width="24.42" height="24.4"/>
  <rect class="cls-1" x="341.74" y="439.38" width="24.4" height="24.4"/>
  <rect class="cls-1" x="341.74" y="561.42" width="24.4" height="24.42"/>
  <rect class="cls-1" x="366.14" y="463.78" width="24.42" height="24.42"/>
  <rect class="cls-1" x="366.14" y="561.42" width="24.42" height="24.42"/>
</svg>