<?xml version="1.0" encoding="UTF-8"?>
<svg id="phone_work" xmlns="http://www.w3.org/2000/svg" version="1.1" viewBox="0 0 849.5 1253">
  <!-- Generator: Adobe Illustrator 29.3.1, SVG Export Plug-In . SVG Version: 2.1.0 Build 151)  -->
  <defs>
    <style>
      .st0 {
        fill: #ed80d1;
      }
    </style>
  </defs>
  <g>
    <g>
      <rect class="st0" x="497.9" y="257.9" width="28" height="28"/>
      <path class="st0" d="M526.1,286.2h-28.5v-28.5h28.5v28.5ZM498.1,285.7h27.5v-27.5h-27.5v27.5Z"/>
    </g>
    <g>
      <rect class="st0" x="469.8" y="257.9" width="28" height="28"/>
      <path class="st0" d="M498.1,286.2h-28.5v-28.5h28.5v28.5ZM470.1,285.7h27.5v-27.5h-27.5v27.5Z"/>
    </g>
    <g>
      <rect class="st0" x="441.8" y="257.9" width="28" height="28"/>
      <path class="st0" d="M470.1,286.2h-28.5v-28.5h28.5v28.5ZM442.1,285.7h27.5v-27.5h-27.5v27.5Z"/>
    </g>
    <g>
      <rect class="st0" x="553.9" y="257.9" width="28" height="28"/>
      <path class="st0" d="M582.2,286.2h-28.5v-28.5h28.5v28.5ZM554.2,285.7h27.5v-27.5h-27.5v27.5Z"/>
    </g>
    <g>
      <rect class="st0" x="525.9" y="257.9" width="28" height="28"/>
      <path class="st0" d="M554.1,286.2h-28.5v-28.5h28.5v28.5ZM526.1,285.7h27.5v-27.5h-27.5v27.5Z"/>
    </g>
  </g>
  <g>
    <g>
      <rect class="st0" x="277.7" y="257.9" width="28" height="28"/>
      <path class="st0" d="M305.9,286.2h-28.5v-28.5h28.5v28.5ZM277.9,285.7h27.5v-27.5h-27.5v27.5Z"/>
    </g>
    <g>
      <rect class="st0" x="389.8" y="257.9" width="28" height="28"/>
      <path class="st0" d="M418,286.2h-28.5v-28.5h28.5v28.5ZM390,285.7h27.5v-27.5h-27.5v27.5Z"/>
    </g>
    <g>
      <rect class="st0" x="361.7" y="257.9" width="28" height="28"/>
      <path class="st0" d="M390,286.2h-28.5v-28.5h28.5v28.5ZM362,285.7h27.5v-27.5h-27.5v27.5Z"/>
    </g>
    <g>
      <rect class="st0" x="333.7" y="257.9" width="28" height="28"/>
      <path class="st0" d="M362,286.2h-28.5v-28.5h28.5v28.5ZM334,285.7h27.5v-27.5h-27.5v27.5Z"/>
    </g>
    <g>
      <rect class="st0" x="305.7" y="257.9" width="28" height="28"/>
      <path class="st0" d="M334,286.2h-28.5v-28.5h28.5v28.5ZM305.9,285.7h27.5v-27.5h-27.5v27.5Z"/>
    </g>
  </g>
  <g>
    <g>
      <rect class="st0" x="392" y="320.6" width="72.3" height="28"/>
      <path class="st0" d="M464.5,348.9h-72.8v-28.5h72.8v28.5ZM392.2,348.4h71.8v-27.5h-71.8v27.5Z"/>
    </g>
    <g>
      <rect class="st0" x="464.2" y="320.6" width="72.3" height="28"/>
      <path class="st0" d="M536.7,348.9h-72.8v-28.5h72.8v28.5ZM464.5,348.4h71.8v-27.5h-71.8v27.5Z"/>
    </g>
    <g>
      <rect class="st0" x="319.7" y="320.6" width="72.3" height="28"/>
      <path class="st0" d="M392.2,348.9h-72.8v-28.5h72.8v28.5ZM320,348.4h71.8v-27.5h-71.8v27.5Z"/>
    </g>
  </g>
  <g>
    <g>
      <rect class="st0" x="479.6" y="387.9" width="32.2" height="28"/>
      <path class="st0" d="M512.1,416.2h-32.7v-28.5h32.7v28.5ZM479.9,415.7h31.7v-27.5h-31.7v27.5Z"/>
    </g>
    <g>
      <rect class="st0" x="447.4" y="387.9" width="32.2" height="28"/>
      <path class="st0" d="M479.9,416.2h-32.7v-28.5h32.7v28.5ZM447.7,415.7h31.7v-27.5h-31.7v27.5Z"/>
    </g>
  </g>
  <g>
    <g>
      <rect class="st0" x="347.7" y="387.9" width="32.1" height="28"/>
      <path class="st0" d="M380,416.2h-32.6v-28.5h32.6v28.5ZM348,415.7h31.6v-27.5h-31.6v27.5Z"/>
    </g>
    <g>
      <rect class="st0" x="379.8" y="387.9" width="32.1" height="28"/>
      <path class="st0" d="M412.1,416.2h-32.6v-28.5h32.6v28.5ZM380,415.7h31.6v-27.5h-31.6v27.5Z"/>
    </g>
  </g>
  <g>
    <g>
      <rect class="st0" x="821.5" y="790.3" width="28" height="28"/>
      <path class="st0" d="M849.7,818.6h-28.5v-28.5h28.5v28.5ZM821.7,818.1h27.5v-27.5h-27.5v27.5Z"/>
    </g>
    <g>
      <rect class="st0" x="821.5" y="762.3" width="28" height="28"/>
      <path class="st0" d="M849.7,790.5h-28.5v-28.5h28.5v28.5ZM821.7,790h27.5v-27.5h-27.5v27.5Z"/>
    </g>
    <g>
      <rect class="st0" x="821.5" y="734.2" width="28" height="28"/>
      <path class="st0" d="M849.7,762.5h-28.5v-28.5h28.5v28.5ZM821.7,762h27.5v-27.5h-27.5v27.5Z"/>
    </g>
    <g>
      <rect class="st0" x="821.5" y="706.2" width="28" height="28"/>
      <path class="st0" d="M849.7,734.5h-28.5v-28.5h28.5v28.5ZM821.7,734h27.5v-27.5h-27.5v27.5Z"/>
    </g>
    <g>
      <rect class="st0" x="821.5" y="678.2" width="28" height="28"/>
      <path class="st0" d="M849.7,706.5h-28.5v-28.5h28.5v28.5ZM821.7,706h27.5v-27.5h-27.5v27.5Z"/>
    </g>
    <g>
      <rect class="st0" x="821.5" y="622.2" width="28" height="28"/>
      <path class="st0" d="M849.7,650.4h-28.5v-28.5h28.5v28.5ZM821.7,649.9h27.5v-27.5h-27.5v27.5Z"/>
    </g>
    <g>
      <rect class="st0" x="821.5" y="594.1" width="28" height="28"/>
      <path class="st0" d="M849.7,622.4h-28.5v-28.5h28.5v28.5ZM821.7,621.9h27.5v-27.5h-27.5v27.5Z"/>
    </g>
    <g>
      <rect class="st0" x="821.5" y="566.1" width="28" height="28"/>
      <path class="st0" d="M849.7,594.4h-28.5v-28.5h28.5v28.5ZM821.7,593.9h27.5v-27.5h-27.5v27.5Z"/>
    </g>
    <g>
      <rect class="st0" x="821.5" y="538.1" width="28" height="28"/>
      <path class="st0" d="M849.7,566.4h-28.5v-28.5h28.5v28.5ZM821.7,565.9h27.5v-27.5h-27.5v27.5Z"/>
    </g>
    <g>
      <rect class="st0" x="821.5" y="510.1" width="28" height="28"/>
      <path class="st0" d="M849.7,538.4h-28.5v-28.5h28.5v28.5ZM821.7,537.9h27.5v-27.5h-27.5v27.5Z"/>
    </g>
  </g>
  <g>
    <g>
      <rect class="st0" x="765.4" y="762.3" width="28" height="28"/>
      <path class="st0" d="M793.7,790.5h-28.5v-28.5h28.5v28.5ZM765.7,790h27.5v-27.5h-27.5v27.5Z"/>
    </g>
    <g>
      <rect class="st0" x="765.4" y="734.2" width="28" height="28"/>
      <path class="st0" d="M793.7,762.5h-28.5v-28.5h28.5v28.5ZM765.7,762h27.5v-27.5h-27.5v27.5Z"/>
    </g>
    <g>
      <rect class="st0" x="765.4" y="706.2" width="28" height="28"/>
      <path class="st0" d="M793.7,734.5h-28.5v-28.5h28.5v28.5ZM765.7,734h27.5v-27.5h-27.5v27.5Z"/>
    </g>
    <g>
      <rect class="st0" x="765.4" y="678.2" width="28" height="28"/>
      <path class="st0" d="M793.7,706.5h-28.5v-28.5h28.5v28.5ZM765.7,706h27.5v-27.5h-27.5v27.5Z"/>
    </g>
    <g>
      <rect class="st0" x="765.4" y="622.2" width="28" height="28"/>
      <path class="st0" d="M793.7,650.4h-28.5v-28.5h28.5v28.5ZM765.7,649.9h27.5v-27.5h-27.5v27.5Z"/>
    </g>
    <g>
      <rect class="st0" x="765.4" y="594.1" width="28" height="28"/>
      <path class="st0" d="M793.7,622.4h-28.5v-28.5h28.5v28.5ZM765.7,621.9h27.5v-27.5h-27.5v27.5Z"/>
    </g>
    <g>
      <rect class="st0" x="765.4" y="566.1" width="28" height="28"/>
      <path class="st0" d="M793.7,594.4h-28.5v-28.5h28.5v28.5ZM765.7,593.9h27.5v-27.5h-27.5v27.5Z"/>
    </g>
    <g>
      <rect class="st0" x="765.4" y="538.1" width="28" height="28"/>
      <path class="st0" d="M793.7,566.4h-28.5v-28.5h28.5v28.5ZM765.7,565.9h27.5v-27.5h-27.5v27.5Z"/>
    </g>
  </g>
  <g>
    <g>
      <rect class="st0" x="709.4" y="734.2" width="28" height="28"/>
      <path class="st0" d="M737.6,762.5h-28.5v-28.5h28.5v28.5ZM709.6,762h27.5v-27.5h-27.5v27.5Z"/>
    </g>
    <g>
      <rect class="st0" x="709.4" y="706.2" width="28" height="28"/>
      <path class="st0" d="M737.6,734.5h-28.5v-28.5h28.5v28.5ZM709.6,734h27.5v-27.5h-27.5v27.5Z"/>
    </g>
    <g>
      <rect class="st0" x="709.4" y="678.2" width="28" height="28"/>
      <path class="st0" d="M737.6,706.5h-28.5v-28.5h28.5v28.5ZM709.6,706h27.5v-27.5h-27.5v27.5Z"/>
    </g>
    <g>
      <rect class="st0" x="709.4" y="650.2" width="28" height="28"/>
      <path class="st0" d="M737.6,678.5h-28.5v-28.5h28.5v28.5ZM709.6,678h27.5v-27.5h-27.5v27.5Z"/>
    </g>
    <g>
      <rect class="st0" x="709.4" y="622.2" width="28" height="28"/>
      <path class="st0" d="M737.6,650.4h-28.5v-28.5h28.5v28.5ZM709.6,649.9h27.5v-27.5h-27.5v27.5Z"/>
    </g>
    <g>
      <rect class="st0" x="709.4" y="594.1" width="28" height="28"/>
      <path class="st0" d="M737.6,622.4h-28.5v-28.5h28.5v28.5ZM709.6,621.9h27.5v-27.5h-27.5v27.5Z"/>
    </g>
    <g>
      <rect class="st0" x="709.4" y="566.1" width="28" height="28"/>
      <path class="st0" d="M737.6,594.4h-28.5v-28.5h28.5v28.5ZM709.6,593.9h27.5v-27.5h-27.5v27.5Z"/>
    </g>
  </g>
  <g>
    <g>
      <rect class="st0" x="737.4" y="484.6" width="28" height="28"/>
      <path class="st0" d="M765.7,512.9h-28.5v-28.5h28.5v28.5ZM737.6,512.4h27.5v-27.5h-27.5v27.5Z"/>
    </g>
    <g>
      <rect class="st0" x="709.4" y="484.6" width="28" height="28"/>
      <path class="st0" d="M737.6,512.9h-28.5v-28.5h28.5v28.5ZM709.6,512.4h27.5v-27.5h-27.5v27.5Z"/>
    </g>
    <g>
      <rect class="st0" x="709.4" y="456.6" width="28" height="28"/>
      <path class="st0" d="M737.6,484.9h-28.5v-28.5h28.5v28.5ZM709.6,484.4h27.5v-27.5h-27.5v27.5Z"/>
    </g>
    <g>
      <rect class="st0" x="681.3" y="456.6" width="28" height="28"/>
      <path class="st0" d="M709.6,484.9h-28.5v-28.5h28.5v28.5ZM681.6,484.4h27.5v-27.5h-27.5v27.5Z"/>
    </g>
    <g>
      <rect class="st0" x="681.3" y="428.6" width="28" height="28"/>
      <path class="st0" d="M709.6,456.9h-28.5v-28.5h28.5v28.5ZM681.6,456.4h27.5v-27.5h-27.5v27.5Z"/>
    </g>
  </g>
  <g>
    <g>
      <rect class="st0" x="661.7" y="804.3" width="28" height="28"/>
      <path class="st0" d="M690,832.6h-28.5v-28.5h28.5v28.5ZM662,832.1h27.5v-27.5h-27.5v27.5Z"/>
    </g>
    <g>
      <rect class="st0" x="633.7" y="832.3" width="28" height="28"/>
      <path class="st0" d="M662,860.6h-28.5v-28.5h28.5v28.5ZM633.9,860.1h27.5v-27.5h-27.5v27.5Z"/>
    </g>
    <g>
      <rect class="st0" x="633.7" y="804.3" width="28" height="28"/>
      <path class="st0" d="M662,832.6h-28.5v-28.5h28.5v28.5ZM633.9,832.1h27.5v-27.5h-27.5v27.5Z"/>
    </g>
  </g>
  <g>
    <g>
      <rect class="st0" x="668.3" y="516.8" width="28" height="28"/>
      <path class="st0" d="M696.6,545h-28.5v-28.5h28.5v28.5ZM668.6,544.5h27.5v-27.5h-27.5v27.5Z"/>
    </g>
    <g>
      <rect class="st0" x="640.3" y="516.8" width="28" height="28"/>
      <path class="st0" d="M668.6,545h-28.5v-28.5h28.5v28.5ZM640.6,544.5h27.5v-27.5h-27.5v27.5Z"/>
    </g>
    <g>
      <rect class="st0" x="640.3" y="488.7" width="28" height="28"/>
      <path class="st0" d="M668.6,517h-28.5v-28.5h28.5v28.5ZM640.6,516.5h27.5v-27.5h-27.5v27.5Z"/>
    </g>
  </g>
  <g>
    <g>
      <rect class="st0" x="801.1" y="875.6" width="28" height="28"/>
      <path class="st0" d="M829.4,903.9h-28.5v-28.5h28.5v28.5ZM801.4,903.4h27.5v-27.5h-27.5v27.5Z"/>
    </g>
    <g>
      <rect class="st0" x="801.1" y="847.6" width="28" height="28"/>
      <path class="st0" d="M829.4,875.9h-28.5v-28.5h28.5v28.5ZM801.4,875.4h27.5v-27.5h-27.5v27.5Z"/>
    </g>
    <g>
      <rect class="st0" x="773.1" y="903.7" width="28" height="28"/>
      <path class="st0" d="M801.4,931.9h-28.5v-28.5h28.5v28.5ZM773.3,931.4h27.5v-27.5h-27.5v27.5Z"/>
    </g>
    <g>
      <rect class="st0" x="773.1" y="875.6" width="28" height="28"/>
      <path class="st0" d="M801.4,903.9h-28.5v-28.5h28.5v28.5ZM773.3,903.4h27.5v-27.5h-27.5v27.5Z"/>
    </g>
    <g>
      <rect class="st0" x="745.1" y="931.7" width="28" height="28"/>
      <path class="st0" d="M773.3,960h-28.5v-28.5h28.5v28.5ZM745.3,959.5h27.5v-27.5h-27.5v27.5Z"/>
    </g>
    <g>
      <rect class="st0" x="745.1" y="903.7" width="28" height="28"/>
      <path class="st0" d="M773.3,931.9h-28.5v-28.5h28.5v28.5ZM745.3,931.4h27.5v-27.5h-27.5v27.5Z"/>
    </g>
    <g>
      <rect class="st0" x="717" y="959.7" width="28" height="28"/>
      <path class="st0" d="M745.3,988h-28.5v-28.5h28.5v28.5ZM717.3,987.5h27.5v-27.5h-27.5v27.5Z"/>
    </g>
    <g>
      <rect class="st0" x="717" y="931.7" width="28" height="28"/>
      <path class="st0" d="M745.3,960h-28.5v-28.5h28.5v28.5ZM717.3,959.5h27.5v-27.5h-27.5v27.5Z"/>
    </g>
    <g>
      <rect class="st0" x="689" y="987.7" width="28" height="28"/>
      <path class="st0" d="M717.3,1016h-28.5v-28.5h28.5v28.5ZM689.3,1015.5h27.5v-27.5h-27.5v27.5Z"/>
    </g>
    <g>
      <rect class="st0" x="689" y="959.7" width="28" height="28"/>
      <path class="st0" d="M717.3,988h-28.5v-28.5h28.5v28.5ZM689.3,987.5h27.5v-27.5h-27.5v27.5Z"/>
    </g>
    <g>
      <rect class="st0" x="661" y="1015.8" width="28" height="28"/>
      <path class="st0" d="M689.3,1044h-28.5v-28.5h28.5v28.5ZM661.2,1043.5h27.5v-27.5h-27.5v27.5Z"/>
    </g>
    <g>
      <rect class="st0" x="661" y="987.7" width="28" height="28"/>
      <path class="st0" d="M689.3,1016h-28.5v-28.5h28.5v28.5ZM661.2,1015.5h27.5v-27.5h-27.5v27.5Z"/>
    </g>
    <g>
      <rect class="st0" x="633" y="1043.8" width="28" height="28"/>
      <path class="st0" d="M661.2,1072h-28.5v-28.5h28.5v28.5ZM633.2,1071.5h27.5v-27.5h-27.5v27.5Z"/>
    </g>
    <g>
      <rect class="st0" x="633" y="1015.8" width="28" height="28"/>
      <path class="st0" d="M661.2,1044h-28.5v-28.5h28.5v28.5ZM633.2,1043.5h27.5v-27.5h-27.5v27.5Z"/>
    </g>
    <g>
      <rect class="st0" x="605" y="1071.8" width="28" height="28"/>
      <path class="st0" d="M633.2,1100.1h-28.5v-28.5h28.5v28.5ZM605.2,1099.6h27.5v-27.5h-27.5v27.5Z"/>
    </g>
    <g>
      <rect class="st0" x="605" y="1043.8" width="28" height="28"/>
      <path class="st0" d="M633.2,1072h-28.5v-28.5h28.5v28.5ZM605.2,1071.5h27.5v-27.5h-27.5v27.5Z"/>
    </g>
  </g>
  <g>
    <rect class="st0" x="597.3" y="734.2" width="28" height="28"/>
    <path class="st0" d="M625.5,762.5h-28.5v-28.5h28.5v28.5ZM597.5,762h27.5v-27.5h-27.5v27.5Z"/>
  </g>
  <g>
    <rect class="st0" x="597.3" y="706.2" width="28" height="28"/>
    <path class="st0" d="M625.5,734.5h-28.5v-28.5h28.5v28.5ZM597.5,734h27.5v-27.5h-27.5v27.5Z"/>
  </g>
  <g>
    <rect class="st0" x="597.3" y="678.2" width="28" height="28"/>
    <path class="st0" d="M625.5,706.5h-28.5v-28.5h28.5v28.5ZM597.5,706h27.5v-27.5h-27.5v27.5Z"/>
  </g>
  <g>
    <rect class="st0" x="597.3" y="650.2" width="28" height="28"/>
    <path class="st0" d="M625.5,678.5h-28.5v-28.5h28.5v28.5ZM597.5,678h27.5v-27.5h-27.5v27.5Z"/>
  </g>
  <g>
    <rect class="st0" x="597.3" y="622.2" width="28" height="28"/>
    <path class="st0" d="M625.5,650.4h-28.5v-28.5h28.5v28.5ZM597.5,649.9h27.5v-27.5h-27.5v27.5Z"/>
  </g>
  <g>
    <rect class="st0" x="597.3" y="594.1" width="28" height="28"/>
    <path class="st0" d="M625.5,622.4h-28.5v-28.5h28.5v28.5ZM597.5,621.9h27.5v-27.5h-27.5v27.5Z"/>
  </g>
  <g>
    <rect class="st0" x="597.3" y="566.1" width="28" height="28"/>
    <path class="st0" d="M625.5,594.4h-28.5v-28.5h28.5v28.5ZM597.5,593.9h27.5v-27.5h-27.5v27.5Z"/>
  </g>
  <g>
    <g>
      <rect class="st0" x="649.5" y="395.4" width="28" height="28"/>
      <path class="st0" d="M677.8,423.7h-28.5v-28.5h28.5v28.5ZM649.8,423.2h27.5v-27.5h-27.5v27.5Z"/>
    </g>
    <g>
      <rect class="st0" x="621.5" y="395.4" width="28" height="28"/>
      <path class="st0" d="M649.8,423.7h-28.5v-28.5h28.5v28.5ZM621.8,423.2h27.5v-27.5h-27.5v27.5Z"/>
    </g>
    <g>
      <rect class="st0" x="621.5" y="367.4" width="28" height="28"/>
      <path class="st0" d="M649.8,395.7h-28.5v-28.5h28.5v28.5ZM621.8,395.2h27.5v-27.5h-27.5v27.5Z"/>
    </g>
    <g>
      <rect class="st0" x="593.5" y="367.4" width="28" height="28"/>
      <path class="st0" d="M621.8,395.7h-28.5v-28.5h28.5v28.5ZM593.8,395.2h27.5v-27.5h-27.5v27.5Z"/>
    </g>
    <g>
      <rect class="st0" x="593.5" y="339.4" width="28" height="28"/>
      <path class="st0" d="M621.8,367.7h-28.5v-28.5h28.5v28.5ZM593.8,367.2h27.5v-27.5h-27.5v27.5Z"/>
    </g>
  </g>
  <g>
    <g>
      <rect class="st0" x="803.7" y="451.5" width="28" height="28"/>
      <path class="st0" d="M832,479.8h-28.5v-28.5h28.5v28.5ZM803.9,479.2h27.5v-27.5h-27.5v27.5Z"/>
    </g>
    <g>
      <rect class="st0" x="775.7" y="451.5" width="28" height="28"/>
      <path class="st0" d="M803.9,479.8h-28.5v-28.5h28.5v28.5ZM775.9,479.2h27.5v-27.5h-27.5v27.5Z"/>
    </g>
    <g>
      <rect class="st0" x="775.7" y="423.5" width="28" height="28"/>
      <path class="st0" d="M803.9,451.7h-28.5v-28.5h28.5v28.5ZM775.9,451.2h27.5v-27.5h-27.5v27.5Z"/>
    </g>
    <g>
      <rect class="st0" x="747.6" y="423.5" width="28" height="28"/>
      <path class="st0" d="M775.9,451.7h-28.5v-28.5h28.5v28.5ZM747.9,451.2h27.5v-27.5h-27.5v27.5Z"/>
    </g>
    <g>
      <rect class="st0" x="747.6" y="395.4" width="28" height="28"/>
      <path class="st0" d="M775.9,423.7h-28.5v-28.5h28.5v28.5ZM747.9,423.2h27.5v-27.5h-27.5v27.5Z"/>
    </g>
    <g>
      <rect class="st0" x="719.6" y="395.4" width="28" height="28"/>
      <path class="st0" d="M747.9,423.7h-28.5v-28.5h28.5v28.5ZM719.8,423.2h27.5v-27.5h-27.5v27.5Z"/>
    </g>
    <g>
      <rect class="st0" x="719.6" y="367.4" width="28" height="28"/>
      <path class="st0" d="M747.9,395.7h-28.5v-28.5h28.5v28.5ZM719.8,395.2h27.5v-27.5h-27.5v27.5Z"/>
    </g>
    <g>
      <rect class="st0" x="691.6" y="367.4" width="28" height="28"/>
      <path class="st0" d="M719.8,395.7h-28.5v-28.5h28.5v28.5ZM691.8,395.2h27.5v-27.5h-27.5v27.5Z"/>
    </g>
    <g>
      <rect class="st0" x="691.6" y="339.4" width="28" height="28"/>
      <path class="st0" d="M719.8,367.7h-28.5v-28.5h28.5v28.5ZM691.8,367.2h27.5v-27.5h-27.5v27.5Z"/>
    </g>
    <g>
      <rect class="st0" x="663.6" y="339.4" width="28" height="28"/>
      <path class="st0" d="M691.8,367.7h-28.5v-28.5h28.5v28.5ZM663.8,367.2h27.5v-27.5h-27.5v27.5Z"/>
    </g>
    <g>
      <rect class="st0" x="663.6" y="311.4" width="28" height="28"/>
      <path class="st0" d="M691.8,339.6h-28.5v-28.5h28.5v28.5ZM663.8,339.1h27.5v-27.5h-27.5v27.5Z"/>
    </g>
    <g>
      <rect class="st0" x="635.5" y="311.4" width="28" height="28"/>
      <path class="st0" d="M663.8,339.6h-28.5v-28.5h28.5v28.5ZM635.8,339.1h27.5v-27.5h-27.5v27.5Z"/>
    </g>
    <g>
      <rect class="st0" x="635.5" y="283.4" width="28" height="28"/>
      <path class="st0" d="M663.8,311.6h-28.5v-28.5h28.5v28.5ZM635.8,311.1h27.5v-27.5h-27.5v27.5Z"/>
    </g>
    <g>
      <rect class="st0" x="607.5" y="283.4" width="28" height="28"/>
      <path class="st0" d="M635.8,311.6h-28.5v-28.5h28.5v28.5ZM607.8,311.1h27.5v-27.5h-27.5v27.5Z"/>
    </g>
  </g>
  <g>
    <g>
      <rect class="st0" x="733.5" y="838.7" width="28" height="28"/>
      <path class="st0" d="M761.8,866.9h-28.5v-28.5h28.5v28.5ZM733.8,866.4h27.5v-27.5h-27.5v27.5Z"/>
    </g>
    <g>
      <rect class="st0" x="733.5" y="810.6" width="28" height="28"/>
      <path class="st0" d="M761.8,838.9h-28.5v-28.5h28.5v28.5ZM733.8,838.4h27.5v-27.5h-27.5v27.5Z"/>
    </g>
    <g>
      <rect class="st0" x="705.5" y="866.7" width="28" height="28"/>
      <path class="st0" d="M733.8,895h-28.5v-28.5h28.5v28.5ZM705.8,894.5h27.5v-27.5h-27.5v27.5Z"/>
    </g>
    <g>
      <rect class="st0" x="705.5" y="838.7" width="28" height="28"/>
      <path class="st0" d="M733.8,866.9h-28.5v-28.5h28.5v28.5ZM705.8,866.4h27.5v-27.5h-27.5v27.5Z"/>
    </g>
    <g>
      <rect class="st0" x="677.5" y="894.7" width="28" height="28"/>
      <path class="st0" d="M705.8,923h-28.5v-28.5h28.5v28.5ZM677.8,922.5h27.5v-27.5h-27.5v27.5Z"/>
    </g>
    <g>
      <rect class="st0" x="677.5" y="866.7" width="28" height="28"/>
      <path class="st0" d="M705.8,895h-28.5v-28.5h28.5v28.5ZM677.8,894.5h27.5v-27.5h-27.5v27.5Z"/>
    </g>
    <g>
      <rect class="st0" x="649.5" y="922.7" width="28" height="28"/>
      <path class="st0" d="M677.8,951h-28.5v-28.5h28.5v28.5ZM649.7,950.5h27.5v-27.5h-27.5v27.5Z"/>
    </g>
    <g>
      <rect class="st0" x="649.5" y="894.7" width="28" height="28"/>
      <path class="st0" d="M677.8,923h-28.5v-28.5h28.5v28.5ZM649.7,922.5h27.5v-27.5h-27.5v27.5Z"/>
    </g>
    <g>
      <rect class="st0" x="621.5" y="950.8" width="28" height="28"/>
      <path class="st0" d="M649.7,979h-28.5v-28.5h28.5v28.5ZM621.7,978.5h27.5v-27.5h-27.5v27.5Z"/>
    </g>
    <g>
      <rect class="st0" x="621.5" y="922.7" width="28" height="28"/>
      <path class="st0" d="M649.7,951h-28.5v-28.5h28.5v28.5ZM621.7,950.5h27.5v-27.5h-27.5v27.5Z"/>
    </g>
    <g>
      <rect class="st0" x="593.4" y="978.8" width="28" height="28"/>
      <path class="st0" d="M621.7,1007h-28.5v-28.5h28.5v28.5ZM593.7,1006.5h27.5v-27.5h-27.5v27.5Z"/>
    </g>
    <g>
      <rect class="st0" x="593.4" y="950.8" width="28" height="28"/>
      <path class="st0" d="M621.7,979h-28.5v-28.5h28.5v28.5ZM593.7,978.5h27.5v-27.5h-27.5v27.5Z"/>
    </g>
    <g>
      <rect class="st0" x="565.4" y="978.8" width="28" height="28"/>
      <path class="st0" d="M593.7,1007h-28.5v-28.5h28.5v28.5ZM565.7,1006.5h27.5v-27.5h-27.5v27.5Z"/>
    </g>
  </g>
  <g>
    <g>
      <rect class="st0" x="589" y="874.4" width="28" height="28"/>
      <path class="st0" d="M617.2,902.6h-28.5v-28.5h28.5v28.5ZM589.2,902.1h27.5v-27.5h-27.5v27.5Z"/>
    </g>
    <g>
      <rect class="st0" x="561" y="902.4" width="28" height="28"/>
      <path class="st0" d="M589.2,930.7h-28.5v-28.5h28.5v28.5ZM561.2,930.2h27.5v-27.5h-27.5v27.5Z"/>
    </g>
    <g>
      <rect class="st0" x="561" y="874.4" width="28" height="28"/>
      <path class="st0" d="M589.2,902.6h-28.5v-28.5h28.5v28.5ZM561.2,902.1h27.5v-27.5h-27.5v27.5Z"/>
    </g>
  </g>
  <g>
    <rect class="st0" x="569.3" y="762.3" width="28" height="28"/>
    <path class="st0" d="M597.5,790.5h-28.5v-28.5h28.5v28.5ZM569.5,790h27.5v-27.5h-27.5v27.5Z"/>
  </g>
  <g>
    <rect class="st0" x="569.3" y="734.2" width="28" height="28"/>
    <path class="st0" d="M597.5,762.5h-28.5v-28.5h28.5v28.5ZM569.5,762h27.5v-27.5h-27.5v27.5Z"/>
  </g>
  <g>
    <rect class="st0" x="569.3" y="706.2" width="28" height="28"/>
    <path class="st0" d="M597.5,734.5h-28.5v-28.5h28.5v28.5ZM569.5,734h27.5v-27.5h-27.5v27.5Z"/>
  </g>
  <g>
    <rect class="st0" x="569.3" y="678.2" width="28" height="28"/>
    <path class="st0" d="M597.5,706.5h-28.5v-28.5h28.5v28.5ZM569.5,706h27.5v-27.5h-27.5v27.5Z"/>
  </g>
  <g>
    <rect class="st0" x="569.3" y="650.2" width="28" height="28"/>
    <path class="st0" d="M597.5,678.5h-28.5v-28.5h28.5v28.5ZM569.5,678h27.5v-27.5h-27.5v27.5Z"/>
  </g>
  <g>
    <rect class="st0" x="569.3" y="622.2" width="28" height="28"/>
    <path class="st0" d="M597.5,650.4h-28.5v-28.5h28.5v28.5ZM569.5,649.9h27.5v-27.5h-27.5v27.5Z"/>
  </g>
  <g>
    <rect class="st0" x="569.3" y="594.1" width="28" height="28"/>
    <path class="st0" d="M597.5,622.4h-28.5v-28.5h28.5v28.5ZM569.5,621.9h27.5v-27.5h-27.5v27.5Z"/>
  </g>
  <g>
    <rect class="st0" x="569.3" y="566.1" width="28" height="28"/>
    <path class="st0" d="M597.5,594.4h-28.5v-28.5h28.5v28.5ZM569.5,593.9h27.5v-27.5h-27.5v27.5Z"/>
  </g>
  <g>
    <rect class="st0" x="569.3" y="538.1" width="28" height="28"/>
    <path class="st0" d="M597.5,566.4h-28.5v-28.5h28.5v28.5ZM569.5,565.9h27.5v-27.5h-27.5v27.5Z"/>
  </g>
  <g>
    <g>
      <rect class="st0" x="593.5" y="435.1" width="28" height="28"/>
      <path class="st0" d="M621.8,463.3h-28.5v-28.5h28.5v28.5ZM593.8,462.8h27.5v-27.5h-27.5v27.5Z"/>
    </g>
    <g>
      <rect class="st0" x="565.5" y="435.1" width="28" height="28"/>
      <path class="st0" d="M593.8,463.3h-28.5v-28.5h28.5v28.5ZM565.7,462.8h27.5v-27.5h-27.5v27.5Z"/>
    </g>
    <g>
      <rect class="st0" x="565.5" y="407" width="28" height="28"/>
      <path class="st0" d="M593.8,435.3h-28.5v-28.5h28.5v28.5ZM565.7,434.8h27.5v-27.5h-27.5v27.5Z"/>
    </g>
  </g>
  <g>
    <rect class="st0" x="541.2" y="790.3" width="28" height="28"/>
    <path class="st0" d="M569.5,818.6h-28.5v-28.5h28.5v28.5ZM541.5,818.1h27.5v-27.5h-27.5v27.5Z"/>
  </g>
  <g>
    <rect class="st0" x="541.2" y="762.3" width="28" height="28"/>
    <path class="st0" d="M569.5,790.5h-28.5v-28.5h28.5v28.5ZM541.5,790h27.5v-27.5h-27.5v27.5Z"/>
  </g>
  <g>
    <rect class="st0" x="541.2" y="734.2" width="28" height="28"/>
    <path class="st0" d="M569.5,762.5h-28.5v-28.5h28.5v28.5ZM541.5,762h27.5v-27.5h-27.5v27.5Z"/>
  </g>
  <g>
    <rect class="st0" x="541.2" y="706.2" width="28" height="28"/>
    <path class="st0" d="M569.5,734.5h-28.5v-28.5h28.5v28.5ZM541.5,734h27.5v-27.5h-27.5v27.5Z"/>
  </g>
  <g>
    <rect class="st0" x="541.2" y="678.2" width="28" height="28"/>
    <path class="st0" d="M569.5,706.5h-28.5v-28.5h28.5v28.5ZM541.5,706h27.5v-27.5h-27.5v27.5Z"/>
  </g>
  <g>
    <rect class="st0" x="541.2" y="650.2" width="28" height="28"/>
    <path class="st0" d="M569.5,678.5h-28.5v-28.5h28.5v28.5ZM541.5,678h27.5v-27.5h-27.5v27.5Z"/>
  </g>
  <g>
    <rect class="st0" x="541.2" y="622.2" width="28" height="28"/>
    <path class="st0" d="M569.5,650.4h-28.5v-28.5h28.5v28.5ZM541.5,649.9h27.5v-27.5h-27.5v27.5Z"/>
  </g>
  <g>
    <rect class="st0" x="541.2" y="594.1" width="28" height="28"/>
    <path class="st0" d="M569.5,622.4h-28.5v-28.5h28.5v28.5ZM541.5,621.9h27.5v-27.5h-27.5v27.5Z"/>
  </g>
  <g>
    <rect class="st0" x="541.2" y="566.1" width="28" height="28"/>
    <path class="st0" d="M569.5,594.4h-28.5v-28.5h28.5v28.5ZM541.5,593.9h27.5v-27.5h-27.5v27.5Z"/>
  </g>
  <g>
    <rect class="st0" x="541.2" y="538.1" width="28" height="28"/>
    <path class="st0" d="M569.5,566.4h-28.5v-28.5h28.5v28.5ZM541.5,565.9h27.5v-27.5h-27.5v27.5Z"/>
  </g>
  <g>
    <rect class="st0" x="541.2" y="510.1" width="28" height="28"/>
    <path class="st0" d="M569.5,538.4h-28.5v-28.5h28.5v28.5ZM541.5,537.9h27.5v-27.5h-27.5v27.5Z"/>
  </g>
  <g>
    <rect class="st0" x="513.2" y="818.3" width="28" height="28"/>
    <path class="st0" d="M541.5,846.6h-28.5v-28.5h28.5v28.5ZM513.5,846.1h27.5v-27.5h-27.5v27.5Z"/>
  </g>
  <g>
    <rect class="st0" x="513.2" y="790.3" width="28" height="28"/>
    <path class="st0" d="M541.5,818.6h-28.5v-28.5h28.5v28.5ZM513.5,818.1h27.5v-27.5h-27.5v27.5Z"/>
  </g>
  <g>
    <rect class="st0" x="513.2" y="762.3" width="28" height="28"/>
    <path class="st0" d="M541.5,790.5h-28.5v-28.5h28.5v28.5ZM513.5,790h27.5v-27.5h-27.5v27.5Z"/>
  </g>
  <g>
    <rect class="st0" x="513.2" y="734.2" width="28" height="28"/>
    <path class="st0" d="M541.5,762.5h-28.5v-28.5h28.5v28.5ZM513.5,762h27.5v-27.5h-27.5v27.5Z"/>
  </g>
  <g>
    <rect class="st0" x="513.2" y="706.2" width="28" height="28"/>
    <path class="st0" d="M541.5,734.5h-28.5v-28.5h28.5v28.5ZM513.5,734h27.5v-27.5h-27.5v27.5Z"/>
  </g>
  <g>
    <rect class="st0" x="513.2" y="678.2" width="28" height="28"/>
    <path class="st0" d="M541.5,706.5h-28.5v-28.5h28.5v28.5ZM513.5,706h27.5v-27.5h-27.5v27.5Z"/>
  </g>
  <g>
    <rect class="st0" x="513.2" y="650.2" width="28" height="28"/>
    <path class="st0" d="M541.5,678.5h-28.5v-28.5h28.5v28.5ZM513.5,678h27.5v-27.5h-27.5v27.5Z"/>
  </g>
  <g>
    <rect class="st0" x="513.2" y="622.2" width="28" height="28"/>
    <path class="st0" d="M541.5,650.4h-28.5v-28.5h28.5v28.5ZM513.5,649.9h27.5v-27.5h-27.5v27.5Z"/>
  </g>
  <g>
    <rect class="st0" x="513.2" y="594.1" width="28" height="28"/>
    <path class="st0" d="M541.5,622.4h-28.5v-28.5h28.5v28.5ZM513.5,621.9h27.5v-27.5h-27.5v27.5Z"/>
  </g>
  <g>
    <rect class="st0" x="513.2" y="566.1" width="28" height="28"/>
    <path class="st0" d="M541.5,594.4h-28.5v-28.5h28.5v28.5ZM513.5,593.9h27.5v-27.5h-27.5v27.5Z"/>
  </g>
  <g>
    <rect class="st0" x="513.2" y="538.1" width="28" height="28"/>
    <path class="st0" d="M541.5,566.4h-28.5v-28.5h28.5v28.5ZM513.5,565.9h27.5v-27.5h-27.5v27.5Z"/>
  </g>
  <g>
    <rect class="st0" x="513.2" y="510.1" width="28" height="28"/>
    <path class="st0" d="M541.5,538.4h-28.5v-28.5h28.5v28.5ZM513.5,537.9h27.5v-27.5h-27.5v27.5Z"/>
  </g>
  <g>
    <rect class="st0" x="513.2" y="482.1" width="28" height="28"/>
    <path class="st0" d="M541.5,510.3h-28.5v-28.5h28.5v28.5ZM513.5,509.8h27.5v-27.5h-27.5v27.5Z"/>
  </g>
  <g>
    <rect class="st0" x="485.2" y="846.3" width="28" height="28"/>
    <path class="st0" d="M513.5,874.6h-28.5v-28.5h28.5v28.5ZM485.4,874.1h27.5v-27.5h-27.5v27.5Z"/>
  </g>
  <g>
    <rect class="st0" x="485.2" y="818.3" width="28" height="28"/>
    <path class="st0" d="M513.5,846.6h-28.5v-28.5h28.5v28.5ZM485.4,846.1h27.5v-27.5h-27.5v27.5Z"/>
  </g>
  <g>
    <rect class="st0" x="485.2" y="790.3" width="28" height="28"/>
    <path class="st0" d="M513.5,818.6h-28.5v-28.5h28.5v28.5ZM485.4,818.1h27.5v-27.5h-27.5v27.5Z"/>
  </g>
  <g>
    <rect class="st0" x="485.2" y="762.3" width="28" height="28"/>
    <path class="st0" d="M513.5,790.5h-28.5v-28.5h28.5v28.5ZM485.4,790h27.5v-27.5h-27.5v27.5Z"/>
  </g>
  <g>
    <rect class="st0" x="485.2" y="734.2" width="28" height="28"/>
    <path class="st0" d="M513.5,762.5h-28.5v-28.5h28.5v28.5ZM485.4,762h27.5v-27.5h-27.5v27.5Z"/>
  </g>
  <g>
    <rect class="st0" x="485.2" y="706.2" width="28" height="28"/>
    <path class="st0" d="M513.5,734.5h-28.5v-28.5h28.5v28.5ZM485.4,734h27.5v-27.5h-27.5v27.5Z"/>
  </g>
  <g>
    <rect class="st0" x="485.2" y="678.2" width="28" height="28"/>
    <path class="st0" d="M513.5,706.5h-28.5v-28.5h28.5v28.5ZM485.4,706h27.5v-27.5h-27.5v27.5Z"/>
  </g>
  <g>
    <rect class="st0" x="485.2" y="650.2" width="28" height="28"/>
    <path class="st0" d="M513.5,678.5h-28.5v-28.5h28.5v28.5ZM485.4,678h27.5v-27.5h-27.5v27.5Z"/>
  </g>
  <g>
    <rect class="st0" x="485.2" y="622.2" width="28" height="28"/>
    <path class="st0" d="M513.5,650.4h-28.5v-28.5h28.5v28.5ZM485.4,649.9h27.5v-27.5h-27.5v27.5Z"/>
  </g>
  <g>
    <rect class="st0" x="485.2" y="510.1" width="28" height="28"/>
    <path class="st0" d="M513.5,538.4h-28.5v-28.5h28.5v28.5ZM485.4,537.9h27.5v-27.5h-27.5v27.5Z"/>
  </g>
  <g>
    <rect class="st0" x="485.2" y="482.1" width="28" height="28"/>
    <path class="st0" d="M513.5,510.3h-28.5v-28.5h28.5v28.5ZM485.4,509.8h27.5v-27.5h-27.5v27.5Z"/>
  </g>
  <g>
    <rect class="st0" x="457.2" y="846.3" width="28" height="28"/>
    <path class="st0" d="M485.4,874.6h-28.5v-28.5h28.5v28.5ZM457.4,874.1h27.5v-27.5h-27.5v27.5Z"/>
  </g>
  <g>
    <rect class="st0" x="457.2" y="818.3" width="28" height="28"/>
    <path class="st0" d="M485.4,846.6h-28.5v-28.5h28.5v28.5ZM457.4,846.1h27.5v-27.5h-27.5v27.5Z"/>
  </g>
  <g>
    <rect class="st0" x="457.2" y="790.3" width="28" height="28"/>
    <path class="st0" d="M485.4,818.6h-28.5v-28.5h28.5v28.5ZM457.4,818.1h27.5v-27.5h-27.5v27.5Z"/>
  </g>
  <g>
    <rect class="st0" x="457.2" y="762.3" width="28" height="28"/>
    <path class="st0" d="M485.4,790.5h-28.5v-28.5h28.5v28.5ZM457.4,790h27.5v-27.5h-27.5v27.5Z"/>
  </g>
  <g>
    <rect class="st0" x="457.2" y="734.2" width="28" height="28"/>
    <path class="st0" d="M485.4,762.5h-28.5v-28.5h28.5v28.5ZM457.4,762h27.5v-27.5h-27.5v27.5Z"/>
  </g>
  <g>
    <rect class="st0" x="457.2" y="706.2" width="28" height="28"/>
    <path class="st0" d="M485.4,734.5h-28.5v-28.5h28.5v28.5ZM457.4,734h27.5v-27.5h-27.5v27.5Z"/>
  </g>
  <g>
    <rect class="st0" x="457.2" y="678.2" width="28" height="28"/>
    <path class="st0" d="M485.4,706.5h-28.5v-28.5h28.5v28.5ZM457.4,706h27.5v-27.5h-27.5v27.5Z"/>
  </g>
  <g>
    <rect class="st0" x="457.2" y="650.2" width="28" height="28"/>
    <path class="st0" d="M485.4,678.5h-28.5v-28.5h28.5v28.5ZM457.4,678h27.5v-27.5h-27.5v27.5Z"/>
  </g>
  <g>
    <rect class="st0" x="457.2" y="482.1" width="28" height="28"/>
    <path class="st0" d="M485.4,510.3h-28.5v-28.5h28.5v28.5ZM457.4,509.8h27.5v-27.5h-27.5v27.5Z"/>
  </g>
  <g>
    <rect class="st0" x="429.1" y="846.3" width="28" height="28"/>
    <path class="st0" d="M457.4,874.6h-28.5v-28.5h28.5v28.5ZM429.4,874.1h27.5v-27.5h-27.5v27.5Z"/>
  </g>
  <g>
    <rect class="st0" x="429.1" y="818.3" width="28" height="28"/>
    <path class="st0" d="M457.4,846.6h-28.5v-28.5h28.5v28.5ZM429.4,846.1h27.5v-27.5h-27.5v27.5Z"/>
  </g>
  <g>
    <rect class="st0" x="429.1" y="790.3" width="28" height="28"/>
    <path class="st0" d="M457.4,818.6h-28.5v-28.5h28.5v28.5ZM429.4,818.1h27.5v-27.5h-27.5v27.5Z"/>
  </g>
  <g>
    <rect class="st0" x="429.1" y="706.2" width="28" height="28"/>
    <path class="st0" d="M457.4,734.5h-28.5v-28.5h28.5v28.5ZM429.4,734h27.5v-27.5h-27.5v27.5Z"/>
  </g>
  <g>
    <rect class="st0" x="429.1" y="678.2" width="28" height="28"/>
    <path class="st0" d="M457.4,706.5h-28.5v-28.5h28.5v28.5ZM429.4,706h27.5v-27.5h-27.5v27.5Z"/>
  </g>
  <g>
    <rect class="st0" x="401.1" y="846.3" width="28" height="28"/>
    <path class="st0" d="M429.4,874.6h-28.5v-28.5h28.5v28.5ZM401.4,874.1h27.5v-27.5h-27.5v27.5Z"/>
  </g>
  <g>
    <rect class="st0" x="401.1" y="818.3" width="28" height="28"/>
    <path class="st0" d="M429.4,846.6h-28.5v-28.5h28.5v28.5ZM401.4,846.1h27.5v-27.5h-27.5v27.5Z"/>
  </g>
  <g>
    <rect class="st0" x="401.1" y="790.3" width="28" height="28"/>
    <path class="st0" d="M429.4,818.6h-28.5v-28.5h28.5v28.5ZM401.4,818.1h27.5v-27.5h-27.5v27.5Z"/>
  </g>
  <g>
    <rect class="st0" x="401.1" y="706.2" width="28" height="28"/>
    <path class="st0" d="M429.4,734.5h-28.5v-28.5h28.5v28.5ZM401.4,734h27.5v-27.5h-27.5v27.5Z"/>
  </g>
  <g>
    <rect class="st0" x="401.1" y="678.2" width="28" height="28"/>
    <path class="st0" d="M429.4,706.5h-28.5v-28.5h28.5v28.5ZM401.4,706h27.5v-27.5h-27.5v27.5Z"/>
  </g>
  <g>
    <g>
      <rect class="st0" x="429.1" y="594.1" width="28" height="28"/>
      <path class="st0" d="M457.4,622.4h-28.5v-28.5h28.5v28.5ZM429.4,621.9h27.5v-27.5h-27.5v27.5Z"/>
    </g>
    <g>
      <rect class="st0" x="429.1" y="566.1" width="28" height="28"/>
      <path class="st0" d="M457.4,594.4h-28.5v-28.5h28.5v28.5ZM429.4,593.9h27.5v-27.5h-27.5v27.5Z"/>
    </g>
    <g>
      <rect class="st0" x="401.1" y="594.1" width="28" height="28"/>
      <path class="st0" d="M429.4,622.4h-28.5v-28.5h28.5v28.5ZM401.4,621.9h27.5v-27.5h-27.5v27.5Z"/>
    </g>
    <g>
      <rect class="st0" x="401.1" y="566.1" width="28" height="28"/>
      <path class="st0" d="M429.4,594.4h-28.5v-28.5h28.5v28.5ZM401.4,593.9h27.5v-27.5h-27.5v27.5Z"/>
    </g>
  </g>
  <g>
    <rect class="st0" x="373.1" y="818.3" width="28" height="28"/>
    <path class="st0" d="M401.4,846.6h-28.5v-28.5h28.5v28.5ZM373.4,846.1h27.5v-27.5h-27.5v27.5Z"/>
  </g>
  <g>
    <rect class="st0" x="373.1" y="790.3" width="28" height="28"/>
    <path class="st0" d="M401.4,818.6h-28.5v-28.5h28.5v28.5ZM373.4,818.1h27.5v-27.5h-27.5v27.5Z"/>
  </g>
  <g>
    <rect class="st0" x="373.1" y="762.3" width="28" height="28"/>
    <path class="st0" d="M401.4,790.5h-28.5v-28.5h28.5v28.5ZM373.4,790h27.5v-27.5h-27.5v27.5Z"/>
  </g>
  <g>
    <rect class="st0" x="373.1" y="734.2" width="28" height="28"/>
    <path class="st0" d="M401.4,762.5h-28.5v-28.5h28.5v28.5ZM373.4,762h27.5v-27.5h-27.5v27.5Z"/>
  </g>
  <g>
    <rect class="st0" x="373.1" y="706.2" width="28" height="28"/>
    <path class="st0" d="M401.4,734.5h-28.5v-28.5h28.5v28.5ZM373.4,734h27.5v-27.5h-27.5v27.5Z"/>
  </g>
  <g>
    <rect class="st0" x="373.1" y="678.2" width="28" height="28"/>
    <path class="st0" d="M401.4,706.5h-28.5v-28.5h28.5v28.5ZM373.4,706h27.5v-27.5h-27.5v27.5Z"/>
  </g>
  <g>
    <g>
      <rect class="st0" x="485.2" y="934.2" width="28" height="28"/>
      <path class="st0" d="M513.5,962.5h-28.5v-28.5h28.5v28.5ZM485.4,962h27.5v-27.5h-27.5v27.5Z"/>
    </g>
    <g>
      <rect class="st0" x="457.2" y="934.2" width="28" height="28"/>
      <path class="st0" d="M485.4,962.5h-28.5v-28.5h28.5v28.5ZM457.4,962h27.5v-27.5h-27.5v27.5Z"/>
    </g>
    <g>
      <rect class="st0" x="429.1" y="934.2" width="28" height="28"/>
      <path class="st0" d="M457.4,962.5h-28.5v-28.5h28.5v28.5ZM429.4,962h27.5v-27.5h-27.5v27.5Z"/>
    </g>
    <g>
      <rect class="st0" x="401.1" y="934.2" width="28" height="28"/>
      <path class="st0" d="M429.4,962.5h-28.5v-28.5h28.5v28.5ZM401.4,962h27.5v-27.5h-27.5v27.5Z"/>
    </g>
    <g>
      <rect class="st0" x="373.1" y="934.2" width="28" height="28"/>
      <path class="st0" d="M401.4,962.5h-28.5v-28.5h28.5v28.5ZM373.4,962h27.5v-27.5h-27.5v27.5Z"/>
    </g>
    <g>
      <rect class="st0" x="345.1" y="934.2" width="28" height="28"/>
      <path class="st0" d="M373.4,962.5h-28.5v-28.5h28.5v28.5ZM345.3,962h27.5v-27.5h-27.5v27.5Z"/>
    </g>
  </g>
  <g>
    <rect class="st0" x="345.1" y="790.3" width="28" height="28"/>
    <path class="st0" d="M373.4,818.6h-28.5v-28.5h28.5v28.5ZM345.3,818.1h27.5v-27.5h-27.5v27.5Z"/>
  </g>
  <g>
    <rect class="st0" x="345.1" y="762.3" width="28" height="28"/>
    <path class="st0" d="M373.4,790.5h-28.5v-28.5h28.5v28.5ZM345.3,790h27.5v-27.5h-27.5v27.5Z"/>
  </g>
  <g>
    <rect class="st0" x="345.1" y="734.2" width="28" height="28"/>
    <path class="st0" d="M373.4,762.5h-28.5v-28.5h28.5v28.5ZM345.3,762h27.5v-27.5h-27.5v27.5Z"/>
  </g>
  <g>
    <rect class="st0" x="345.1" y="706.2" width="28" height="28"/>
    <path class="st0" d="M373.4,734.5h-28.5v-28.5h28.5v28.5ZM345.3,734h27.5v-27.5h-27.5v27.5Z"/>
  </g>
  <g>
    <g>
      <rect class="st0" x="513.2" y="998" width="28" height="28"/>
      <path class="st0" d="M541.5,1026.2h-28.5v-28.5h28.5v28.5ZM513.5,1025.7h27.5v-27.5h-27.5v27.5Z"/>
    </g>
    <g>
      <rect class="st0" x="485.2" y="998" width="28" height="28"/>
      <path class="st0" d="M513.5,1026.2h-28.5v-28.5h28.5v28.5ZM485.4,1025.7h27.5v-27.5h-27.5v27.5Z"/>
    </g>
    <g>
      <rect class="st0" x="457.2" y="998" width="28" height="28"/>
      <path class="st0" d="M485.4,1026.2h-28.5v-28.5h28.5v28.5ZM457.4,1025.7h27.5v-27.5h-27.5v27.5Z"/>
    </g>
    <g>
      <rect class="st0" x="373.1" y="998" width="28" height="28"/>
      <path class="st0" d="M401.4,1026.2h-28.5v-28.5h28.5v28.5ZM373.4,1025.7h27.5v-27.5h-27.5v27.5Z"/>
    </g>
    <g>
      <rect class="st0" x="345.1" y="998" width="28" height="28"/>
      <path class="st0" d="M373.4,1026.2h-28.5v-28.5h28.5v28.5ZM345.3,1025.7h27.5v-27.5h-27.5v27.5Z"/>
    </g>
    <g>
      <rect class="st0" x="317.1" y="998" width="28" height="28"/>
      <path class="st0" d="M345.3,1026.2h-28.5v-28.5h28.5v28.5ZM317.3,1025.7h27.5v-27.5h-27.5v27.5Z"/>
    </g>
  </g>
  <g>
    <g>
      <rect class="st0" x="541.2" y="1065.5" width="28" height="28"/>
      <path class="st0" d="M569.5,1093.8h-28.5v-28.5h28.5v28.5ZM541.5,1093.3h27.5v-27.5h-27.5v27.5Z"/>
    </g>
    <g>
      <rect class="st0" x="513.2" y="1065.5" width="28" height="28"/>
      <path class="st0" d="M541.5,1093.8h-28.5v-28.5h28.5v28.5ZM513.5,1093.3h27.5v-27.5h-27.5v27.5Z"/>
    </g>
    <g>
      <rect class="st0" x="485.2" y="1065.5" width="28" height="28"/>
      <path class="st0" d="M513.5,1093.8h-28.5v-28.5h28.5v28.5ZM485.4,1093.3h27.5v-27.5h-27.5v27.5Z"/>
    </g>
    <g>
      <rect class="st0" x="457.2" y="1065.5" width="28" height="28"/>
      <path class="st0" d="M485.4,1093.8h-28.5v-28.5h28.5v28.5ZM457.4,1093.3h27.5v-27.5h-27.5v27.5Z"/>
    </g>
    <g>
      <rect class="st0" x="429.1" y="1065.5" width="28" height="28"/>
      <path class="st0" d="M457.4,1093.8h-28.5v-28.5h28.5v28.5ZM429.4,1093.3h27.5v-27.5h-27.5v27.5Z"/>
    </g>
    <g>
      <rect class="st0" x="401.1" y="1065.5" width="28" height="28"/>
      <path class="st0" d="M429.4,1093.8h-28.5v-28.5h28.5v28.5ZM401.4,1093.3h27.5v-27.5h-27.5v27.5Z"/>
    </g>
    <g>
      <rect class="st0" x="373.1" y="1065.5" width="28" height="28"/>
      <path class="st0" d="M401.4,1093.8h-28.5v-28.5h28.5v28.5ZM373.4,1093.3h27.5v-27.5h-27.5v27.5Z"/>
    </g>
    <g>
      <rect class="st0" x="345.1" y="1065.5" width="28" height="28"/>
      <path class="st0" d="M373.4,1093.8h-28.5v-28.5h28.5v28.5ZM345.3,1093.3h27.5v-27.5h-27.5v27.5Z"/>
    </g>
    <g>
      <rect class="st0" x="317.1" y="1065.5" width="28" height="28"/>
      <path class="st0" d="M345.3,1093.8h-28.5v-28.5h28.5v28.5ZM317.3,1093.3h27.5v-27.5h-27.5v27.5Z"/>
    </g>
    <g>
      <rect class="st0" x="289" y="1065.5" width="28" height="28"/>
      <path class="st0" d="M317.3,1093.8h-28.5v-28.5h28.5v28.5ZM289.3,1093.3h27.5v-27.5h-27.5v27.5Z"/>
    </g>
  </g>
  <g>
    <g>
      <rect class="st0" x="270" y="907.5" width="28" height="28"/>
      <path class="st0" d="M298.2,935.8h-28.5v-28.5h28.5v28.5ZM270.2,935.3h27.5v-27.5h-27.5v27.5Z"/>
    </g>
    <g>
      <rect class="st0" x="270" y="879.5" width="28" height="28"/>
      <path class="st0" d="M298.2,907.8h-28.5v-28.5h28.5v28.5ZM270.2,907.2h27.5v-27.5h-27.5v27.5Z"/>
    </g>
    <g>
      <rect class="st0" x="242" y="879.5" width="28" height="28"/>
      <path class="st0" d="M270.2,907.8h-28.5v-28.5h28.5v28.5ZM242.2,907.2h27.5v-27.5h-27.5v27.5Z"/>
    </g>
  </g>
  <g>
    <g>
      <rect class="st0" x="238.1" y="986.5" width="28" height="28"/>
      <path class="st0" d="M266.4,1014.7h-28.5v-28.5h28.5v28.5ZM238.4,1014.2h27.5v-27.5h-27.5v27.5Z"/>
    </g>
    <g>
      <rect class="st0" x="238.1" y="958.4" width="28" height="28"/>
      <path class="st0" d="M266.4,986.7h-28.5v-28.5h28.5v28.5ZM238.4,986.2h27.5v-27.5h-27.5v27.5Z"/>
    </g>
    <g>
      <rect class="st0" x="210.1" y="958.4" width="28" height="28"/>
      <path class="st0" d="M238.4,986.7h-28.5v-28.5h28.5v28.5ZM210.4,986.2h27.5v-27.5h-27.5v27.5Z"/>
    </g>
    <g>
      <rect class="st0" x="210.1" y="930.4" width="28" height="28"/>
      <path class="st0" d="M238.4,958.7h-28.5v-28.5h28.5v28.5ZM210.4,958.2h27.5v-27.5h-27.5v27.5Z"/>
    </g>
    <g>
      <rect class="st0" x="182.1" y="930.4" width="28" height="28"/>
      <path class="st0" d="M210.4,958.7h-28.5v-28.5h28.5v28.5ZM182.3,958.2h27.5v-27.5h-27.5v27.5Z"/>
    </g>
  </g>
  <g>
    <g>
      <rect class="st0" x="199.9" y="834.8" width="28" height="28"/>
      <path class="st0" d="M228.1,863.1h-28.5v-28.5h28.5v28.5ZM200.1,862.6h27.5v-27.5h-27.5v27.5Z"/>
    </g>
    <g>
      <rect class="st0" x="199.9" y="806.8" width="28" height="28"/>
      <path class="st0" d="M228.1,835.1h-28.5v-28.5h28.5v28.5ZM200.1,834.6h27.5v-27.5h-27.5v27.5Z"/>
    </g>
    <g>
      <rect class="st0" x="171.8" y="806.8" width="28" height="28"/>
      <path class="st0" d="M200.1,835.1h-28.5v-28.5h28.5v28.5ZM172.1,834.6h27.5v-27.5h-27.5v27.5Z"/>
    </g>
  </g>
  <g>
    <g>
      <rect class="st0" x="133.6" y="734.2" width="28" height="28"/>
      <path class="st0" d="M161.9,762.5h-28.5v-28.5h28.5v28.5ZM133.8,762h27.5v-27.5h-27.5v27.5Z"/>
    </g>
    <g>
      <rect class="st0" x="133.6" y="706.2" width="28" height="28"/>
      <path class="st0" d="M161.9,734.5h-28.5v-28.5h28.5v28.5ZM133.8,734h27.5v-27.5h-27.5v27.5Z"/>
    </g>
    <g>
      <rect class="st0" x="133.6" y="678.2" width="28" height="28"/>
      <path class="st0" d="M161.9,706.5h-28.5v-28.5h28.5v28.5ZM133.8,706h27.5v-27.5h-27.5v27.5Z"/>
    </g>
    <g>
      <rect class="st0" x="133.6" y="650.2" width="28" height="28"/>
      <path class="st0" d="M161.9,678.5h-28.5v-28.5h28.5v28.5ZM133.8,678h27.5v-27.5h-27.5v27.5Z"/>
    </g>
    <g>
      <rect class="st0" x="133.6" y="622.2" width="28" height="28"/>
      <path class="st0" d="M161.9,650.4h-28.5v-28.5h28.5v28.5ZM133.8,649.9h27.5v-27.5h-27.5v27.5Z"/>
    </g>
    <g>
      <rect class="st0" x="133.6" y="594.1" width="28" height="28"/>
      <path class="st0" d="M161.9,622.4h-28.5v-28.5h28.5v28.5ZM133.8,621.9h27.5v-27.5h-27.5v27.5Z"/>
    </g>
  </g>
  <g>
    <g>
      <rect class="st0" x="272.5" y="438.8" width="28" height="28"/>
      <path class="st0" d="M300.8,467.1h-28.5v-28.5h28.5v28.5ZM272.8,466.6h27.5v-27.5h-27.5v27.5Z"/>
    </g>
    <g>
      <rect class="st0" x="272.5" y="410.8" width="28" height="28"/>
      <path class="st0" d="M300.8,439.1h-28.5v-28.5h28.5v28.5ZM272.8,438.6h27.5v-27.5h-27.5v27.5Z"/>
    </g>
    <g>
      <rect class="st0" x="244.5" y="466.8" width="28" height="28"/>
      <path class="st0" d="M272.8,495.1h-28.5v-28.5h28.5v28.5ZM244.8,494.6h27.5v-27.5h-27.5v27.5Z"/>
    </g>
    <g>
      <rect class="st0" x="244.5" y="438.8" width="28" height="28"/>
      <path class="st0" d="M272.8,467.1h-28.5v-28.5h28.5v28.5ZM244.8,466.6h27.5v-27.5h-27.5v27.5Z"/>
    </g>
    <g>
      <rect class="st0" x="216.5" y="494.9" width="28" height="28"/>
      <path class="st0" d="M244.8,523.1h-28.5v-28.5h28.5v28.5ZM216.8,522.6h27.5v-27.5h-27.5v27.5Z"/>
    </g>
    <g>
      <rect class="st0" x="216.5" y="466.8" width="28" height="28"/>
      <path class="st0" d="M244.8,495.1h-28.5v-28.5h28.5v28.5ZM216.8,494.6h27.5v-27.5h-27.5v27.5Z"/>
    </g>
    <g>
      <rect class="st0" x="188.5" y="522.9" width="28" height="28"/>
      <path class="st0" d="M216.8,551.1h-28.5v-28.5h28.5v28.5ZM188.7,550.6h27.5v-27.5h-27.5v27.5Z"/>
    </g>
    <g>
      <rect class="st0" x="188.5" y="494.9" width="28" height="28"/>
      <path class="st0" d="M216.8,523.1h-28.5v-28.5h28.5v28.5ZM188.7,522.6h27.5v-27.5h-27.5v27.5Z"/>
    </g>
    <g>
      <rect class="st0" x="160.5" y="522.9" width="28" height="28"/>
      <path class="st0" d="M188.7,551.1h-28.5v-28.5h28.5v28.5ZM160.7,550.6h27.5v-27.5h-27.5v27.5Z"/>
    </g>
  </g>
  <g>
    <g>
      <rect class="st0" x="216.5" y="1059" width="28" height="28"/>
      <path class="st0" d="M244.8,1087.3h-28.5v-28.5h28.5v28.5ZM216.8,1086.8h27.5v-27.5h-27.5v27.5Z"/>
    </g>
    <g>
      <rect class="st0" x="216.5" y="1031" width="28" height="28"/>
      <path class="st0" d="M244.8,1059.2h-28.5v-28.5h28.5v28.5ZM216.8,1058.8h27.5v-27.5h-27.5v27.5Z"/>
    </g>
    <g>
      <rect class="st0" x="188.5" y="1031" width="28" height="28"/>
      <path class="st0" d="M216.8,1059.2h-28.5v-28.5h28.5v28.5ZM188.7,1058.8h27.5v-27.5h-27.5v27.5Z"/>
    </g>
    <g>
      <rect class="st0" x="188.5" y="1003" width="28" height="28"/>
      <path class="st0" d="M216.8,1031.2h-28.5v-28.5h28.5v28.5ZM188.7,1030.7h27.5v-27.5h-27.5v27.5Z"/>
    </g>
    <g>
      <rect class="st0" x="160.5" y="1003" width="28" height="28"/>
      <path class="st0" d="M188.7,1031.2h-28.5v-28.5h28.5v28.5ZM160.7,1030.7h27.5v-27.5h-27.5v27.5Z"/>
    </g>
    <g>
      <rect class="st0" x="160.5" y="974.9" width="28" height="28"/>
      <path class="st0" d="M188.7,1003.2h-28.5v-28.5h28.5v28.5ZM160.7,1002.7h27.5v-27.5h-27.5v27.5Z"/>
    </g>
    <g>
      <rect class="st0" x="132.4" y="974.9" width="28" height="28"/>
      <path class="st0" d="M160.7,1003.2h-28.5v-28.5h28.5v28.5ZM132.7,1002.7h27.5v-27.5h-27.5v27.5Z"/>
    </g>
  </g>
  <g>
    <g>
      <rect class="st0" x="154.1" y="888.4" width="28" height="28"/>
      <path class="st0" d="M182.3,916.7h-28.5v-28.5h28.5v28.5ZM154.3,916.2h27.5v-27.5h-27.5v27.5Z"/>
    </g>
    <g>
      <rect class="st0" x="154.1" y="860.4" width="28" height="28"/>
      <path class="st0" d="M182.3,888.7h-28.5v-28.5h28.5v28.5ZM154.3,888.2h27.5v-27.5h-27.5v27.5Z"/>
    </g>
    <g>
      <rect class="st0" x="126" y="860.4" width="28" height="28"/>
      <path class="st0" d="M154.3,888.7h-28.5v-28.5h28.5v28.5ZM126.3,888.2h27.5v-27.5h-27.5v27.5Z"/>
    </g>
    <g>
      <rect class="st0" x="126" y="832.4" width="28" height="28"/>
      <path class="st0" d="M154.3,860.7h-28.5v-28.5h28.5v28.5ZM126.3,860.2h27.5v-27.5h-27.5v27.5Z"/>
    </g>
    <g>
      <rect class="st0" x="98" y="832.4" width="28" height="28"/>
      <path class="st0" d="M126.3,860.7h-28.5v-28.5h28.5v28.5ZM98.3,860.2h27.5v-27.5h-27.5v27.5Z"/>
    </g>
  </g>
  <g>
    <g>
      <rect class="st0" x="71.1" y="762.3" width="28" height="28"/>
      <path class="st0" d="M99.4,790.5h-28.5v-28.5h28.5v28.5ZM71.4,790h27.5v-27.5h-27.5v27.5Z"/>
    </g>
    <g>
      <rect class="st0" x="71.1" y="734.2" width="28" height="28"/>
      <path class="st0" d="M99.4,762.5h-28.5v-28.5h28.5v28.5ZM71.4,762h27.5v-27.5h-27.5v27.5Z"/>
    </g>
    <g>
      <rect class="st0" x="71.1" y="706.2" width="28" height="28"/>
      <path class="st0" d="M99.4,734.5h-28.5v-28.5h28.5v28.5ZM71.4,734h27.5v-27.5h-27.5v27.5Z"/>
    </g>
    <g>
      <rect class="st0" x="71.1" y="678.2" width="28" height="28"/>
      <path class="st0" d="M99.4,706.5h-28.5v-28.5h28.5v28.5ZM71.4,706h27.5v-27.5h-27.5v27.5Z"/>
    </g>
    <g>
      <rect class="st0" x="71.1" y="650.2" width="28" height="28"/>
      <path class="st0" d="M99.4,678.5h-28.5v-28.5h28.5v28.5ZM71.4,678h27.5v-27.5h-27.5v27.5Z"/>
    </g>
    <g>
      <rect class="st0" x="71.1" y="622.2" width="28" height="28"/>
      <path class="st0" d="M99.4,650.4h-28.5v-28.5h28.5v28.5ZM71.4,649.9h27.5v-27.5h-27.5v27.5Z"/>
    </g>
    <g>
      <rect class="st0" x="71.1" y="594.1" width="28" height="28"/>
      <path class="st0" d="M99.4,622.4h-28.5v-28.5h28.5v28.5ZM71.4,621.9h27.5v-27.5h-27.5v27.5Z"/>
    </g>
    <g>
      <rect class="st0" x="71.1" y="566.1" width="28" height="28"/>
      <path class="st0" d="M99.4,594.4h-28.5v-28.5h28.5v28.5ZM71.4,593.9h27.5v-27.5h-27.5v27.5Z"/>
    </g>
  </g>
  <g>
    <g>
      <rect class="st0" x="252.2" y="357.3" width="28" height="28"/>
      <path class="st0" d="M280.5,385.6h-28.5v-28.5h28.5v28.5ZM252.5,385.1h27.5v-27.5h-27.5v27.5Z"/>
    </g>
    <g>
      <rect class="st0" x="252.2" y="329.3" width="28" height="28"/>
      <path class="st0" d="M280.5,357.6h-28.5v-28.5h28.5v28.5ZM252.5,357.1h27.5v-27.5h-27.5v27.5Z"/>
    </g>
    <g>
      <rect class="st0" x="224.2" y="385.3" width="28" height="28"/>
      <path class="st0" d="M252.5,413.6h-28.5v-28.5h28.5v28.5ZM224.4,413.1h27.5v-27.5h-27.5v27.5Z"/>
    </g>
    <g>
      <rect class="st0" x="224.2" y="357.3" width="28" height="28"/>
      <path class="st0" d="M252.5,385.6h-28.5v-28.5h28.5v28.5ZM224.4,385.1h27.5v-27.5h-27.5v27.5Z"/>
    </g>
    <g>
      <rect class="st0" x="196.2" y="413.4" width="28" height="28"/>
      <path class="st0" d="M224.4,441.6h-28.5v-28.5h28.5v28.5ZM196.4,441.1h27.5v-27.5h-27.5v27.5Z"/>
    </g>
    <g>
      <rect class="st0" x="196.2" y="385.3" width="28" height="28"/>
      <path class="st0" d="M224.4,413.6h-28.5v-28.5h28.5v28.5ZM196.4,413.1h27.5v-27.5h-27.5v27.5Z"/>
    </g>
    <g>
      <rect class="st0" x="168.1" y="441.4" width="28" height="28"/>
      <path class="st0" d="M196.4,469.6h-28.5v-28.5h28.5v28.5ZM168.4,469.1h27.5v-27.5h-27.5v27.5Z"/>
    </g>
    <g>
      <rect class="st0" x="168.1" y="413.4" width="28" height="28"/>
      <path class="st0" d="M196.4,441.6h-28.5v-28.5h28.5v28.5ZM168.4,441.1h27.5v-27.5h-27.5v27.5Z"/>
    </g>
    <g>
      <rect class="st0" x="140.1" y="469.4" width="28" height="28"/>
      <path class="st0" d="M168.4,497.7h-28.5v-28.5h28.5v28.5ZM140.4,497.2h27.5v-27.5h-27.5v27.5Z"/>
    </g>
    <g>
      <rect class="st0" x="140.1" y="441.4" width="28" height="28"/>
      <path class="st0" d="M168.4,469.6h-28.5v-28.5h28.5v28.5ZM140.4,469.1h27.5v-27.5h-27.5v27.5Z"/>
    </g>
    <g>
      <rect class="st0" x="112.1" y="497.4" width="28" height="28"/>
      <path class="st0" d="M140.4,525.7h-28.5v-28.5h28.5v28.5ZM112.4,525.2h27.5v-27.5h-27.5v27.5Z"/>
    </g>
    <g>
      <rect class="st0" x="112.1" y="469.4" width="28" height="28"/>
      <path class="st0" d="M140.4,497.7h-28.5v-28.5h28.5v28.5ZM112.4,497.2h27.5v-27.5h-27.5v27.5Z"/>
    </g>
    <g>
      <rect class="st0" x="84.1" y="497.4" width="28" height="28"/>
      <path class="st0" d="M112.4,525.7h-28.5v-28.5h28.5v28.5ZM84.3,525.2h27.5v-27.5h-27.5v27.5Z"/>
    </g>
  </g>
  <g>
    <g>
      <rect class="st0" x="1" y="790.3" width="28" height="28"/>
      <path class="st0" d="M29.3,818.6H.8v-28.5h28.5v28.5ZM1.2,818.1h27.5v-27.5H1.2v27.5Z"/>
    </g>
    <g>
      <rect class="st0" x="1" y="762.3" width="28" height="28"/>
      <path class="st0" d="M29.3,790.5H.8v-28.5h28.5v28.5ZM1.2,790h27.5v-27.5H1.2v27.5Z"/>
    </g>
    <g>
      <rect class="st0" x="1" y="734.2" width="28" height="28"/>
      <path class="st0" d="M29.3,762.5H.8v-28.5h28.5v28.5ZM1.2,762h27.5v-27.5H1.2v27.5Z"/>
    </g>
    <g>
      <rect class="st0" x="1" y="706.2" width="28" height="28"/>
      <path class="st0" d="M29.3,734.5H.8v-28.5h28.5v28.5ZM1.2,734h27.5v-27.5H1.2v27.5Z"/>
    </g>
    <g>
      <rect class="st0" x="1" y="678.2" width="28" height="28"/>
      <path class="st0" d="M29.3,706.5H.8v-28.5h28.5v28.5ZM1.2,706h27.5v-27.5H1.2v27.5Z"/>
    </g>
    <g>
      <rect class="st0" x="1" y="650.2" width="28" height="28"/>
      <path class="st0" d="M29.3,678.5H.8v-28.5h28.5v28.5ZM1.2,678h27.5v-27.5H1.2v27.5Z"/>
    </g>
    <g>
      <rect class="st0" x="1" y="622.2" width="28" height="28"/>
      <path class="st0" d="M29.3,650.4H.8v-28.5h28.5v28.5ZM1.2,649.9h27.5v-27.5H1.2v27.5Z"/>
    </g>
    <g>
      <rect class="st0" x="1" y="594.1" width="28" height="28"/>
      <path class="st0" d="M29.3,622.4H.8v-28.5h28.5v28.5ZM1.2,621.9h27.5v-27.5H1.2v27.5Z"/>
    </g>
    <g>
      <rect class="st0" x="1" y="566.1" width="28" height="28"/>
      <path class="st0" d="M29.3,594.4H.8v-28.5h28.5v28.5ZM1.2,593.9h27.5v-27.5H1.2v27.5Z"/>
    </g>
    <g>
      <rect class="st0" x="1" y="538.1" width="28" height="28"/>
      <path class="st0" d="M29.3,566.4H.8v-28.5h28.5v28.5ZM1.2,565.9h27.5v-27.5H1.2v27.5Z"/>
    </g>
  </g>
  <g>
    <g>
      <rect class="st0" x="103.1" y="939.4" width="28" height="28"/>
      <path class="st0" d="M131.4,967.6h-28.5v-28.5h28.5v28.5ZM103.4,967.1h27.5v-27.5h-27.5v27.5Z"/>
    </g>
    <g>
      <rect class="st0" x="103.1" y="911.3" width="28" height="28"/>
      <path class="st0" d="M131.4,939.6h-28.5v-28.5h28.5v28.5ZM103.4,939.1h27.5v-27.5h-27.5v27.5Z"/>
    </g>
    <g>
      <rect class="st0" x="75.1" y="911.3" width="28" height="28"/>
      <path class="st0" d="M103.4,939.6h-28.5v-28.5h28.5v28.5ZM75.4,939.1h27.5v-27.5h-27.5v27.5Z"/>
    </g>
    <g>
      <rect class="st0" x="75.1" y="883.3" width="28" height="28"/>
      <path class="st0" d="M103.4,911.6h-28.5v-28.5h28.5v28.5ZM75.4,911.1h27.5v-27.5h-27.5v27.5Z"/>
    </g>
    <g>
      <rect class="st0" x="47.1" y="883.3" width="28" height="28"/>
      <path class="st0" d="M75.4,911.6h-28.5v-28.5h28.5v28.5ZM47.3,911.1h27.5v-27.5h-27.5v27.5Z"/>
    </g>
    <g>
      <rect class="st0" x="47.1" y="855.3" width="28" height="28"/>
      <path class="st0" d="M75.4,883.6h-28.5v-28.5h28.5v28.5ZM47.3,883.1h27.5v-27.5h-27.5v27.5Z"/>
    </g>
    <g>
      <rect class="st0" x="19.1" y="855.3" width="28" height="28"/>
      <path class="st0" d="M47.3,883.6h-28.5v-28.5h28.5v28.5ZM19.3,883.1h27.5v-27.5h-27.5v27.5Z"/>
    </g>
  </g>
  <g>
    <g>
      <rect class="st0" x="224.2" y="275.8" width="28" height="28"/>
      <path class="st0" d="M252.5,304.1h-28.5v-28.5h28.5v28.5ZM224.4,303.6h27.5v-27.5h-27.5v27.5Z"/>
    </g>
    <g>
      <rect class="st0" x="224.2" y="247.8" width="28" height="28"/>
      <path class="st0" d="M252.5,276.1h-28.5v-28.5h28.5v28.5ZM224.4,275.6h27.5v-27.5h-27.5v27.5Z"/>
    </g>
    <g>
      <rect class="st0" x="196.2" y="303.8" width="28" height="28"/>
      <path class="st0" d="M224.4,332.1h-28.5v-28.5h28.5v28.5ZM196.4,331.6h27.5v-27.5h-27.5v27.5Z"/>
    </g>
    <g>
      <rect class="st0" x="196.2" y="275.8" width="28" height="28"/>
      <path class="st0" d="M224.4,304.1h-28.5v-28.5h28.5v28.5ZM196.4,303.6h27.5v-27.5h-27.5v27.5Z"/>
    </g>
    <g>
      <rect class="st0" x="168.1" y="331.9" width="28" height="28"/>
      <path class="st0" d="M196.4,360.1h-28.5v-28.5h28.5v28.5ZM168.4,359.6h27.5v-27.5h-27.5v27.5Z"/>
    </g>
    <g>
      <rect class="st0" x="168.1" y="303.8" width="28" height="28"/>
      <path class="st0" d="M196.4,332.1h-28.5v-28.5h28.5v28.5ZM168.4,331.6h27.5v-27.5h-27.5v27.5Z"/>
    </g>
    <g>
      <rect class="st0" x="140.1" y="359.9" width="28" height="28"/>
      <path class="st0" d="M168.4,388.1h-28.5v-28.5h28.5v28.5ZM140.4,387.6h27.5v-27.5h-27.5v27.5Z"/>
    </g>
    <g>
      <rect class="st0" x="140.1" y="331.9" width="28" height="28"/>
      <path class="st0" d="M168.4,360.1h-28.5v-28.5h28.5v28.5ZM140.4,359.6h27.5v-27.5h-27.5v27.5Z"/>
    </g>
    <g>
      <rect class="st0" x="112.1" y="387.9" width="28" height="28"/>
      <path class="st0" d="M140.4,416.2h-28.5v-28.5h28.5v28.5ZM112.4,415.7h27.5v-27.5h-27.5v27.5Z"/>
    </g>
    <g>
      <rect class="st0" x="112.1" y="359.9" width="28" height="28"/>
      <path class="st0" d="M140.4,388.1h-28.5v-28.5h28.5v28.5ZM112.4,387.6h27.5v-27.5h-27.5v27.5Z"/>
    </g>
    <g>
      <rect class="st0" x="84.1" y="415.9" width="28" height="28"/>
      <path class="st0" d="M112.4,444.2h-28.5v-28.5h28.5v28.5ZM84.3,443.7h27.5v-27.5h-27.5v27.5Z"/>
    </g>
    <g>
      <rect class="st0" x="84.1" y="387.9" width="28" height="28"/>
      <path class="st0" d="M112.4,416.2h-28.5v-28.5h28.5v28.5ZM84.3,415.7h27.5v-27.5h-27.5v27.5Z"/>
    </g>
    <g>
      <rect class="st0" x="56" y="443.9" width="28" height="28"/>
      <path class="st0" d="M84.3,472.2h-28.5v-28.5h28.5v28.5ZM56.3,471.7h27.5v-27.5h-27.5v27.5Z"/>
    </g>
    <g>
      <rect class="st0" x="56" y="415.9" width="28" height="28"/>
      <path class="st0" d="M84.3,444.2h-28.5v-28.5h28.5v28.5ZM56.3,443.7h27.5v-27.5h-27.5v27.5Z"/>
    </g>
    <g>
      <rect class="st0" x="28" y="472" width="28" height="28"/>
      <path class="st0" d="M56.3,500.2h-28.5v-28.5h28.5v28.5ZM28.3,499.7h27.5v-27.5h-27.5v27.5Z"/>
    </g>
    <g>
      <rect class="st0" x="28" y="443.9" width="28" height="28"/>
      <path class="st0" d="M56.3,472.2h-28.5v-28.5h28.5v28.5ZM28.3,471.7h27.5v-27.5h-27.5v27.5Z"/>
    </g>
    <g>
      <rect class="st0" y="472" width="28" height="28"/>
      <path class="st0" d="M28.3,500.2H-.2v-28.5h28.5v28.5ZM.2,499.7h27.5v-27.5H.2v27.5Z"/>
    </g>
  </g>
</svg>